{"glyphs":{"0":{"ha":833,"x_min":76,"x_max":756,"o":"m 76 486 q 97 698 76 604 q 160 856 118 792 q 265 955 201 921 q 417 989 329 989 q 574 956 510 989 q 679 858 639 922 q 738 701 719 794 q 756 486 756 607 q 735 274 756 368 q 672 116 714 181 q 567 17 631 51 q 415 -17 503 -17 q 259 20 324 -17 q 153 124 194 57 q 94 283 113 190 q 76 486 76 375 m 642 486 q 633 626 642 560 l 221 250 q 292 124 244 171 q 415 76 339 76 q 590 178 538 76 q 642 486 642 279 m 192 486 q 194 419 192 451 q 199 357 196 388 l 613 732 q 542 851 589 807 q 417 896 496 896 q 242 794 293 896 q 192 486 192 692 z "},"1":{"ha":833,"x_min":118,"x_max":715,"o":"m 176 100 l 394 100 l 394 831 l 172 675 l 118 754 l 424 972 l 501 972 l 501 100 l 715 100 l 715 0 l 176 0 l 176 100 z "},"2":{"ha":833,"x_min":108,"x_max":725,"o":"m 694 726 q 574 442 694 599 q 236 100 453 285 l 725 100 l 725 0 l 108 0 l 108 100 q 181 165 135 125 q 279 255 226 206 q 387 361 332 304 q 486 478 442 418 q 558 597 531 538 q 586 713 586 657 q 542 844 586 796 q 411 892 499 892 q 285 875 336 892 q 192 826 233 858 l 144 903 q 277 968 207 947 q 431 989 347 989 q 628 918 561 989 q 694 726 694 847 z "},"3":{"ha":833,"x_min":122,"x_max":710,"o":"m 344 79 q 447 94 400 79 q 528 135 493 108 q 582 199 563 161 q 601 282 601 236 q 534 419 601 378 q 353 460 467 460 l 264 460 l 264 526 l 538 872 l 122 872 l 122 972 l 671 972 l 671 872 l 397 551 l 419 551 q 536 533 483 551 q 628 482 589 515 q 688 401 667 449 q 710 294 710 354 q 681 161 710 219 q 601 63 651 103 q 484 3 551 24 q 340 -17 417 -17 q 217 -6 269 -17 q 122 19 165 4 l 150 117 q 235 90 186 100 q 344 79 283 79 z "},"4":{"ha":833,"x_min":61,"x_max":806,"o":"m 806 303 l 618 303 l 618 0 l 510 0 l 510 303 l 61 303 l 61 383 l 526 972 l 618 972 l 618 394 l 806 394 l 806 303 m 510 799 l 189 394 l 510 394 l 510 799 z "},"5":{"ha":833,"x_min":115,"x_max":703,"o":"m 356 81 q 453 94 408 81 q 528 134 497 107 q 577 201 560 161 q 594 296 594 242 q 523 448 594 396 q 328 500 451 500 l 197 493 l 197 972 l 674 972 l 674 872 l 301 872 l 301 590 l 371 593 q 614 518 525 593 q 703 304 703 443 q 676 167 703 226 q 601 66 649 107 q 490 4 554 25 q 349 -17 425 -17 q 269 -10 307 -17 q 201 5 232 -4 q 148 24 171 14 q 115 43 125 35 l 160 133 q 232 100 183 119 q 356 81 281 81 z "},"6":{"ha":833,"x_min":85,"x_max":749,"o":"m 749 293 q 727 178 749 233 q 664 79 706 122 q 561 10 622 36 q 419 -17 500 -17 q 283 7 344 -17 q 178 74 222 31 q 109 182 133 118 q 85 325 85 246 q 123 572 85 456 q 230 778 161 689 q 394 922 299 867 q 603 989 489 978 l 622 900 q 462 849 535 889 q 335 749 389 808 q 247 617 281 689 q 203 469 213 544 q 235 507 214 488 q 287 541 257 526 q 353 565 317 556 q 433 575 390 575 q 565 555 507 575 q 665 498 624 535 q 727 409 706 461 q 749 293 749 357 m 635 282 q 581 431 635 379 q 414 482 526 482 q 339 472 374 482 q 276 447 304 463 q 228 410 249 431 q 196 368 207 389 q 193 338 193 349 q 193 311 193 326 q 207 227 193 269 q 249 151 221 185 q 321 97 278 118 q 422 76 364 76 q 508 93 469 76 q 576 138 547 110 q 619 203 604 165 q 635 282 635 240 z "},"7":{"ha":833,"x_min":96,"x_max":710,"o":"m 172 0 l 597 872 l 96 872 l 96 972 l 710 972 l 710 882 l 286 0 l 172 0 z "},"8":{"ha":833,"x_min":104,"x_max":729,"o":"m 104 236 q 308 507 104 404 q 236 550 269 528 q 178 600 203 572 q 140 664 154 628 q 126 747 126 700 q 147 843 126 799 q 207 919 168 888 q 301 970 246 951 q 425 989 357 989 q 541 972 489 989 q 630 926 593 956 q 686 856 667 896 q 706 769 706 815 q 666 624 706 690 q 539 504 626 558 q 614 460 579 483 q 674 407 649 436 q 715 341 700 378 q 729 257 729 304 q 708 148 729 199 q 647 61 688 97 q 546 4 606 25 q 407 -17 486 -17 q 276 4 333 -17 q 181 60 219 25 q 124 140 143 94 q 104 236 104 186 m 619 250 q 601 322 619 290 q 551 378 582 353 q 479 424 519 403 q 396 465 439 444 q 253 358 296 417 q 211 249 211 300 q 224 183 211 214 q 263 128 238 151 q 327 90 289 104 q 415 76 365 76 q 492 88 456 76 q 558 120 529 99 q 603 174 586 142 q 619 250 619 207 m 235 751 q 253 682 235 713 q 301 627 271 651 q 369 583 331 603 q 451 543 408 563 q 562 640 525 592 q 599 747 599 689 q 584 809 599 782 q 545 856 569 836 q 489 885 521 875 q 422 896 457 896 q 343 883 378 896 q 285 850 308 871 q 248 803 261 829 q 235 751 235 778 z "},"9":{"ha":833,"x_min":85,"x_max":749,"o":"m 85 679 q 106 799 85 743 q 169 898 126 856 q 274 965 211 940 q 419 989 336 989 q 558 964 497 989 q 662 894 619 939 q 726 784 704 849 q 749 640 749 719 q 710 367 749 485 q 601 167 671 249 q 437 39 532 85 q 231 -17 342 -7 l 210 71 q 374 115 301 81 q 499 204 446 150 q 585 329 551 258 q 631 481 618 400 q 585 441 608 457 q 535 415 563 425 q 474 401 507 406 q 397 397 440 397 q 276 417 333 397 q 177 473 219 436 q 110 562 135 510 q 85 679 85 614 m 199 690 q 259 540 199 590 q 419 490 319 490 q 556 515 499 490 q 638 575 614 539 q 640 606 640 594 q 640 633 640 618 q 627 729 640 682 q 586 814 614 776 q 515 874 558 851 q 410 897 471 897 q 254 843 310 897 q 199 690 199 789 z "}," ":{"ha":833,"x_min":0,"x_max":0,"o":""},"!":{"ha":833,"x_min":336,"x_max":497,"o":"m 360 972 l 475 972 l 475 490 l 451 246 l 383 246 l 360 490 l 360 972 m 336 64 q 358 123 336 101 q 415 144 379 144 q 475 123 453 144 q 497 64 497 101 q 475 6 497 28 q 415 -17 453 -17 q 358 6 379 -17 q 336 64 336 28 z "},"\"":{"ha":833,"x_min":211,"x_max":621,"o":"m 499 972 l 621 972 l 578 551 l 499 551 l 499 972 m 211 972 l 333 972 l 290 551 l 211 551 l 211 972 z "},"#":{"ha":833,"x_min":42,"x_max":790,"o":"m 475 313 l 274 313 l 219 81 l 124 81 l 178 313 l 42 313 l 61 401 l 199 401 l 242 583 l 111 583 l 131 672 l 263 672 l 315 892 l 411 892 l 358 672 l 560 672 l 613 892 l 708 892 l 656 672 l 790 672 l 768 583 l 635 583 l 592 401 l 721 401 l 699 313 l 571 313 l 517 81 l 421 81 l 475 313 m 294 401 l 496 401 l 539 583 l 338 583 l 294 401 z "},"$":{"ha":833,"x_min":135,"x_max":699,"o":"m 365 -17 q 230 -3 289 -15 q 135 28 171 8 l 172 129 q 248 99 200 113 q 365 83 296 86 l 365 458 q 283 503 324 479 q 210 559 242 526 q 158 636 178 592 q 139 742 139 681 q 195 906 139 842 q 365 985 251 969 l 365 1111 l 460 1111 l 460 989 q 576 976 531 986 q 657 949 621 965 l 624 851 q 557 876 596 865 q 460 889 518 886 l 460 546 q 546 498 503 524 q 623 439 589 472 q 678 361 657 406 q 699 257 699 317 q 638 78 699 149 q 460 -11 578 8 l 460 -139 l 365 -139 l 365 -17 m 583 247 q 572 307 583 281 q 540 354 560 333 q 494 392 521 375 q 438 424 468 408 l 438 86 q 542 136 501 97 q 583 247 583 175 m 254 749 q 292 651 254 689 q 388 583 331 614 l 388 888 q 284 839 314 879 q 254 749 254 799 z "},"%":{"ha":833,"x_min":39,"x_max":793,"o":"m 39 753 q 55 863 39 818 q 96 936 71 908 q 153 976 121 964 q 217 989 185 989 q 281 978 249 989 q 338 940 313 967 q 378 867 363 913 q 394 753 394 822 q 378 640 394 685 q 338 567 363 594 q 281 529 313 540 q 217 518 249 518 q 153 529 185 518 q 96 567 121 540 q 55 640 71 594 q 39 753 39 685 m 136 753 q 162 638 136 671 q 217 606 188 606 q 247 612 232 606 q 272 635 261 618 q 290 680 283 651 q 297 753 297 708 q 290 824 297 796 q 272 870 283 853 q 247 894 261 888 q 217 901 232 901 q 160 869 185 901 q 136 753 136 836 m 438 235 q 453 345 438 300 q 494 418 469 390 q 551 458 519 446 q 615 471 583 471 q 679 460 647 471 q 736 422 711 449 q 777 349 761 394 q 793 235 793 304 q 777 122 793 167 q 736 49 761 76 q 679 11 711 22 q 615 0 647 0 q 551 11 583 0 q 494 49 519 22 q 453 122 469 76 q 438 235 438 167 m 535 235 q 560 120 535 153 q 615 88 586 88 q 645 93 631 88 q 671 115 660 99 q 689 160 682 131 q 696 235 696 189 q 689 306 696 278 q 671 352 682 335 q 645 376 660 369 q 615 383 631 383 q 585 376 600 383 q 560 353 571 369 q 542 308 549 336 q 535 235 535 279 m 614 997 l 693 957 l 210 -19 l 131 17 l 614 997 z "},"&":{"ha":833,"x_min":42,"x_max":790,"o":"m 42 288 q 93 463 42 379 q 236 603 144 546 q 178 703 203 653 q 154 811 154 753 q 165 876 154 844 q 201 933 176 908 q 263 974 225 958 q 356 989 301 989 q 451 974 413 989 q 514 936 490 960 q 548 883 538 913 q 558 824 558 854 q 513 703 558 765 q 371 585 468 642 q 423 502 393 544 q 486 418 453 460 q 554 335 519 376 q 624 260 589 294 q 651 314 639 282 q 670 381 663 346 q 681 450 678 415 q 685 514 685 485 l 783 514 q 756 340 779 426 q 686 193 732 253 q 731 147 706 169 q 790 101 756 124 l 790 -17 q 622 113 717 19 q 572 65 597 88 q 514 24 546 42 q 441 -6 482 6 q 346 -17 400 -17 q 235 2 289 -17 q 138 58 181 21 q 68 153 94 96 q 42 288 42 210 m 557 182 q 478 269 517 222 q 403 364 439 317 q 338 455 368 411 q 288 532 308 499 q 183 417 213 475 q 153 292 153 358 q 173 198 153 238 q 224 132 193 158 q 291 93 254 106 q 363 81 328 81 q 478 112 432 81 q 557 182 525 143 m 263 811 q 280 728 263 769 q 325 647 297 688 q 427 733 399 694 q 456 801 456 772 q 434 874 456 846 q 360 901 413 901 q 286 876 310 901 q 263 811 263 851 z "},"'":{"ha":833,"x_min":363,"x_max":485,"o":"m 363 972 l 485 972 l 442 551 l 363 551 l 363 972 z "},"(":{"ha":833,"x_min":153,"x_max":708,"o":"m 689 -306 q 467 -245 567 -292 q 299 -119 368 -199 q 191 75 229 -39 q 153 338 153 189 q 190 598 153 483 q 297 794 228 713 q 462 924 365 875 q 675 989 558 972 l 690 899 q 507 836 586 876 q 374 729 428 796 q 292 567 319 663 q 264 338 264 471 q 298 105 264 203 q 392 -60 332 7 q 533 -163 451 -126 q 708 -212 614 -200 l 689 -306 z "},")":{"ha":833,"x_min":153,"x_max":708,"o":"m 172 989 q 394 928 294 975 q 563 801 493 882 q 670 607 632 721 q 708 346 708 493 q 670 85 708 200 q 563 -110 632 -29 q 399 -240 494 -192 q 186 -306 303 -289 l 171 -215 q 354 -153 275 -193 q 488 -46 433 -112 q 569 117 542 21 q 597 346 597 213 q 563 578 597 481 q 469 743 529 676 q 328 847 410 810 q 153 896 247 883 l 172 989 z "},"*":{"ha":833,"x_min":85,"x_max":749,"o":"m 296 992 l 419 749 l 539 993 l 635 942 l 467 707 l 749 728 l 749 615 l 475 638 l 636 414 l 543 360 l 414 608 l 292 360 l 192 414 l 360 638 l 85 615 l 85 728 l 360 704 l 200 938 l 296 992 z "},"+":{"ha":833,"x_min":67,"x_max":767,"o":"m 67 519 l 367 519 l 367 826 l 467 826 l 467 519 l 767 519 l 767 419 l 467 419 l 467 113 l 367 113 l 367 419 l 67 419 l 67 519 z "},",":{"ha":833,"x_min":313,"x_max":526,"o":"m 318 76 q 345 144 318 118 q 415 169 372 169 q 497 133 468 169 q 526 29 526 96 q 508 -66 526 -25 q 463 -135 490 -107 q 405 -181 436 -164 q 347 -207 374 -199 l 313 -153 q 399 -97 363 -133 q 435 -10 435 -61 q 404 -14 415 -14 q 341 9 364 -14 q 318 76 318 32 z "},"-":{"ha":833,"x_min":179,"x_max":654,"o":"m 179 451 l 654 451 l 654 349 l 179 349 l 179 451 z "},".":{"ha":833,"x_min":324,"x_max":510,"o":"m 324 76 q 349 145 324 121 q 415 169 374 169 q 485 145 460 169 q 510 76 510 121 q 485 10 510 36 q 415 -17 460 -17 q 349 10 374 -17 q 324 76 324 36 z "},"/":{"ha":833,"x_min":119,"x_max":714,"o":"m 626 989 l 714 950 l 207 -194 l 119 -156 l 626 989 z "},":":{"ha":833,"x_min":324,"x_max":510,"o":"m 324 622 q 349 691 324 667 q 415 715 374 715 q 485 691 460 715 q 510 622 510 667 q 485 556 510 582 q 415 529 460 529 q 349 556 374 529 q 324 622 324 582 m 324 76 q 349 145 324 121 q 415 169 374 169 q 485 145 460 169 q 510 76 510 121 q 485 10 510 36 q 415 -17 460 -17 q 349 10 374 -17 q 324 76 324 36 z "},";":{"ha":833,"x_min":313,"x_max":526,"o":"m 318 76 q 345 144 318 118 q 415 169 372 169 q 497 133 468 169 q 526 29 526 96 q 508 -66 526 -25 q 463 -135 490 -107 q 405 -181 436 -164 q 347 -207 374 -199 l 313 -153 q 399 -97 363 -133 q 435 -10 435 -61 q 404 -14 415 -14 q 341 9 364 -14 q 318 76 318 32 m 331 622 q 356 691 331 667 q 422 715 381 715 q 492 691 467 715 q 517 622 517 667 q 492 556 517 582 q 422 529 467 529 q 356 556 381 529 q 331 622 331 582 z "},"<":{"ha":833,"x_min":63,"x_max":771,"o":"m 63 424 l 63 464 l 717 863 l 769 776 l 218 450 l 771 129 l 718 46 l 63 424 z "},"=":{"ha":833,"x_min":94,"x_max":739,"o":"m 94 635 l 739 635 l 739 535 l 94 535 l 94 635 m 94 406 l 739 406 l 739 306 l 94 306 l 94 406 z "},">":{"ha":833,"x_min":63,"x_max":771,"o":"m 115 46 l 63 129 l 615 450 l 64 776 l 117 863 l 771 464 l 771 424 l 115 46 z "},"?":{"ha":833,"x_min":75,"x_max":724,"o":"m 322 246 q 321 261 321 253 q 321 276 321 269 q 342 376 321 335 q 396 451 364 418 q 465 510 428 483 q 533 566 501 536 q 587 632 565 596 q 608 718 608 668 q 596 775 608 744 q 558 832 583 806 q 491 875 532 858 q 393 892 450 892 q 310 881 347 892 q 244 853 274 869 q 190 816 214 836 q 146 778 165 796 l 75 842 q 226 952 133 915 q 438 989 318 989 q 564 965 510 989 q 653 905 618 942 q 706 823 689 868 q 724 735 724 778 q 701 623 724 668 q 643 542 678 578 q 569 478 608 507 q 494 417 529 450 q 437 344 460 385 q 414 246 414 304 l 322 246 m 294 64 q 316 123 294 101 q 374 144 338 144 q 433 123 411 144 q 456 64 456 101 q 433 6 456 28 q 374 -17 411 -17 q 316 6 338 -17 q 294 64 294 28 z "},"@":{"ha":833,"x_min":31,"x_max":826,"o":"m 732 454 q 729 342 732 401 q 725 222 726 282 q 733 90 725 153 l 826 90 l 826 0 l 642 0 l 629 104 l 622 104 q 601 72 614 92 q 567 34 589 53 q 511 1 546 15 q 424 -12 476 -12 q 341 1 379 -12 q 275 41 303 15 q 231 103 247 67 q 215 185 215 139 q 246 303 215 256 q 331 375 276 350 q 459 404 385 400 q 621 393 533 408 q 619 513 625 463 q 594 597 614 564 q 540 645 575 629 q 449 661 504 661 q 333 632 390 661 q 231 547 275 603 q 158 409 186 490 q 131 225 131 328 q 160 35 131 115 q 240 -99 190 -46 q 356 -177 290 -151 q 496 -203 422 -203 q 562 -195 526 -203 q 631 -174 597 -187 q 695 -140 665 -160 q 747 -94 725 -119 l 804 -168 q 663 -263 746 -231 q 485 -296 581 -296 q 324 -269 404 -296 q 178 -181 243 -242 q 72 -23 113 -121 q 31 217 31 75 q 69 455 31 354 q 171 622 108 556 q 313 722 233 689 q 472 754 392 754 q 594 736 544 754 q 675 681 644 718 q 719 588 706 644 q 732 454 732 532 m 451 81 q 519 93 490 81 q 568 125 549 106 q 600 167 588 144 q 621 211 613 190 l 621 308 q 502 321 556 321 q 410 308 449 321 q 350 267 371 294 q 329 194 329 239 q 359 115 329 149 q 451 81 389 81 z "},"A":{"ha":833,"x_min":22,"x_max":811,"o":"m 599 269 l 225 269 l 136 0 l 22 0 l 347 972 l 483 972 l 811 0 l 690 0 l 599 269 m 261 369 l 567 369 l 424 826 l 407 826 l 261 369 z "},"B":{"ha":833,"x_min":139,"x_max":754,"o":"m 725 750 q 714 679 725 715 q 681 612 703 643 q 624 557 658 581 q 542 521 589 533 l 542 515 q 622 492 583 508 q 689 446 660 475 q 736 375 718 417 q 754 276 754 333 q 723 147 754 201 q 641 57 692 92 q 525 6 590 22 q 392 -11 460 -11 q 336 -11 368 -11 q 269 -9 304 -11 q 200 -3 235 -7 q 139 7 165 0 l 139 964 q 258 978 190 972 q 407 983 326 983 q 517 974 461 983 q 619 940 574 965 q 695 868 665 914 q 725 750 725 822 m 403 89 q 489 100 447 89 q 563 133 531 111 q 613 189 594 156 q 632 268 632 222 q 609 360 632 325 q 549 414 586 394 q 467 440 513 433 q 375 447 421 447 l 254 447 l 254 99 q 282 94 264 96 q 321 92 300 93 q 364 90 342 90 q 403 89 386 89 m 326 544 q 383 546 350 544 q 439 550 417 547 q 501 577 472 561 q 553 615 531 593 q 590 665 576 638 q 603 726 603 693 q 585 803 603 772 q 539 851 568 833 q 472 876 510 869 q 396 883 435 883 q 312 881 350 883 q 254 875 274 879 l 254 544 l 326 544 z "},"C":{"ha":833,"x_min":90,"x_max":756,"o":"m 636 867 q 584 881 613 876 q 515 886 556 886 q 403 865 458 886 q 306 797 349 844 q 238 674 264 750 q 213 486 213 597 q 235 311 213 386 q 299 186 258 236 q 398 111 340 136 q 526 86 456 86 q 594 92 563 86 q 651 110 625 99 l 651 249 l 754 249 l 754 61 l 756 58 q 650 5 714 26 q 494 -17 586 -17 q 333 13 407 -17 q 204 104 258 43 q 120 260 150 165 q 90 486 90 356 q 124 717 90 622 q 214 873 157 813 q 347 961 271 933 q 508 989 422 989 q 590 985 556 989 q 651 976 625 982 q 698 960 678 969 q 738 938 718 950 l 739 938 l 739 718 l 636 718 l 636 867 z "},"D":{"ha":833,"x_min":111,"x_max":767,"o":"m 111 972 q 222 981 164 979 q 319 983 279 983 q 531 947 446 983 q 669 847 617 911 q 744 692 721 782 q 767 493 767 601 q 746 303 767 394 q 674 142 725 213 q 535 30 622 72 q 318 -12 449 -12 q 271 -12 300 -12 q 211 -9 242 -11 q 153 -6 181 -7 q 111 -1 125 -4 l 111 972 m 325 881 q 276 879 306 881 q 226 874 246 878 l 226 96 q 247 94 233 94 q 274 92 260 93 q 301 91 288 92 q 322 90 314 90 q 487 124 424 90 q 585 213 550 157 q 632 342 619 269 q 644 493 644 415 q 633 630 644 561 q 588 754 622 699 q 491 845 554 810 q 325 881 428 881 z "},"E":{"ha":833,"x_min":149,"x_max":726,"o":"m 149 972 l 719 972 l 719 869 l 264 869 l 264 551 l 685 551 l 685 449 l 264 449 l 264 103 l 726 103 l 726 0 l 149 0 l 149 972 z "},"F":{"ha":833,"x_min":163,"x_max":719,"o":"m 163 972 l 719 972 l 719 869 l 278 869 l 278 538 l 692 538 l 692 435 l 278 435 l 278 0 l 163 0 l 163 972 z "},"G":{"ha":833,"x_min":74,"x_max":740,"o":"m 607 876 q 492 886 560 886 q 380 866 433 886 q 285 799 326 846 q 220 675 244 751 q 196 486 196 599 q 272 183 196 281 q 490 86 347 86 q 642 121 579 86 l 642 392 l 442 392 l 442 485 l 740 485 l 740 57 q 687 26 718 40 q 620 3 656 13 q 547 -12 585 -7 q 472 -17 508 -17 q 306 13 379 -17 q 181 105 232 43 q 101 262 129 167 q 74 486 74 357 q 108 717 74 621 q 200 873 143 813 q 331 961 257 933 q 482 989 404 989 q 619 980 565 989 q 711 956 674 971 l 710 950 l 710 718 l 607 718 l 607 876 z "},"H":{"ha":833,"x_min":83,"x_max":750,"o":"m 635 446 l 199 446 l 199 0 l 83 0 l 83 972 l 199 972 l 199 549 l 635 549 l 635 972 l 750 972 l 750 0 l 635 0 l 635 446 z "},"I":{"ha":833,"x_min":83,"x_max":750,"o":"m 83 972 l 750 972 l 750 869 l 474 869 l 474 103 l 750 103 l 750 0 l 83 0 l 83 103 l 358 103 l 358 869 l 83 869 l 83 972 z "},"J":{"ha":833,"x_min":117,"x_max":685,"o":"m 135 972 l 685 972 l 685 344 q 601 78 685 169 q 361 -14 518 -14 q 282 -7 321 -14 q 210 12 243 0 q 152 38 176 24 q 117 64 128 51 l 167 156 q 201 135 182 146 q 242 113 219 124 q 294 96 265 103 q 358 89 322 89 q 516 154 463 89 q 569 365 569 219 l 569 869 l 135 869 l 135 972 z "},"K":{"ha":833,"x_min":118,"x_max":826,"o":"m 340 450 l 233 450 l 233 0 l 118 0 l 118 972 l 233 972 l 233 539 l 338 539 l 650 972 l 783 972 l 440 510 l 826 0 l 681 0 l 340 450 z "},"L":{"ha":833,"x_min":125,"x_max":736,"o":"m 125 972 l 240 972 l 240 103 l 633 103 l 633 344 l 736 344 l 736 0 l 125 0 l 125 972 z "},"M":{"ha":833,"x_min":83,"x_max":750,"o":"m 635 646 l 649 778 l 642 778 l 575 658 l 433 421 l 399 421 l 250 660 l 186 778 l 179 778 l 196 647 l 196 0 l 83 0 l 83 972 l 190 972 l 421 603 l 424 603 l 646 972 l 750 972 l 750 0 l 635 0 l 635 646 z "},"N":{"ha":833,"x_min":97,"x_max":736,"o":"m 272 608 l 197 749 l 192 749 l 206 608 l 206 0 l 97 0 l 97 972 l 172 972 l 564 367 l 636 233 l 643 233 l 628 367 l 628 972 l 736 972 l 736 0 l 661 0 l 272 608 z "},"O":{"ha":833,"x_min":67,"x_max":767,"o":"m 67 486 q 152 858 67 728 q 415 989 238 989 q 580 953 513 989 q 689 851 647 917 q 749 692 731 785 q 767 486 767 600 q 681 114 767 244 q 415 -17 596 -17 q 253 19 319 -17 q 144 122 186 56 q 85 280 103 188 q 67 486 67 372 m 189 486 q 199 333 189 406 q 236 206 210 261 q 306 119 263 151 q 415 86 349 86 q 590 183 535 86 q 644 486 644 281 q 634 638 644 565 q 597 766 624 711 q 526 853 571 821 q 415 886 482 886 q 243 788 297 886 q 189 486 189 690 z "},"P":{"ha":833,"x_min":139,"x_max":746,"o":"m 139 963 q 253 979 192 975 q 374 983 314 983 q 503 971 438 983 q 624 925 569 958 q 712 833 678 892 q 746 685 746 775 q 714 535 746 596 q 629 435 682 474 q 508 381 576 397 q 368 364 440 364 q 345 364 361 364 q 312 365 329 364 q 278 367 294 365 q 254 369 261 368 l 254 0 l 139 0 l 139 963 m 376 883 q 307 882 340 883 q 254 875 274 881 l 254 472 q 276 469 261 469 q 308 467 292 468 q 340 467 325 467 q 363 467 356 467 q 456 476 410 467 q 540 508 503 485 q 601 575 578 532 q 624 685 624 618 q 602 780 624 742 q 545 841 581 818 q 465 874 510 864 q 376 883 421 883 z "},"Q":{"ha":833,"x_min":67,"x_max":767,"o":"m 67 486 q 152 858 67 728 q 415 989 238 989 q 580 953 513 989 q 689 851 647 917 q 749 692 731 785 q 767 486 767 600 q 696 135 767 263 q 474 -12 625 8 q 520 -85 486 -61 q 607 -110 554 -110 q 714 -79 667 -110 l 744 -164 q 684 -199 725 -186 q 599 -212 643 -212 q 522 -202 561 -212 q 447 -168 482 -192 q 387 -106 413 -144 q 353 -11 361 -68 q 219 40 274 0 q 131 144 165 79 q 82 295 97 208 q 67 486 67 382 m 189 486 q 199 333 189 406 q 236 206 210 261 q 306 119 263 151 q 415 86 349 86 q 590 183 535 86 q 644 486 644 281 q 634 638 644 565 q 597 766 624 711 q 526 853 571 821 q 415 886 482 886 q 243 788 297 886 q 189 486 189 690 z "},"R":{"ha":833,"x_min":139,"x_max":792,"o":"m 139 963 q 260 978 192 972 q 386 983 329 983 q 508 969 450 983 q 609 924 565 956 q 679 840 653 892 q 706 715 706 789 q 687 615 706 658 q 641 540 668 571 q 585 489 614 508 q 535 461 556 469 l 792 0 l 657 0 l 428 428 l 254 428 l 254 0 l 139 0 l 139 963 m 389 883 q 351 883 371 883 q 314 882 332 883 q 280 879 296 881 q 254 875 264 878 l 254 517 l 363 517 q 521 564 458 517 q 583 711 583 611 q 532 835 583 786 q 389 883 481 883 z "},"S":{"ha":833,"x_min":104,"x_max":743,"o":"m 208 138 q 302 101 250 115 q 407 86 354 86 q 493 95 453 86 q 563 124 533 104 q 610 175 593 144 q 628 247 628 206 q 590 340 628 304 q 494 404 551 376 q 371 458 438 432 q 247 521 304 485 q 152 609 190 557 q 114 742 114 661 q 137 844 114 799 q 201 922 160 890 q 302 972 243 954 q 433 989 361 989 q 585 977 517 989 q 693 946 653 965 l 696 947 l 696 944 l 697 944 l 696 940 l 696 718 l 593 718 l 593 867 q 517 881 558 875 q 428 886 475 886 q 345 875 382 886 q 283 845 308 864 q 243 801 257 826 q 229 749 229 776 q 267 658 229 694 q 363 594 306 622 q 486 538 419 565 q 610 473 553 510 q 705 385 667 436 q 743 257 743 333 q 720 144 743 194 q 655 58 697 94 q 551 3 613 22 q 411 -17 489 -17 q 311 -8 358 -17 q 224 13 264 0 q 153 39 185 25 q 104 63 122 53 l 106 67 l 106 292 l 208 292 l 208 138 z "},"T":{"ha":833,"x_min":56,"x_max":778,"o":"m 56 972 l 778 972 l 778 718 l 675 718 l 675 869 l 474 869 l 474 103 l 626 103 l 626 0 l 206 0 l 206 103 l 358 103 l 358 869 l 158 869 l 158 718 l 56 718 l 56 972 z "},"U":{"ha":833,"x_min":83,"x_max":750,"o":"m 639 972 l 750 972 l 750 324 q 727 172 750 236 q 663 67 704 108 q 561 7 621 26 q 429 -12 501 -12 q 170 65 257 -12 q 83 301 83 143 l 83 972 l 199 972 l 199 356 q 213 231 199 282 q 256 149 228 181 q 328 104 285 118 q 431 90 372 90 q 591 152 543 90 q 639 356 639 214 l 639 972 z "},"V":{"ha":833,"x_min":19,"x_max":814,"o":"m 419 143 l 435 143 l 699 972 l 814 972 l 488 0 l 353 0 l 19 972 l 146 972 l 419 143 z "},"W":{"ha":833,"x_min":21,"x_max":813,"o":"m 240 279 l 247 189 l 257 189 l 276 288 l 379 667 l 471 667 l 567 290 l 592 188 l 599 188 l 607 282 l 710 972 l 813 972 l 663 0 l 547 0 l 435 394 l 421 489 l 417 489 l 401 393 l 289 0 l 172 0 l 21 972 l 131 972 l 240 279 z "},"X":{"ha":833,"x_min":28,"x_max":806,"o":"m 349 494 l 56 972 l 194 972 l 389 643 l 424 578 l 457 643 l 664 972 l 792 972 l 488 504 l 806 0 l 671 0 l 453 349 l 415 418 l 379 349 l 157 0 l 28 0 l 349 494 z "},"Y":{"ha":833,"x_min":13,"x_max":821,"o":"m 360 372 l 13 972 l 147 972 l 425 492 l 426 492 l 697 972 l 821 972 l 475 374 l 475 0 l 360 0 l 360 372 z "},"Z":{"ha":833,"x_min":76,"x_max":757,"o":"m 76 104 l 625 869 l 76 869 l 76 972 l 757 972 l 757 868 l 206 103 l 757 103 l 757 0 l 76 0 l 76 104 z "},"[":{"ha":833,"x_min":207,"x_max":736,"o":"m 207 972 l 736 972 l 736 875 l 315 875 l 315 -222 l 736 -222 l 736 -319 l 207 -319 l 207 972 z "},"\\":{"ha":833,"x_min":114,"x_max":719,"o":"m 719 -154 l 628 -194 l 114 950 l 207 989 l 719 -154 z "},"]":{"ha":833,"x_min":96,"x_max":626,"o":"m 626 -319 l 96 -319 l 96 -222 l 518 -222 l 518 875 l 96 875 l 96 972 l 626 972 l 626 -319 z "},"^":{"ha":833,"x_min":49,"x_max":788,"o":"m 408 988 l 449 988 l 788 418 l 674 418 l 424 846 l 164 418 l 49 418 l 408 988 z "},"_":{"ha":833,"x_min":78,"x_max":756,"o":"m 78 -187 l 756 -187 l 756 -285 l 78 -285 l 78 -187 z "},"`":{"ha":833,"x_min":272,"x_max":514,"o":"m 514 793 l 438 793 l 272 1000 l 424 1000 l 514 793 z "},"a":{"ha":833,"x_min":104,"x_max":757,"o":"m 150 640 q 285 690 210 675 q 432 706 360 706 q 548 683 503 706 q 619 626 593 661 q 653 545 644 590 q 663 454 663 500 q 660 342 663 401 q 656 222 657 282 q 664 90 656 153 l 757 90 l 757 0 l 572 0 l 560 104 l 553 104 q 528 72 544 92 q 484 34 511 53 q 418 1 457 15 q 326 -12 379 -12 q 164 40 224 -12 q 104 185 104 93 q 135 303 104 256 q 225 375 167 350 q 366 404 283 400 q 551 393 449 408 q 553 499 558 457 q 531 567 549 542 q 483 602 514 592 q 406 613 451 613 q 286 595 343 613 q 185 560 229 578 l 150 640 m 354 81 q 426 93 393 81 q 485 125 460 106 q 526 167 510 144 q 551 211 543 190 l 551 308 q 418 321 479 321 q 313 308 357 321 q 243 267 268 294 q 218 194 218 239 q 249 115 218 149 q 354 81 281 81 z "},"b":{"ha":833,"x_min":3,"x_max":754,"o":"m 3 972 l 225 972 l 225 615 l 232 615 q 325 686 268 661 q 449 711 382 711 q 754 358 754 711 q 656 84 754 179 q 375 -11 557 -11 q 219 6 289 -11 q 118 44 150 22 l 118 879 l 3 879 l 3 972 m 435 618 q 300 571 351 618 q 225 438 249 524 l 225 118 q 301 92 257 101 q 394 82 346 82 q 495 98 450 82 q 572 148 540 114 q 622 235 604 182 q 639 360 639 288 q 628 460 639 413 q 592 542 617 507 q 529 598 568 578 q 435 618 490 618 z "},"c":{"ha":833,"x_min":83,"x_max":751,"o":"m 610 588 q 541 606 578 599 q 468 614 504 614 q 265 550 332 614 q 199 347 199 486 q 218 238 199 286 q 274 157 238 190 q 360 106 310 124 q 472 88 411 88 q 599 110 538 88 q 703 168 661 132 l 751 88 q 703 53 732 71 q 635 19 674 35 q 551 -7 597 3 q 450 -17 504 -17 q 291 9 360 -17 q 176 83 222 35 q 107 198 131 131 q 83 347 83 265 q 108 503 83 435 q 178 617 132 571 q 289 687 224 663 q 435 711 354 711 q 602 693 538 711 q 711 653 667 675 l 710 649 l 710 456 l 610 456 l 610 588 z "},"d":{"ha":833,"x_min":78,"x_max":818,"o":"m 485 972 l 710 972 l 710 238 q 711 206 710 225 q 715 167 713 188 q 719 126 717 146 q 725 90 722 106 l 818 90 l 818 0 l 633 0 l 619 107 l 614 107 q 523 19 583 54 q 383 -17 463 -17 q 152 72 226 -17 q 78 346 78 160 q 103 501 78 433 q 174 613 128 568 q 286 682 221 658 q 432 706 351 706 q 484 704 461 706 q 526 700 507 703 q 563 692 546 697 q 601 682 581 688 l 601 879 l 485 879 l 485 972 m 401 76 q 535 120 486 76 q 601 251 583 164 l 601 574 q 533 604 571 594 q 432 614 494 614 q 257 549 321 614 q 193 346 193 485 q 203 240 193 289 q 238 154 214 190 q 303 97 263 118 q 401 76 343 76 z "},"e":{"ha":833,"x_min":88,"x_max":746,"o":"m 735 88 q 676 46 710 65 q 601 13 642 26 q 517 -9 561 -1 q 429 -17 474 -17 q 282 9 346 -17 q 175 83 218 35 q 110 197 132 131 q 88 347 88 264 q 112 503 88 435 q 182 617 136 571 q 293 687 228 663 q 439 711 358 711 q 554 696 497 711 q 655 638 611 681 q 722 522 699 596 q 739 329 746 447 l 201 329 q 269 142 201 204 q 449 81 336 81 q 523 90 486 81 q 593 111 560 99 q 652 139 626 124 q 692 167 678 154 l 735 88 m 442 619 q 355 610 396 619 q 283 577 314 600 q 231 517 251 554 q 206 426 211 481 l 638 426 q 578 569 631 518 q 442 619 526 619 z "},"f":{"ha":833,"x_min":122,"x_max":710,"o":"m 122 0 l 122 93 l 288 93 l 288 601 l 122 601 l 122 694 l 288 694 l 288 733 q 356 922 288 864 q 550 981 424 981 q 632 975 596 981 q 710 953 668 969 l 685 863 q 615 883 649 878 q 554 888 582 888 q 429 842 463 888 q 396 694 396 797 l 683 694 l 683 601 l 396 601 l 396 93 l 683 93 l 683 0 l 122 0 z "},"g":{"ha":833,"x_min":96,"x_max":728,"o":"m 728 -35 q 703 -149 728 -100 q 634 -231 678 -199 q 532 -278 590 -262 q 406 -294 474 -294 q 263 -278 324 -294 q 157 -235 201 -261 l 210 -136 q 242 -158 222 -147 q 289 -177 263 -168 q 345 -192 315 -186 q 404 -197 375 -197 q 506 -186 465 -197 q 572 -151 547 -175 q 608 -90 597 -128 q 619 1 619 -53 l 619 79 l 614 79 q 532 8 582 33 q 403 -17 482 -17 q 170 72 244 -17 q 96 346 96 160 q 190 615 96 524 q 471 706 285 706 q 617 694 557 706 q 728 664 678 682 l 728 -35 m 418 76 q 551 120 503 76 q 619 254 600 164 l 619 583 q 449 613 558 613 q 274 547 338 613 q 210 347 210 482 q 221 238 210 288 q 256 153 232 189 q 320 97 281 117 q 418 76 360 76 z "},"h":{"ha":833,"x_min":6,"x_max":729,"o":"m 6 972 l 222 972 l 222 608 l 229 608 q 329 684 272 657 q 471 711 386 711 q 587 697 538 711 q 667 649 636 683 q 714 553 699 614 q 729 400 729 493 l 729 0 l 621 0 l 621 379 q 614 483 621 439 q 587 558 607 528 q 532 603 567 588 q 443 618 497 618 q 369 605 406 618 q 303 569 333 592 q 252 513 274 546 q 222 442 231 481 l 222 0 l 115 0 l 115 879 l 6 879 l 6 972 z "},"i":{"ha":833,"x_min":146,"x_max":735,"o":"m 146 0 l 146 93 l 388 93 l 388 601 l 146 601 l 146 694 l 499 694 l 499 93 l 735 93 l 735 0 l 146 0 m 350 892 q 375 956 350 929 q 439 983 400 983 q 506 956 479 983 q 533 892 533 929 q 506 831 533 856 q 439 806 479 806 q 375 831 400 806 q 350 892 350 856 z "},"j":{"ha":833,"x_min":82,"x_max":592,"o":"m 467 601 l 131 601 l 131 694 l 578 694 l 578 -17 q 506 -226 578 -157 q 308 -294 435 -294 q 235 -285 271 -294 q 169 -262 200 -275 q 116 -235 139 -249 q 82 -212 93 -221 l 128 -122 q 213 -171 165 -150 q 313 -192 261 -192 q 431 -140 396 -192 q 467 4 467 -87 l 467 601 m 408 892 q 433 956 408 929 q 497 983 458 983 q 565 956 538 983 q 592 892 592 929 q 565 831 592 856 q 497 806 538 806 q 433 831 458 806 q 408 892 408 856 z "},"k":{"ha":833,"x_min":33,"x_max":775,"o":"m 33 972 l 258 972 l 258 397 l 335 397 l 608 694 l 739 694 l 432 365 l 685 93 l 775 93 l 775 0 l 632 0 l 335 314 l 258 314 l 258 0 l 151 0 l 151 879 l 33 879 l 33 972 z "},"l":{"ha":833,"x_min":97,"x_max":643,"o":"m 97 972 l 328 972 l 328 233 q 356 114 328 149 q 440 79 385 79 q 519 94 479 79 q 593 138 560 110 l 643 64 q 594 29 621 44 q 540 3 568 14 q 485 -12 513 -7 q 433 -18 457 -18 q 342 -5 382 -18 q 274 38 301 8 q 233 115 247 67 q 219 233 219 163 l 219 879 l 97 879 l 97 972 z "},"m":{"ha":833,"x_min":57,"x_max":776,"o":"m 364 0 l 364 463 q 362 519 364 492 q 352 567 360 546 q 330 601 344 589 q 292 614 315 614 q 212 575 244 614 q 163 478 179 536 l 163 0 l 57 0 l 57 694 l 129 694 l 150 610 l 156 610 q 183 649 169 631 q 213 682 196 668 q 254 703 231 696 q 314 711 278 711 q 357 705 335 711 q 398 685 379 699 q 431 650 417 672 q 449 596 444 628 q 520 681 481 650 q 629 711 560 711 q 703 696 675 711 q 748 652 732 681 q 770 584 764 624 q 776 496 776 544 l 776 0 l 671 0 l 671 472 q 668 527 671 501 q 658 572 665 553 q 637 603 650 592 q 601 614 624 614 q 519 575 553 614 q 469 464 486 536 l 469 0 l 364 0 z "},"n":{"ha":833,"x_min":25,"x_max":729,"o":"m 129 451 q 128 484 129 464 q 126 526 128 504 q 123 568 125 547 q 118 604 121 589 l 25 604 l 25 694 l 211 694 l 224 582 l 231 582 q 267 628 244 606 q 321 670 290 651 q 389 700 351 689 q 468 711 426 711 q 581 697 532 711 q 663 648 631 683 q 713 552 696 613 q 729 399 729 492 l 729 0 l 621 0 l 621 378 q 583 551 621 493 q 447 610 546 610 q 377 595 411 610 q 315 557 343 581 q 267 502 288 533 q 236 436 246 471 l 236 0 l 129 0 l 129 451 z "},"o":{"ha":833,"x_min":79,"x_max":754,"o":"m 79 347 q 167 613 79 515 q 417 711 254 711 q 567 683 504 711 q 672 606 631 654 q 734 490 714 557 q 754 347 754 424 q 732 197 754 264 q 667 82 710 129 q 560 9 624 35 q 417 -17 497 -17 q 267 12 331 -17 q 161 89 203 40 q 99 204 119 138 q 79 347 79 271 m 194 347 q 206 250 194 299 q 244 163 218 201 q 313 100 271 124 q 417 76 356 76 q 584 145 528 76 q 640 347 640 214 q 628 445 640 397 q 590 532 617 493 q 520 594 563 571 q 417 618 478 618 q 250 550 306 618 q 194 347 194 482 z "},"p":{"ha":833,"x_min":29,"x_max":769,"o":"m 133 451 q 133 484 133 464 q 131 526 132 504 q 127 568 129 547 q 122 604 125 589 l 29 604 l 29 694 l 214 694 l 228 597 l 235 597 q 330 678 272 646 q 471 711 388 711 q 694 629 619 711 q 769 361 769 547 q 744 203 769 274 q 671 85 718 133 q 557 10 624 36 q 410 -17 490 -17 q 358 -15 381 -17 q 316 -9 335 -12 q 279 0 297 -6 q 240 14 261 6 l 240 -278 l 133 -278 l 133 451 m 453 610 q 374 594 411 610 q 309 554 338 579 q 263 499 281 529 q 240 438 244 468 l 240 121 q 309 88 271 100 q 410 76 347 76 q 588 149 521 76 q 654 363 654 222 q 608 545 654 481 q 453 610 561 610 z "},"q":{"ha":833,"x_min":83,"x_max":715,"o":"m 715 -278 l 607 -278 l 607 78 l 601 78 q 519 8 569 32 q 390 -17 469 -17 q 158 72 232 -17 q 83 346 83 160 q 178 615 83 524 q 458 706 272 706 q 611 692 540 706 q 715 663 682 678 l 715 -278 m 407 76 q 607 250 572 76 l 607 585 q 534 606 576 600 q 438 613 492 613 q 263 549 326 613 q 199 347 199 485 q 209 238 199 288 q 244 153 219 189 q 309 97 269 117 q 407 76 349 76 z "},"r":{"ha":833,"x_min":92,"x_max":772,"o":"m 92 0 l 92 93 l 279 93 l 279 601 l 92 601 l 92 694 l 351 694 l 374 604 l 381 604 q 486 678 428 647 q 625 708 544 708 q 701 690 672 708 q 745 638 729 672 q 767 553 761 603 q 772 442 772 504 l 675 440 q 658 571 675 529 q 594 613 640 613 q 517 600 551 613 q 456 569 482 588 q 413 533 431 551 q 386 503 394 515 l 386 93 l 653 93 l 653 0 l 92 0 z "},"s":{"ha":833,"x_min":117,"x_max":717,"o":"m 608 188 q 574 256 608 232 q 488 295 539 281 q 376 322 436 310 q 264 356 315 335 q 178 412 213 376 q 143 511 143 447 q 166 601 143 564 q 226 663 189 639 q 314 699 264 688 q 418 711 364 711 q 585 687 515 711 q 697 636 656 663 l 653 549 q 553 597 607 574 q 419 619 500 619 q 359 613 389 619 q 305 594 329 607 q 266 562 281 582 q 251 513 251 542 q 286 457 251 476 q 372 424 321 438 q 484 399 424 411 q 596 365 544 388 q 682 306 647 343 q 717 204 717 268 q 641 46 717 108 q 414 -17 565 -17 q 324 -8 368 -17 q 240 14 279 0 q 169 45 201 28 q 117 81 138 63 l 172 171 q 217 137 189 154 q 278 106 244 119 q 349 83 311 92 q 426 75 388 75 q 497 81 464 75 q 554 101 529 88 q 594 135 579 114 q 608 188 608 157 z "},"t":{"ha":833,"x_min":43,"x_max":736,"o":"m 43 694 l 208 694 l 208 832 l 317 863 l 317 694 l 688 694 l 688 601 l 317 601 l 317 274 q 366 124 317 172 q 507 75 415 75 q 616 99 569 75 q 700 150 663 122 l 736 68 q 620 6 688 29 q 482 -18 553 -18 q 377 -2 426 -18 q 290 47 328 14 q 231 133 253 81 q 208 257 208 185 l 208 601 l 43 601 l 43 694 z "},"u":{"ha":833,"x_min":35,"x_max":803,"o":"m 504 694 l 701 694 l 701 221 q 710 90 701 153 l 803 90 l 803 0 l 618 0 l 614 118 l 608 118 q 513 21 572 58 q 368 -17 453 -17 q 259 -2 304 -17 q 185 49 214 13 q 142 145 156 85 q 128 296 128 206 l 128 601 l 35 601 l 35 694 l 236 694 l 236 318 q 241 216 236 261 q 261 140 246 171 q 306 92 276 108 q 386 76 336 76 q 512 124 458 76 q 593 242 565 171 l 593 601 l 504 601 l 504 694 z "},"v":{"ha":833,"x_min":60,"x_max":774,"o":"m 419 135 l 435 135 l 653 694 l 774 694 l 481 0 l 358 0 l 60 694 l 188 694 l 419 135 z "},"w":{"ha":833,"x_min":14,"x_max":819,"o":"m 471 542 l 610 156 l 619 156 l 718 694 l 819 694 l 683 0 l 560 0 l 426 383 l 422 383 l 283 0 l 160 0 l 14 694 l 121 694 l 233 153 l 242 153 l 376 542 l 471 542 z "},"x":{"ha":833,"x_min":64,"x_max":769,"o":"m 351 356 l 83 694 l 222 694 l 422 433 l 628 694 l 753 694 l 485 361 l 769 0 l 636 0 l 415 285 l 190 0 l 64 0 l 351 356 z "},"y":{"ha":833,"x_min":64,"x_max":769,"o":"m 432 107 l 485 107 l 657 694 l 769 694 l 576 71 q 545 -40 561 22 q 500 -156 529 -101 q 421 -247 471 -210 q 290 -285 371 -285 q 252 -281 272 -285 q 213 -270 232 -276 q 176 -256 193 -264 q 151 -239 160 -247 l 190 -139 q 213 -153 199 -146 q 245 -165 228 -160 q 279 -173 263 -169 q 307 -176 296 -176 q 449 0 411 -176 l 356 0 l 64 694 l 189 694 l 432 107 z "},"z":{"ha":833,"x_min":117,"x_max":717,"o":"m 117 93 l 588 601 l 117 601 l 117 694 l 717 694 l 717 601 l 242 93 l 717 93 l 717 0 l 117 0 l 117 93 z "},"{":{"ha":833,"x_min":111,"x_max":722,"o":"m 306 44 q 285 148 306 104 q 235 221 265 192 q 172 264 206 250 q 111 278 138 278 l 111 375 q 172 387 138 375 q 235 426 206 399 q 285 496 265 453 q 306 603 306 539 l 306 744 q 322 836 306 794 q 366 908 338 878 q 434 956 394 939 q 521 974 474 974 l 722 974 l 722 876 l 569 876 q 448 835 482 876 q 414 711 414 793 l 414 576 q 393 475 414 519 q 343 401 372 431 q 283 353 314 371 q 233 333 253 336 l 233 325 q 282 303 251 322 q 342 252 313 285 q 392 175 371 219 q 414 76 414 131 l 414 -57 q 450 -182 414 -142 q 571 -222 486 -222 l 722 -222 l 722 -319 l 521 -319 q 365 -262 424 -319 q 306 -92 306 -204 l 306 44 z "},"|":{"ha":833,"x_min":369,"x_max":464,"o":"m 369 972 l 464 972 l 464 -181 l 369 -181 l 369 972 z "},"}":{"ha":833,"x_min":111,"x_max":722,"o":"m 528 -92 q 469 -262 528 -204 q 313 -319 410 -319 l 111 -319 l 111 -222 l 263 -222 q 383 -182 347 -222 q 419 -57 419 -142 l 419 76 q 440 175 419 131 q 490 252 461 219 q 550 303 519 285 q 600 325 581 322 l 600 333 q 550 353 581 336 q 490 401 519 371 q 440 475 461 431 q 419 576 419 519 l 419 711 q 385 835 419 793 q 264 876 351 876 l 111 876 l 111 974 l 313 974 q 399 956 360 974 q 467 908 439 939 q 512 836 496 878 q 528 744 528 794 l 528 603 q 548 496 528 539 q 598 426 568 453 q 662 387 628 399 q 722 375 696 375 l 722 278 q 662 264 696 278 q 598 221 628 250 q 548 148 568 192 q 528 44 528 104 l 528 -92 z "},"~":{"ha":833,"x_min":108,"x_max":724,"o":"m 108 501 q 217 565 168 547 q 306 583 265 583 q 378 572 344 583 q 442 545 411 560 q 501 519 472 531 q 563 507 531 507 q 617 518 589 507 q 676 557 644 529 l 724 472 q 628 422 671 436 q 551 407 586 407 q 483 419 514 407 q 423 445 451 431 q 366 472 394 460 q 304 483 338 483 q 236 469 272 483 q 156 418 200 454 l 108 501 z "}," ":{"ha":833,"x_min":0,"x_max":0,"o":""},"¡":{"ha":833,"x_min":336,"x_max":497,"o":"m 474 -278 l 358 -278 l 358 204 l 382 449 l 450 449 l 474 204 l 474 -278 m 336 629 q 358 688 336 667 q 415 710 379 710 q 475 688 453 710 q 497 629 497 667 q 475 571 497 593 q 415 549 453 549 q 358 571 379 549 q 336 629 336 593 z "},"¢":{"ha":833,"x_min":115,"x_max":718,"o":"m 718 40 q 676 18 701 28 q 624 1 651 8 q 566 -9 596 -6 q 510 -12 536 -12 l 510 -139 l 411 -139 l 411 -14 q 194 97 272 0 q 115 347 115 193 q 139 490 115 426 q 203 599 163 553 q 297 672 243 644 q 411 707 350 699 l 411 833 l 510 833 l 510 710 q 623 694 571 710 q 706 663 675 678 l 674 568 q 640 583 660 575 q 596 597 619 590 q 547 608 572 604 q 500 613 522 613 l 500 81 q 549 84 522 81 q 601 94 575 88 q 649 108 628 100 q 682 125 671 117 l 718 40 m 231 347 q 242 257 231 301 q 278 176 254 213 q 339 116 303 140 q 425 86 375 92 l 425 610 q 285 532 339 599 q 231 347 231 465 z "},"£":{"ha":833,"x_min":107,"x_max":726,"o":"m 107 532 l 199 532 q 171 612 182 569 q 160 713 160 654 q 238 919 160 849 q 450 989 315 989 q 597 976 535 989 q 700 944 660 964 l 664 846 q 578 874 632 861 q 449 886 525 886 q 320 841 365 886 q 275 719 275 796 q 289 617 275 661 q 322 532 303 574 l 546 532 l 546 435 l 364 435 q 382 368 375 403 q 389 292 389 333 q 386 249 389 271 q 375 202 383 226 q 350 153 367 178 q 306 103 333 128 l 726 103 l 726 0 l 107 0 l 107 100 q 183 116 151 100 q 234 158 214 132 q 264 216 254 183 q 274 282 274 249 q 265 365 274 328 q 242 435 256 401 l 107 435 l 107 532 z "},"¤":{"ha":833,"x_min":67,"x_max":765,"o":"m 135 828 l 283 681 q 415 718 338 718 q 547 679 489 718 l 697 828 l 765 760 l 618 610 q 654 479 654 553 q 618 349 654 406 l 765 199 l 697 132 l 550 278 q 415 242 493 242 q 281 279 336 242 l 135 132 l 67 199 l 213 347 q 178 479 178 404 q 188 549 178 515 q 214 611 197 582 l 67 760 l 135 828 m 274 479 q 313 375 274 417 q 415 333 353 333 q 518 375 478 333 q 558 479 558 417 q 518 584 558 542 q 415 626 478 626 q 313 584 353 626 q 274 479 274 542 z "},"¥":{"ha":833,"x_min":39,"x_max":793,"o":"m 190 456 l 321 456 l 39 972 l 174 972 l 422 500 l 429 500 l 669 972 l 793 972 l 511 456 l 644 456 l 644 372 l 475 372 l 475 274 l 644 274 l 644 190 l 475 190 l 475 0 l 360 0 l 360 190 l 190 190 l 190 274 l 360 274 l 360 372 l 190 372 l 190 456 z "},"¦":{"ha":833,"x_min":369,"x_max":464,"o":"m 369 286 l 464 286 l 464 -181 l 369 -181 l 369 286 m 464 506 l 369 506 l 369 972 l 464 972 l 464 506 z "},"§":{"ha":833,"x_min":150,"x_max":682,"o":"m 150 490 q 156 536 150 511 q 177 586 163 561 q 215 635 192 611 q 275 676 239 658 q 224 726 247 696 q 201 814 201 757 q 259 940 201 892 q 419 989 317 989 q 547 976 494 989 q 636 946 599 964 l 610 853 q 531 880 576 868 q 435 892 485 892 q 342 869 372 892 q 313 810 313 847 q 340 753 313 774 q 408 718 367 733 q 497 688 450 703 q 586 648 544 672 q 655 584 628 624 q 682 482 682 544 q 657 388 682 439 q 557 296 632 338 q 613 244 594 274 q 631 158 631 215 q 614 83 631 115 q 567 28 597 50 q 497 -6 538 6 q 411 -17 457 -17 q 283 -3 333 -17 q 194 29 233 10 l 222 119 q 299 92 254 104 q 397 81 344 81 q 488 99 456 81 q 519 163 519 118 q 492 219 519 199 q 424 256 465 240 q 335 286 382 271 q 246 326 288 301 q 177 389 204 350 q 150 490 150 428 m 571 479 q 553 536 571 514 q 505 574 535 558 q 438 602 475 590 q 363 628 400 614 q 292 576 322 610 q 261 493 261 543 q 279 436 261 458 q 326 398 297 414 q 391 371 354 382 q 465 346 428 360 q 503 368 485 354 q 538 399 522 382 q 562 437 553 417 q 571 479 571 457 z "},"¨":{"ha":833,"x_min":182,"x_max":651,"o":"m 182 896 q 203 955 182 932 q 261 978 225 978 q 318 955 296 978 q 340 896 340 932 q 318 840 340 863 q 261 817 296 817 q 203 840 225 817 q 182 896 182 863 m 492 896 q 513 955 492 932 q 569 978 535 978 q 628 955 606 978 q 651 896 651 932 q 628 840 651 863 q 569 817 606 817 q 513 840 535 817 q 492 896 492 863 z "},"©":{"ha":833,"x_min":60,"x_max":772,"o":"m 60 410 q 88 559 60 493 q 165 671 117 625 q 278 741 214 717 q 417 765 343 765 q 554 741 489 765 q 667 671 619 717 q 744 559 715 625 q 772 410 772 493 q 744 260 772 326 q 667 149 715 194 q 554 78 619 103 q 417 54 489 54 q 269 78 335 54 q 157 149 204 103 q 85 260 110 194 q 60 410 60 326 m 133 410 q 155 286 133 340 q 215 195 176 232 q 305 140 253 158 q 417 121 357 121 q 528 140 476 121 q 617 195 579 158 q 677 286 656 232 q 699 410 699 340 q 677 533 699 479 q 617 623 656 586 q 528 679 579 660 q 417 699 476 699 q 305 679 357 699 q 215 623 253 660 q 155 533 176 586 q 133 410 133 479 m 536 246 q 417 218 489 218 q 292 269 335 218 q 249 410 249 321 q 294 551 249 501 q 417 601 340 601 q 476 594 453 601 q 529 574 499 588 l 503 503 q 426 524 457 524 q 339 410 339 524 q 365 324 339 351 q 435 296 390 296 q 479 301 460 296 q 515 315 499 306 l 536 246 z "},"ª":{"ha":833,"x_min":215,"x_max":618,"o":"m 243 940 q 335 971 278 958 q 461 983 392 983 q 579 947 547 983 q 611 843 611 911 q 609 742 611 790 q 607 649 607 693 q 609 585 607 615 q 618 528 611 554 l 542 528 l 524 592 l 518 592 q 467 545 500 568 q 374 522 433 522 q 258 558 301 522 q 215 654 215 593 q 236 726 215 697 q 292 774 257 756 q 376 800 328 792 q 479 808 424 808 q 498 808 489 808 q 517 807 507 807 q 518 823 518 815 q 518 838 518 831 q 501 890 518 875 q 438 906 485 906 q 336 895 382 906 q 264 871 290 885 l 243 940 m 389 600 q 440 607 418 600 q 476 626 461 614 q 501 651 492 638 q 517 676 511 664 l 517 735 q 488 736 501 736 q 458 736 474 736 q 403 733 429 736 q 356 722 376 731 q 324 699 336 714 q 313 661 313 685 q 333 617 313 633 q 389 600 353 600 z "},"«":{"ha":833,"x_min":69,"x_max":764,"o":"m 69 367 l 340 719 l 421 653 l 204 372 l 431 96 l 351 28 l 69 367 m 403 367 l 674 719 l 754 653 l 538 372 l 764 96 l 685 28 l 403 367 z "},"¬":{"ha":833,"x_min":122,"x_max":711,"o":"m 122 544 l 711 544 l 711 278 l 611 278 l 611 444 l 122 444 l 122 544 z "},"­":{"ha":833,"x_min":247,"x_max":586,"o":"m 247 451 l 586 451 l 586 349 l 247 349 l 247 451 z "},"®":{"ha":833,"x_min":49,"x_max":785,"o":"m 49 626 q 78 784 49 715 q 158 899 107 853 q 275 970 208 946 q 417 994 342 994 q 560 970 493 994 q 678 899 628 946 q 756 784 728 853 q 785 626 785 715 q 756 469 785 538 q 676 353 726 400 q 558 283 625 307 q 417 258 492 258 q 272 283 339 258 q 156 353 206 307 q 77 469 106 400 q 49 626 49 538 m 136 626 q 158 501 136 554 q 219 412 181 447 q 308 358 257 376 q 417 340 360 340 q 528 358 476 340 q 617 410 579 375 q 676 499 654 446 q 697 626 697 553 q 675 752 697 699 q 615 841 653 806 q 526 894 576 876 q 417 913 475 913 q 304 894 356 913 q 215 841 253 876 q 157 752 178 806 q 136 626 136 699 m 274 807 q 336 817 296 814 q 413 821 376 821 q 513 797 471 821 q 554 713 554 772 q 547 674 554 690 q 528 647 539 658 q 503 628 517 635 q 478 618 490 621 l 597 447 l 513 447 l 404 592 l 346 592 l 346 447 l 274 447 l 274 807 m 397 758 q 368 758 382 758 q 346 753 354 757 l 346 650 l 393 650 q 478 710 478 650 q 397 758 478 758 z "},"¯":{"ha":833,"x_min":211,"x_max":622,"o":"m 211 893 l 622 893 l 622 807 l 211 807 l 211 893 z "},"°":{"ha":833,"x_min":221,"x_max":613,"o":"m 221 793 q 236 872 221 836 q 278 934 251 908 q 340 974 304 960 q 417 989 376 989 q 493 976 457 989 q 556 937 529 963 q 597 875 582 911 q 613 793 613 839 q 597 711 613 747 q 556 649 582 675 q 493 610 529 624 q 417 597 457 597 q 340 610 376 597 q 278 649 304 624 q 236 711 251 675 q 221 793 221 747 m 308 793 q 341 710 308 740 q 417 681 374 681 q 492 710 460 681 q 525 793 525 740 q 492 876 525 846 q 417 906 460 906 q 341 876 374 906 q 308 793 308 846 z "},"±":{"ha":833,"x_min":122,"x_max":711,"o":"m 122 685 l 367 685 l 367 936 l 467 936 l 467 685 l 711 685 l 711 585 l 467 585 l 467 418 l 367 418 l 367 585 l 122 585 l 122 685 m 122 347 l 711 347 l 711 247 l 122 247 l 122 347 z "},"²":{"ha":833,"x_min":158,"x_max":646,"o":"m 618 938 q 590 840 618 886 q 515 752 561 793 q 414 676 469 711 q 304 615 358 642 l 646 615 l 646 528 l 158 528 l 158 601 q 215 642 181 619 q 290 689 250 664 q 372 742 331 714 q 446 801 413 771 q 500 862 479 831 q 521 925 521 893 q 509 974 521 954 q 479 1008 497 994 q 440 1026 461 1021 q 397 1032 418 1032 q 338 1024 365 1032 q 288 1006 311 1017 q 247 981 265 994 q 218 958 229 968 l 174 1026 q 208 1055 186 1039 q 261 1085 231 1071 q 331 1110 292 1100 q 414 1121 369 1121 q 494 1109 457 1121 q 559 1074 532 1097 q 602 1017 586 1051 q 618 938 618 983 z "},"³":{"ha":833,"x_min":99,"x_max":606,"o":"m 364 601 q 469 628 431 601 q 508 706 508 654 q 476 778 508 750 q 372 806 443 806 l 282 806 l 282 858 l 463 1028 l 146 1028 l 146 1111 l 585 1111 l 585 1038 l 406 878 l 406 875 q 552 827 499 874 q 606 706 606 781 q 540 569 606 621 q 351 518 475 518 q 281 526 318 518 q 208 547 243 533 q 144 581 174 561 q 99 624 115 600 l 149 696 q 178 669 158 685 q 224 638 197 653 q 286 612 251 622 q 364 601 321 601 z "},"´":{"ha":833,"x_min":272,"x_max":514,"o":"m 363 1000 l 514 1000 l 349 793 l 272 793 l 363 1000 z "},"µ":{"ha":833,"x_min":117,"x_max":793,"o":"m 600 103 l 594 103 q 509 19 567 54 q 368 -17 451 -17 q 289 -6 325 -17 q 228 36 253 6 l 221 36 l 228 -93 l 228 -278 l 117 -278 l 117 694 l 228 694 l 228 301 q 262 136 228 192 q 381 81 296 81 q 510 126 457 81 q 583 244 563 171 l 583 694 l 694 694 l 694 226 q 698 142 694 172 q 704 90 701 113 l 793 90 l 793 0 l 615 0 l 600 103 z "},"¶":{"ha":833,"x_min":158,"x_max":675,"o":"m 581 972 l 675 972 l 675 -181 l 581 -181 l 581 972 m 364 431 q 282 453 319 431 q 217 515 244 476 q 174 602 190 553 q 158 703 158 651 q 174 803 158 754 q 221 889 190 851 q 296 949 251 926 q 396 972 340 972 l 458 972 l 458 -181 l 364 -181 l 364 431 z "},"·":{"ha":833,"x_min":324,"x_max":510,"o":"m 324 424 q 349 492 324 468 q 415 517 374 517 q 485 492 460 517 q 510 424 510 468 q 485 357 510 383 q 415 331 460 331 q 349 357 374 331 q 324 424 324 383 z "},"¸":{"ha":833,"x_min":300,"x_max":532,"o":"m 456 0 l 422 -60 q 506 -96 481 -71 q 532 -164 532 -121 q 488 -253 532 -218 q 363 -289 443 -289 q 332 -287 347 -289 q 300 -283 317 -286 l 313 -229 q 328 -231 321 -231 q 342 -231 335 -231 q 390 -225 372 -231 q 416 -212 407 -219 q 427 -194 425 -204 q 429 -176 429 -185 q 310 -125 429 -137 l 376 0 l 456 0 z "},"¹":{"ha":833,"x_min":178,"x_max":674,"o":"m 186 613 l 389 613 l 389 994 l 215 897 l 178 974 l 408 1111 l 486 1111 l 486 613 l 674 613 l 674 528 l 186 528 l 186 613 z "},"º":{"ha":833,"x_min":201,"x_max":632,"o":"m 201 753 q 218 860 201 815 q 263 933 235 904 q 331 976 292 963 q 417 989 371 989 q 502 976 463 989 q 570 936 542 964 q 615 863 599 908 q 632 753 632 818 q 615 642 632 688 q 570 569 599 597 q 502 529 542 542 q 417 517 463 517 q 331 529 371 517 q 263 569 292 542 q 218 642 235 597 q 201 753 201 688 m 304 753 q 334 633 304 669 q 417 597 364 597 q 464 605 443 597 q 499 630 485 613 q 522 677 514 647 q 529 753 529 707 q 522 828 529 799 q 499 876 514 858 q 464 901 485 893 q 417 908 443 908 q 334 876 364 908 q 304 753 304 843 z "},"»":{"ha":833,"x_min":69,"x_max":764,"o":"m 482 28 l 403 96 l 629 372 l 413 653 l 493 719 l 764 367 l 482 28 m 149 28 l 69 96 l 296 372 l 79 653 l 160 719 l 431 367 l 149 28 z "},"¼":{"ha":833,"x_min":49,"x_max":763,"o":"m 600 990 l 665 963 l 238 -17 l 171 14 l 600 990 m 763 135 l 692 135 l 692 0 l 611 0 l 611 135 l 424 135 l 424 192 l 624 592 l 692 592 l 692 208 l 763 208 l 763 135 m 611 426 l 511 208 l 611 208 l 611 426 m 188 857 l 93 775 l 49 826 l 213 972 l 268 972 l 268 389 l 188 389 l 188 857 z "},"½":{"ha":833,"x_min":49,"x_max":778,"o":"m 583 990 l 649 963 l 221 -17 l 154 14 l 583 990 m 761 442 q 715 260 761 349 q 599 78 669 172 l 778 78 l 778 0 l 503 0 l 503 67 q 560 139 529 97 q 617 228 590 181 q 661 328 643 276 q 679 429 679 379 q 663 492 679 469 q 622 515 647 515 q 574 508 597 515 q 535 488 550 500 l 510 554 q 567 583 533 574 q 626 593 601 593 q 761 442 761 593 m 188 857 l 93 775 l 49 826 l 213 972 l 268 972 l 268 389 l 188 389 l 188 857 z "},"¾":{"ha":833,"x_min":61,"x_max":763,"o":"m 611 990 l 676 963 l 249 -17 l 182 14 l 611 990 m 160 457 q 223 486 203 457 q 243 567 243 515 q 224 639 243 611 q 158 667 204 667 l 110 667 l 110 713 l 214 894 l 65 894 l 65 972 l 308 972 l 308 914 l 201 732 l 201 728 q 294 685 264 729 q 325 567 325 642 q 281 431 325 482 q 168 379 236 379 q 109 386 136 379 q 61 404 82 393 l 79 478 q 160 457 113 457 m 763 135 l 692 135 l 692 0 l 611 0 l 611 135 l 424 135 l 424 192 l 624 592 l 692 592 l 692 208 l 763 208 l 763 135 m 611 426 l 511 208 l 611 208 l 611 426 z "},"¿":{"ha":833,"x_min":110,"x_max":758,"o":"m 379 631 q 401 690 379 668 q 458 711 422 711 q 518 690 496 711 q 540 631 540 668 q 518 572 540 594 q 458 550 496 550 q 401 572 422 550 q 379 631 379 594 m 511 449 q 513 433 513 442 q 513 418 513 425 q 491 318 513 360 q 438 244 469 276 q 369 185 406 211 q 300 128 332 158 q 247 63 268 99 q 225 -24 225 26 q 237 -81 225 -51 q 275 -137 249 -111 q 342 -181 301 -164 q 440 -197 383 -197 q 523 -187 486 -197 q 590 -160 560 -176 q 644 -123 619 -143 q 688 -83 668 -103 l 758 -147 q 622 -258 700 -221 q 422 -294 544 -294 q 280 -271 339 -294 q 183 -210 221 -247 q 128 -128 146 -174 q 110 -40 110 -83 q 133 71 110 25 q 190 152 156 117 q 265 216 225 188 q 339 277 304 244 q 397 350 374 310 q 419 449 419 390 l 511 449 z "},"À":{"ha":833,"x_min":22,"x_max":811,"o":"m 599 269 l 225 269 l 136 0 l 22 0 l 347 972 l 483 972 l 811 0 l 690 0 l 599 269 m 261 369 l 567 369 l 424 826 l 407 826 l 261 369 m 521 1044 l 418 1044 l 199 1179 l 199 1208 l 357 1208 l 521 1044 z "},"Á":{"ha":833,"x_min":22,"x_max":811,"o":"m 599 269 l 225 269 l 136 0 l 22 0 l 347 972 l 483 972 l 811 0 l 690 0 l 599 269 m 261 369 l 567 369 l 424 826 l 407 826 l 261 369 m 469 1208 l 628 1208 l 628 1179 l 401 1044 l 306 1044 l 469 1208 z "},"Â":{"ha":833,"x_min":22,"x_max":811,"o":"m 599 269 l 225 269 l 136 0 l 22 0 l 347 972 l 483 972 l 811 0 l 690 0 l 599 269 m 261 369 l 567 369 l 424 826 l 407 826 l 261 369 m 379 1210 l 463 1210 l 664 1039 l 526 1039 l 419 1129 l 304 1039 l 164 1039 l 379 1210 z "},"Ã":{"ha":833,"x_min":22,"x_max":811,"o":"m 599 269 l 225 269 l 136 0 l 22 0 l 347 972 l 483 972 l 811 0 l 690 0 l 599 269 m 261 369 l 567 369 l 424 826 l 407 826 l 261 369 m 181 1096 q 269 1153 224 1140 q 347 1167 314 1167 q 399 1160 374 1167 q 447 1144 424 1153 q 492 1128 469 1135 q 535 1121 514 1121 q 604 1150 571 1121 l 644 1082 q 571 1038 607 1047 q 506 1029 535 1029 q 456 1036 479 1029 q 409 1052 432 1043 q 364 1068 386 1061 q 319 1075 342 1075 q 276 1066 297 1075 q 231 1033 254 1057 l 181 1096 z "},"Ä":{"ha":833,"x_min":22,"x_max":811,"o":"m 599 269 l 225 269 l 136 0 l 22 0 l 347 972 l 483 972 l 811 0 l 690 0 l 599 269 m 261 369 l 567 369 l 424 826 l 407 826 l 261 369 m 175 1111 q 199 1163 175 1143 q 263 1183 224 1183 q 323 1163 299 1183 q 347 1111 347 1143 q 323 1060 347 1079 q 263 1040 299 1040 q 199 1060 224 1040 q 175 1111 175 1079 m 488 1111 q 511 1163 488 1143 q 571 1183 535 1183 q 635 1163 611 1183 q 658 1111 658 1143 q 635 1060 658 1079 q 571 1040 611 1040 q 511 1060 535 1040 q 488 1111 488 1079 z "},"Å":{"ha":833,"x_min":21,"x_max":811,"o":"m 271 1067 q 306 1151 271 1118 q 417 1185 340 1185 q 525 1155 486 1185 q 564 1067 564 1125 q 536 992 564 1022 q 454 954 508 963 l 811 0 l 690 0 l 590 269 l 232 269 l 135 0 l 21 0 l 376 954 q 297 992 324 963 q 271 1067 271 1022 m 269 369 l 556 369 l 413 769 l 411 769 l 269 369 m 356 1067 q 370 1027 356 1043 q 417 1011 385 1011 q 463 1026 447 1011 q 479 1067 479 1042 q 464 1109 479 1093 q 417 1125 449 1125 q 371 1109 386 1125 q 356 1067 356 1093 z "},"Æ":{"ha":833,"x_min":28,"x_max":790,"o":"m 422 767 l 393 675 l 279 365 l 425 365 l 425 767 l 422 767 m 425 265 l 244 265 l 143 0 l 28 0 l 408 972 l 786 972 l 786 868 l 536 868 l 536 551 l 763 551 l 763 447 l 536 447 l 536 104 l 790 104 l 790 0 l 425 0 l 425 265 z "},"Ç":{"ha":833,"x_min":90,"x_max":756,"o":"m 636 867 q 584 881 613 876 q 515 886 556 886 q 403 865 458 886 q 306 797 349 844 q 238 674 264 750 q 213 486 213 597 q 235 311 213 386 q 299 186 258 236 q 398 111 340 136 q 526 86 456 86 q 594 92 563 86 q 651 110 625 99 l 651 249 l 754 249 l 754 61 l 756 58 q 650 4 714 26 q 544 -15 604 -10 l 519 -60 q 603 -96 578 -71 q 629 -164 629 -121 q 585 -253 629 -218 q 460 -289 540 -289 q 429 -287 444 -289 q 397 -283 414 -286 l 410 -229 q 425 -231 418 -231 l 439 -231 q 487 -225 469 -231 q 513 -212 504 -219 q 524 -194 522 -204 q 526 -176 526 -185 q 407 -125 526 -137 l 464 -15 q 332 13 394 -11 q 204 104 258 43 q 120 260 150 165 q 90 486 90 356 q 124 717 90 622 q 214 873 157 813 q 347 961 271 933 q 508 989 422 989 q 590 985 556 989 q 651 976 625 982 q 698 960 678 969 q 738 938 718 950 l 739 938 l 739 718 l 636 718 l 636 867 z "},"È":{"ha":833,"x_min":149,"x_max":726,"o":"m 149 972 l 719 972 l 719 869 l 264 869 l 264 551 l 685 551 l 685 449 l 264 449 l 264 103 l 726 103 l 726 0 l 149 0 l 149 972 m 540 1044 l 438 1044 l 218 1179 l 218 1208 l 376 1208 l 540 1044 z "},"É":{"ha":833,"x_min":149,"x_max":726,"o":"m 149 972 l 719 972 l 719 869 l 264 869 l 264 551 l 685 551 l 685 449 l 264 449 l 264 103 l 726 103 l 726 0 l 149 0 l 149 972 m 489 1208 l 647 1208 l 647 1179 l 421 1044 l 325 1044 l 489 1208 z "},"Ê":{"ha":833,"x_min":149,"x_max":726,"o":"m 149 972 l 719 972 l 719 869 l 264 869 l 264 551 l 685 551 l 685 449 l 264 449 l 264 103 l 726 103 l 726 0 l 149 0 l 149 972 m 394 1210 l 478 1210 l 679 1039 l 542 1039 l 435 1129 l 319 1039 l 179 1039 l 394 1210 z "},"Ë":{"ha":833,"x_min":149,"x_max":726,"o":"m 149 972 l 719 972 l 719 869 l 264 869 l 264 551 l 685 551 l 685 449 l 264 449 l 264 103 l 726 103 l 726 0 l 149 0 l 149 972 m 190 1111 q 215 1163 190 1143 q 278 1183 239 1183 q 338 1163 314 1183 q 363 1111 363 1143 q 338 1060 363 1079 q 278 1040 314 1040 q 215 1060 239 1040 q 190 1111 190 1079 m 503 1111 q 526 1163 503 1143 q 586 1183 550 1183 q 650 1163 626 1183 q 674 1111 674 1143 q 650 1060 674 1079 q 586 1040 626 1040 q 526 1060 550 1040 q 503 1111 503 1079 z "},"Ì":{"ha":833,"x_min":83,"x_max":750,"o":"m 83 972 l 750 972 l 750 869 l 474 869 l 474 103 l 750 103 l 750 0 l 83 0 l 83 103 l 358 103 l 358 869 l 83 869 l 83 972 m 538 1044 l 435 1044 l 215 1179 l 215 1208 l 374 1208 l 538 1044 z "},"Í":{"ha":833,"x_min":83,"x_max":750,"o":"m 83 972 l 750 972 l 750 869 l 474 869 l 474 103 l 750 103 l 750 0 l 83 0 l 83 103 l 358 103 l 358 869 l 83 869 l 83 972 m 464 1208 l 622 1208 l 622 1179 l 396 1044 l 300 1044 l 464 1208 z "},"Î":{"ha":833,"x_min":83,"x_max":750,"o":"m 83 972 l 750 972 l 750 869 l 474 869 l 474 103 l 750 103 l 750 0 l 83 0 l 83 103 l 358 103 l 358 869 l 83 869 l 83 972 m 378 1210 l 461 1210 l 663 1039 l 525 1039 l 418 1129 l 303 1039 l 163 1039 l 378 1210 z "},"Ï":{"ha":833,"x_min":83,"x_max":750,"o":"m 83 972 l 750 972 l 750 869 l 474 869 l 474 103 l 750 103 l 750 0 l 83 0 l 83 103 l 358 103 l 358 869 l 83 869 l 83 972 m 175 1111 q 199 1163 175 1143 q 263 1183 224 1183 q 323 1163 299 1183 q 347 1111 347 1143 q 323 1060 347 1079 q 263 1040 299 1040 q 199 1060 224 1040 q 175 1111 175 1079 m 488 1111 q 511 1163 488 1143 q 571 1183 535 1183 q 635 1163 611 1183 q 658 1111 658 1143 q 635 1060 658 1079 q 571 1040 611 1040 q 511 1060 535 1040 q 488 1111 488 1079 z "},"Ð":{"ha":833,"x_min":13,"x_max":808,"o":"m 13 544 l 138 544 l 138 972 q 258 981 190 979 q 383 983 325 983 q 581 947 500 983 q 713 847 663 911 q 786 692 764 782 q 808 493 808 601 q 788 303 808 394 q 716 142 767 213 q 581 30 665 72 q 369 -12 496 -12 q 314 -12 347 -12 q 246 -9 281 -11 q 181 -6 211 -7 q 138 -1 151 -4 l 138 461 l 13 461 l 13 544 m 386 881 q 311 879 350 881 q 253 874 272 878 l 253 544 l 443 544 l 443 461 l 253 461 l 253 96 q 276 94 260 94 q 312 92 293 93 q 348 91 331 92 q 372 90 365 90 q 531 124 469 90 q 627 213 593 157 q 674 342 661 269 q 686 493 686 415 q 675 630 686 561 q 631 754 664 699 q 540 845 599 810 q 386 881 482 881 z "},"Ñ":{"ha":833,"x_min":97,"x_max":736,"o":"m 272 608 l 197 749 l 192 749 l 206 608 l 206 0 l 97 0 l 97 972 l 172 972 l 564 367 l 636 233 l 643 233 l 628 367 l 628 972 l 736 972 l 736 0 l 661 0 l 272 608 m 181 1096 q 269 1153 224 1140 q 347 1167 314 1167 q 399 1160 374 1167 q 447 1144 424 1153 q 492 1128 469 1135 q 535 1121 514 1121 q 604 1150 571 1121 l 644 1082 q 571 1038 607 1047 q 506 1029 535 1029 q 456 1036 479 1029 q 409 1052 432 1043 q 364 1068 386 1061 q 319 1075 342 1075 q 276 1066 297 1075 q 231 1033 254 1057 l 181 1096 z "},"Ò":{"ha":833,"x_min":67,"x_max":767,"o":"m 67 486 q 152 858 67 728 q 415 989 238 989 q 580 953 513 989 q 689 851 647 917 q 749 692 731 785 q 767 486 767 600 q 681 114 767 244 q 415 -17 596 -17 q 253 19 319 -17 q 144 122 186 56 q 85 280 103 188 q 67 486 67 372 m 189 486 q 199 333 189 406 q 236 206 210 261 q 306 119 263 151 q 415 86 349 86 q 590 183 535 86 q 644 486 644 281 q 634 638 644 565 q 597 766 624 711 q 526 853 571 821 q 415 886 482 886 q 243 788 297 886 q 189 486 189 690 m 513 1044 l 410 1044 l 190 1179 l 190 1208 l 349 1208 l 513 1044 z "},"Ó":{"ha":833,"x_min":67,"x_max":767,"o":"m 67 486 q 152 858 67 728 q 415 989 238 989 q 580 953 513 989 q 689 851 647 917 q 749 692 731 785 q 767 486 767 600 q 681 114 767 244 q 415 -17 596 -17 q 253 19 319 -17 q 144 122 186 56 q 85 280 103 188 q 67 486 67 372 m 189 486 q 199 333 189 406 q 236 206 210 261 q 306 119 263 151 q 415 86 349 86 q 590 183 535 86 q 644 486 644 281 q 634 638 644 565 q 597 766 624 711 q 526 853 571 821 q 415 886 482 886 q 243 788 297 886 q 189 486 189 690 m 518 1208 l 676 1208 l 676 1179 l 450 1044 l 354 1044 l 518 1208 z "},"Ô":{"ha":833,"x_min":67,"x_max":767,"o":"m 67 486 q 152 858 67 728 q 415 989 238 989 q 580 953 513 989 q 689 851 647 917 q 749 692 731 785 q 767 486 767 600 q 681 114 767 244 q 415 -17 596 -17 q 253 19 319 -17 q 144 122 186 56 q 85 280 103 188 q 67 486 67 372 m 189 486 q 199 333 189 406 q 236 206 210 261 q 306 119 263 151 q 415 86 349 86 q 590 183 535 86 q 644 486 644 281 q 634 638 644 565 q 597 766 624 711 q 526 853 571 821 q 415 886 482 886 q 243 788 297 886 q 189 486 189 690 m 376 1210 l 460 1210 l 661 1039 l 524 1039 l 417 1129 l 301 1039 l 161 1039 l 376 1210 z "},"Õ":{"ha":833,"x_min":67,"x_max":767,"o":"m 67 486 q 152 858 67 728 q 415 989 238 989 q 580 953 513 989 q 689 851 647 917 q 749 692 731 785 q 767 486 767 600 q 681 114 767 244 q 415 -17 596 -17 q 253 19 319 -17 q 144 122 186 56 q 85 280 103 188 q 67 486 67 372 m 189 486 q 199 333 189 406 q 236 206 210 261 q 306 119 263 151 q 415 86 349 86 q 590 183 535 86 q 644 486 644 281 q 634 638 644 565 q 597 766 624 711 q 526 853 571 821 q 415 886 482 886 q 243 788 297 886 q 189 486 189 690 m 179 1096 q 267 1153 222 1140 q 346 1167 313 1167 q 397 1160 372 1167 q 445 1144 422 1153 q 490 1128 468 1135 q 533 1121 513 1121 q 603 1150 569 1121 l 643 1082 q 569 1038 606 1047 q 504 1029 533 1029 q 454 1036 478 1029 q 408 1052 431 1043 q 363 1068 385 1061 q 318 1075 340 1075 q 274 1066 296 1075 q 229 1033 253 1057 l 179 1096 z "},"Ö":{"ha":833,"x_min":67,"x_max":767,"o":"m 67 486 q 152 858 67 728 q 415 989 238 989 q 580 953 513 989 q 689 851 647 917 q 749 692 731 785 q 767 486 767 600 q 681 114 767 244 q 415 -17 596 -17 q 253 19 319 -17 q 144 122 186 56 q 85 280 103 188 q 67 486 67 372 m 189 486 q 199 333 189 406 q 236 206 210 261 q 306 119 263 151 q 415 86 349 86 q 590 183 535 86 q 644 486 644 281 q 634 638 644 565 q 597 766 624 711 q 526 853 571 821 q 415 886 482 886 q 243 788 297 886 q 189 486 189 690 m 172 1111 q 197 1163 172 1143 q 260 1183 221 1183 q 320 1163 296 1183 q 344 1111 344 1143 q 320 1060 344 1079 q 260 1040 296 1040 q 197 1060 221 1040 q 172 1111 172 1079 m 485 1111 q 508 1163 485 1143 q 568 1183 532 1183 q 632 1163 608 1183 q 656 1111 656 1143 q 632 1060 656 1079 q 568 1040 608 1040 q 508 1060 532 1040 q 485 1111 485 1079 z "},"×":{"ha":833,"x_min":168,"x_max":664,"o":"m 242 718 l 417 542 l 593 718 l 664 644 l 489 469 l 664 293 l 593 221 l 417 399 l 240 221 l 168 292 l 346 471 l 171 644 l 242 718 z "},"Ø":{"ha":833,"x_min":19,"x_max":814,"o":"m 111 126 q 42 283 64 193 q 19 486 19 374 q 122 859 19 729 q 415 989 225 989 q 556 968 494 989 q 664 907 617 947 l 722 990 l 794 942 l 724 842 q 792 685 769 775 q 814 486 814 596 q 710 113 814 243 q 415 -17 607 -17 q 172 61 267 -17 l 118 -17 l 46 33 l 111 126 m 142 486 q 153 353 142 415 q 190 238 165 290 l 593 808 q 517 865 561 844 q 415 886 474 886 q 215 788 288 886 q 142 486 142 690 m 692 486 q 680 615 692 553 q 644 729 668 678 l 242 158 q 317 105 274 124 q 415 86 360 86 q 618 184 544 86 q 692 486 692 282 z "},"Ù":{"ha":833,"x_min":83,"x_max":750,"o":"m 639 972 l 750 972 l 750 324 q 727 172 750 236 q 663 67 704 108 q 561 7 621 26 q 429 -12 501 -12 q 170 65 257 -12 q 83 301 83 143 l 83 972 l 199 972 l 199 356 q 213 231 199 282 q 256 149 228 181 q 328 104 285 118 q 431 90 372 90 q 591 152 543 90 q 639 356 639 214 l 639 972 m 531 1044 l 428 1044 l 208 1179 l 208 1208 l 367 1208 l 531 1044 z "},"Ú":{"ha":833,"x_min":83,"x_max":750,"o":"m 639 972 l 750 972 l 750 324 q 727 172 750 236 q 663 67 704 108 q 561 7 621 26 q 429 -12 501 -12 q 170 65 257 -12 q 83 301 83 143 l 83 972 l 199 972 l 199 356 q 213 231 199 282 q 256 149 228 181 q 328 104 285 118 q 431 90 372 90 q 591 152 543 90 q 639 356 639 214 l 639 972 m 506 1208 l 664 1208 l 664 1179 l 438 1044 l 342 1044 l 506 1208 z "},"Û":{"ha":833,"x_min":83,"x_max":750,"o":"m 639 972 l 750 972 l 750 324 q 727 172 750 236 q 663 67 704 108 q 561 7 621 26 q 429 -12 501 -12 q 170 65 257 -12 q 83 301 83 143 l 83 972 l 199 972 l 199 356 q 213 231 199 282 q 256 149 228 181 q 328 104 285 118 q 431 90 372 90 q 591 152 543 90 q 639 356 639 214 l 639 972 m 382 1210 l 465 1210 l 667 1039 l 529 1039 l 422 1129 l 307 1039 l 167 1039 l 382 1210 z "},"Ü":{"ha":833,"x_min":83,"x_max":750,"o":"m 639 972 l 750 972 l 750 324 q 727 172 750 236 q 663 67 704 108 q 561 7 621 26 q 429 -12 501 -12 q 170 65 257 -12 q 83 301 83 143 l 83 972 l 199 972 l 199 356 q 213 231 199 282 q 256 149 228 181 q 328 104 285 118 q 431 90 372 90 q 591 152 543 90 q 639 356 639 214 l 639 972 m 176 1111 q 201 1163 176 1143 q 264 1183 225 1183 q 324 1163 300 1183 q 349 1111 349 1143 q 324 1060 349 1079 q 264 1040 300 1040 q 201 1060 225 1040 q 176 1111 176 1079 m 489 1111 q 513 1163 489 1143 q 572 1183 536 1183 q 636 1163 613 1183 q 660 1111 660 1143 q 636 1060 660 1079 q 572 1040 613 1040 q 513 1060 536 1040 q 489 1111 489 1079 z "},"Ý":{"ha":833,"x_min":13,"x_max":821,"o":"m 360 372 l 13 972 l 147 972 l 425 492 l 426 492 l 697 972 l 821 972 l 475 374 l 475 0 l 360 0 l 360 372 m 493 1208 l 651 1208 l 651 1179 l 425 1044 l 329 1044 l 493 1208 z "},"Þ":{"ha":833,"x_min":126,"x_max":761,"o":"m 126 972 l 242 972 l 242 868 q 275 870 256 869 q 315 872 294 871 q 355 872 336 872 q 389 872 374 872 q 519 860 453 872 q 639 814 585 847 q 727 722 693 781 q 761 574 761 664 q 729 424 761 485 q 644 324 697 363 q 524 269 592 286 q 383 251 456 251 q 356 251 376 251 q 313 252 336 251 q 269 254 290 253 q 242 257 249 256 l 242 0 l 126 0 l 126 972 m 392 772 q 352 772 374 772 q 309 771 331 772 q 269 768 288 769 q 242 764 251 767 l 242 361 q 268 358 249 358 q 310 356 288 357 q 351 354 332 354 q 378 354 371 354 q 472 363 425 354 q 556 397 518 372 q 616 464 593 421 q 639 574 639 507 q 617 669 639 631 q 560 730 596 707 q 481 763 525 753 q 392 772 436 772 z "},"ß":{"ha":833,"x_min":51,"x_max":781,"o":"m 554 776 q 541 820 554 800 q 507 854 528 840 q 461 876 486 868 q 413 883 436 883 q 347 874 374 883 q 303 842 319 864 q 278 783 286 819 q 271 692 271 746 l 271 0 l 160 0 l 160 597 l 51 597 l 51 694 l 160 694 l 160 726 q 226 921 160 861 q 408 981 292 981 q 513 966 465 981 q 594 924 560 951 q 647 860 628 897 q 665 778 665 824 q 639 693 665 725 q 581 636 613 661 q 524 588 550 611 q 497 529 497 564 q 518 481 497 499 q 571 449 539 463 q 639 420 603 435 q 707 382 675 406 q 760 320 739 358 q 781 221 781 282 q 764 134 781 176 q 716 58 747 92 q 638 4 685 25 q 531 -17 590 -17 q 474 -15 499 -17 q 430 -8 450 -12 q 392 4 410 -3 q 356 22 374 11 l 388 113 q 417 97 404 104 q 444 86 429 90 q 476 80 458 82 q 521 78 494 78 q 577 88 550 78 q 625 117 604 99 q 658 160 646 135 q 669 217 669 186 q 649 283 669 258 q 596 324 628 307 q 528 353 564 340 q 460 387 492 367 q 407 438 428 407 q 386 522 386 469 q 413 609 386 576 q 470 667 439 642 q 528 717 501 693 q 554 776 554 740 z "},"à":{"ha":833,"x_min":104,"x_max":757,"o":"m 150 640 q 285 690 210 675 q 432 706 360 706 q 548 683 503 706 q 619 626 593 661 q 653 545 644 590 q 663 454 663 500 q 660 342 663 401 q 656 222 657 282 q 664 90 656 153 l 757 90 l 757 0 l 572 0 l 560 104 l 553 104 q 528 72 544 92 q 484 34 511 53 q 418 1 457 15 q 326 -12 379 -12 q 164 40 224 -12 q 104 185 104 93 q 135 303 104 256 q 225 375 167 350 q 366 404 283 400 q 551 393 449 408 q 553 499 558 457 q 531 567 549 542 q 483 602 514 592 q 406 613 451 613 q 286 595 343 613 q 185 560 229 578 l 150 640 m 354 81 q 426 93 393 81 q 485 125 460 106 q 526 167 510 144 q 551 211 543 190 l 551 308 q 418 321 479 321 q 313 308 357 321 q 243 267 268 294 q 218 194 218 239 q 249 115 218 149 q 354 81 281 81 m 501 793 l 425 793 l 260 1000 l 411 1000 l 501 793 z "},"á":{"ha":833,"x_min":104,"x_max":757,"o":"m 150 640 q 285 690 210 675 q 432 706 360 706 q 548 683 503 706 q 619 626 593 661 q 653 545 644 590 q 663 454 663 500 q 660 342 663 401 q 656 222 657 282 q 664 90 656 153 l 757 90 l 757 0 l 572 0 l 560 104 l 553 104 q 528 72 544 92 q 484 34 511 53 q 418 1 457 15 q 326 -12 379 -12 q 164 40 224 -12 q 104 185 104 93 q 135 303 104 256 q 225 375 167 350 q 366 404 283 400 q 551 393 449 408 q 553 499 558 457 q 531 567 549 542 q 483 602 514 592 q 406 613 451 613 q 286 595 343 613 q 185 560 229 578 l 150 640 m 354 81 q 426 93 393 81 q 485 125 460 106 q 526 167 510 144 q 551 211 543 190 l 551 308 q 418 321 479 321 q 313 308 357 321 q 243 267 268 294 q 218 194 218 239 q 249 115 218 149 q 354 81 281 81 m 415 1000 l 567 1000 l 401 793 l 325 793 l 415 1000 z "},"â":{"ha":833,"x_min":104,"x_max":757,"o":"m 150 640 q 285 690 210 675 q 432 706 360 706 q 548 683 503 706 q 619 626 593 661 q 653 545 644 590 q 663 454 663 500 q 660 342 663 401 q 656 222 657 282 q 664 90 656 153 l 757 90 l 757 0 l 572 0 l 560 104 l 553 104 q 528 72 544 92 q 484 34 511 53 q 418 1 457 15 q 326 -12 379 -12 q 164 40 224 -12 q 104 185 104 93 q 135 303 104 256 q 225 375 167 350 q 366 404 283 400 q 551 393 449 408 q 553 499 558 457 q 531 567 549 542 q 483 602 514 592 q 406 613 451 613 q 286 595 343 613 q 185 560 229 578 l 150 640 m 354 81 q 426 93 393 81 q 485 125 460 106 q 526 167 510 144 q 551 211 543 190 l 551 308 q 418 321 479 321 q 313 308 357 321 q 243 267 268 294 q 218 194 218 239 q 249 115 218 149 q 354 81 281 81 m 392 1017 l 443 1017 l 631 764 l 522 764 l 410 915 l 290 764 l 193 764 l 392 1017 z "},"ã":{"ha":833,"x_min":104,"x_max":757,"o":"m 150 640 q 285 690 210 675 q 432 706 360 706 q 548 683 503 706 q 619 626 593 661 q 653 545 644 590 q 663 454 663 500 q 660 342 663 401 q 656 222 657 282 q 664 90 656 153 l 757 90 l 757 0 l 572 0 l 560 104 l 553 104 q 528 72 544 92 q 484 34 511 53 q 418 1 457 15 q 326 -12 379 -12 q 164 40 224 -12 q 104 185 104 93 q 135 303 104 256 q 225 375 167 350 q 366 404 283 400 q 551 393 449 408 q 553 499 558 457 q 531 567 549 542 q 483 602 514 592 q 406 613 451 613 q 286 595 343 613 q 185 560 229 578 l 150 640 m 354 81 q 426 93 393 81 q 485 125 460 106 q 526 167 510 144 q 551 211 543 190 l 551 308 q 418 321 479 321 q 313 308 357 321 q 243 267 268 294 q 218 194 218 239 q 249 115 218 149 q 354 81 281 81 m 196 908 q 279 973 236 954 q 350 992 322 992 q 394 983 374 992 q 433 963 414 974 q 469 944 451 953 q 506 936 486 936 q 569 969 536 936 l 618 908 q 551 853 582 868 q 482 840 519 839 q 440 849 460 840 q 402 869 421 858 q 365 888 383 879 q 326 896 346 896 q 290 886 308 896 q 247 853 271 876 l 196 908 z "},"ä":{"ha":833,"x_min":104,"x_max":757,"o":"m 150 640 q 285 690 210 675 q 432 706 360 706 q 548 683 503 706 q 619 626 593 661 q 653 545 644 590 q 663 454 663 500 q 660 342 663 401 q 656 222 657 282 q 664 90 656 153 l 757 90 l 757 0 l 572 0 l 560 104 l 553 104 q 528 72 544 92 q 484 34 511 53 q 418 1 457 15 q 326 -12 379 -12 q 164 40 224 -12 q 104 185 104 93 q 135 303 104 256 q 225 375 167 350 q 366 404 283 400 q 551 393 449 408 q 553 499 558 457 q 531 567 549 542 q 483 602 514 592 q 406 613 451 613 q 286 595 343 613 q 185 560 229 578 l 150 640 m 354 81 q 426 93 393 81 q 485 125 460 106 q 526 167 510 144 q 551 211 543 190 l 551 308 q 418 321 479 321 q 313 308 357 321 q 243 267 268 294 q 218 194 218 239 q 249 115 218 149 q 354 81 281 81 m 176 896 q 198 955 176 932 q 256 978 219 978 q 313 955 290 978 q 335 896 335 932 q 313 840 335 863 q 256 817 290 817 q 198 840 219 817 q 176 896 176 863 m 486 896 q 508 955 486 932 q 564 978 529 978 q 623 955 600 978 q 646 896 646 932 q 623 840 646 863 q 564 817 600 817 q 508 840 529 817 q 486 896 486 863 z "},"å":{"ha":833,"x_min":104,"x_max":757,"o":"m 150 640 q 285 690 210 675 q 432 706 360 706 q 548 683 503 706 q 619 626 593 661 q 653 545 644 590 q 663 454 663 500 q 660 342 663 401 q 656 222 657 282 q 664 90 656 153 l 757 90 l 757 0 l 572 0 l 560 104 l 553 104 q 528 72 544 92 q 484 34 511 53 q 418 1 457 15 q 326 -12 379 -12 q 164 40 224 -12 q 104 185 104 93 q 135 303 104 256 q 225 375 167 350 q 366 404 283 400 q 551 393 449 408 q 553 499 558 457 q 531 567 549 542 q 483 602 514 592 q 406 613 451 613 q 286 595 343 613 q 185 560 229 578 l 150 640 m 354 81 q 426 93 393 81 q 485 125 460 106 q 526 167 510 144 q 551 211 543 190 l 551 308 q 418 321 479 321 q 313 308 357 321 q 243 267 268 294 q 218 194 218 239 q 249 115 218 149 q 354 81 281 81 m 275 893 q 312 985 275 951 q 410 1019 349 1019 q 507 989 468 1019 q 546 893 546 958 q 507 803 546 839 q 410 768 468 768 q 313 801 351 768 q 275 893 275 833 m 350 893 q 368 850 350 865 q 410 835 386 835 q 453 849 436 835 q 471 893 471 863 q 452 938 471 924 q 410 953 433 953 q 368 939 386 953 q 350 893 350 925 z "},"æ":{"ha":833,"x_min":40,"x_max":793,"o":"m 243 82 q 320 106 288 82 q 363 167 353 131 l 363 313 q 347 313 358 313 q 324 315 336 314 q 301 315 313 315 q 286 315 290 315 q 232 312 258 315 q 186 297 206 308 q 155 262 167 285 q 143 201 143 239 q 167 117 143 153 q 243 82 190 82 m 393 90 q 325 15 369 42 q 210 -11 281 -11 q 88 44 135 -11 q 40 192 40 100 q 57 292 40 251 q 104 358 74 333 q 176 394 135 383 q 267 404 217 404 q 285 404 272 404 q 313 403 299 404 q 341 402 328 403 q 361 401 354 401 q 363 439 363 421 q 364 472 364 457 q 353 540 364 513 q 324 583 342 567 q 284 606 307 599 q 236 613 261 613 q 167 599 204 613 q 103 565 129 586 l 76 646 q 159 691 111 676 q 258 706 207 706 q 308 700 282 706 q 357 683 333 694 q 399 656 381 672 q 424 618 417 640 q 456 660 436 643 q 500 690 476 678 q 549 706 524 701 q 594 711 574 711 q 662 701 626 711 q 726 661 697 690 q 774 582 756 632 q 793 453 793 532 q 792 388 793 425 q 786 318 790 350 l 451 318 q 497 131 453 185 q 615 76 542 76 q 650 80 632 76 q 685 88 668 83 q 717 100 703 93 q 738 114 731 107 l 771 36 q 694 -2 743 13 q 592 -17 644 -17 q 534 -10 564 -17 q 478 10 504 -3 q 431 44 451 24 q 399 90 410 64 l 393 90 m 594 618 q 545 606 569 618 q 501 567 521 593 q 469 501 482 540 q 454 408 456 463 l 697 408 l 697 433 q 666 572 697 526 q 594 618 635 618 z "},"ç":{"ha":833,"x_min":83,"x_max":751,"o":"m 610 588 q 541 606 578 599 q 468 614 504 614 q 265 550 332 614 q 199 347 199 486 q 218 238 199 286 q 274 157 238 190 q 360 106 310 124 q 472 88 411 88 q 599 110 538 88 q 703 168 661 132 l 751 88 q 646 23 715 56 q 481 -15 576 -10 l 457 -60 q 541 -96 515 -71 q 567 -164 567 -121 q 522 -253 567 -218 q 397 -289 478 -289 q 367 -287 382 -289 q 335 -283 351 -286 l 347 -229 q 363 -231 356 -231 q 376 -231 369 -231 q 424 -225 407 -231 q 451 -212 442 -219 q 462 -194 460 -204 q 464 -176 464 -185 q 344 -125 464 -137 l 403 -14 q 164 96 244 -1 q 83 347 83 193 q 108 503 83 435 q 178 617 132 571 q 289 687 224 663 q 435 711 354 711 q 602 693 538 711 q 711 653 667 675 l 710 649 l 710 456 l 610 456 l 610 588 z "},"è":{"ha":833,"x_min":88,"x_max":746,"o":"m 735 88 q 676 46 710 65 q 601 13 642 26 q 517 -9 561 -1 q 429 -17 474 -17 q 282 9 346 -17 q 175 83 218 35 q 110 197 132 131 q 88 347 88 264 q 112 503 88 435 q 182 617 136 571 q 293 687 228 663 q 439 711 358 711 q 554 696 497 711 q 655 638 611 681 q 722 522 699 596 q 739 329 746 447 l 201 329 q 269 142 201 204 q 449 81 336 81 q 523 90 486 81 q 593 111 560 99 q 652 139 626 124 q 692 167 678 154 l 735 88 m 442 619 q 355 610 396 619 q 283 577 314 600 q 231 517 251 554 q 206 426 211 481 l 638 426 q 578 569 631 518 q 442 619 526 619 m 510 793 l 433 793 l 268 1000 l 419 1000 l 510 793 z "},"é":{"ha":833,"x_min":88,"x_max":746,"o":"m 735 88 q 676 46 710 65 q 601 13 642 26 q 517 -9 561 -1 q 429 -17 474 -17 q 282 9 346 -17 q 175 83 218 35 q 110 197 132 131 q 88 347 88 264 q 112 503 88 435 q 182 617 136 571 q 293 687 228 663 q 439 711 358 711 q 554 696 497 711 q 655 638 611 681 q 722 522 699 596 q 739 329 746 447 l 201 329 q 269 142 201 204 q 449 81 336 81 q 523 90 486 81 q 593 111 560 99 q 652 139 626 124 q 692 167 678 154 l 735 88 m 442 619 q 355 610 396 619 q 283 577 314 600 q 231 517 251 554 q 206 426 211 481 l 638 426 q 578 569 631 518 q 442 619 526 619 m 435 1000 l 586 1000 l 421 793 l 344 793 l 435 1000 z "},"ê":{"ha":833,"x_min":88,"x_max":746,"o":"m 735 88 q 676 46 710 65 q 601 13 642 26 q 517 -9 561 -1 q 429 -17 474 -17 q 282 9 346 -17 q 175 83 218 35 q 110 197 132 131 q 88 347 88 264 q 112 503 88 435 q 182 617 136 571 q 293 687 228 663 q 439 711 358 711 q 554 696 497 711 q 655 638 611 681 q 722 522 699 596 q 739 329 746 447 l 201 329 q 269 142 201 204 q 449 81 336 81 q 523 90 486 81 q 593 111 560 99 q 652 139 626 124 q 692 167 678 154 l 735 88 m 442 619 q 355 610 396 619 q 283 577 314 600 q 231 517 251 554 q 206 426 211 481 l 638 426 q 578 569 631 518 q 442 619 526 619 m 400 1017 l 451 1017 l 639 764 l 531 764 l 418 915 l 299 764 l 201 764 l 400 1017 z "},"ë":{"ha":833,"x_min":88,"x_max":746,"o":"m 735 88 q 676 46 710 65 q 601 13 642 26 q 517 -9 561 -1 q 429 -17 474 -17 q 282 9 346 -17 q 175 83 218 35 q 110 197 132 131 q 88 347 88 264 q 112 503 88 435 q 182 617 136 571 q 293 687 228 663 q 439 711 358 711 q 554 696 497 711 q 655 638 611 681 q 722 522 699 596 q 739 329 746 447 l 201 329 q 269 142 201 204 q 449 81 336 81 q 523 90 486 81 q 593 111 560 99 q 652 139 626 124 q 692 167 678 154 l 735 88 m 442 619 q 355 610 396 619 q 283 577 314 600 q 231 517 251 554 q 206 426 211 481 l 638 426 q 578 569 631 518 q 442 619 526 619 m 196 896 q 217 955 196 932 q 275 978 239 978 q 332 955 310 978 q 354 896 354 932 q 332 840 354 863 q 275 817 310 817 q 217 840 239 817 q 196 896 196 863 m 506 896 q 527 955 506 932 q 583 978 549 978 q 642 955 619 978 q 665 896 665 932 q 642 840 665 863 q 583 817 619 817 q 527 840 549 817 q 506 896 506 863 z "},"ì":{"ha":833,"x_min":203,"x_max":792,"o":"m 203 0 l 203 93 l 444 93 l 444 601 l 203 601 l 203 694 l 556 694 l 556 93 l 792 93 l 792 0 l 203 0 m 513 793 l 436 793 l 271 1000 l 422 1000 l 513 793 z "},"í":{"ha":833,"x_min":146,"x_max":735,"o":"m 146 0 l 146 93 l 388 93 l 388 601 l 146 601 l 146 694 l 499 694 l 499 93 l 735 93 l 735 0 l 146 0 m 411 1000 l 563 1000 l 397 793 l 321 793 l 411 1000 z "},"î":{"ha":833,"x_min":146,"x_max":735,"o":"m 146 0 l 146 93 l 388 93 l 388 601 l 146 601 l 146 694 l 499 694 l 499 93 l 735 93 l 735 0 l 146 0 m 381 1017 l 432 1017 l 619 764 l 511 764 l 399 915 l 279 764 l 182 764 l 381 1017 z "},"ï":{"ha":833,"x_min":149,"x_max":738,"o":"m 149 0 l 149 93 l 390 93 l 390 601 l 149 601 l 149 694 l 501 694 l 501 93 l 738 93 l 738 0 l 149 0 m 182 896 q 203 955 182 932 q 261 978 225 978 q 318 955 296 978 q 340 896 340 932 q 318 840 340 863 q 261 817 296 817 q 203 840 225 817 q 182 896 182 863 m 492 896 q 513 955 492 932 q 569 978 535 978 q 628 955 606 978 q 651 896 651 932 q 628 840 651 863 q 569 817 606 817 q 513 840 535 817 q 492 896 492 863 z "},"ð":{"ha":833,"x_min":76,"x_max":771,"o":"m 332 828 l 411 871 q 306 915 358 903 l 354 990 q 418 964 379 981 q 499 918 457 947 l 593 969 l 629 907 l 560 869 q 630 795 593 838 q 698 697 667 753 q 750 569 729 640 q 771 410 771 499 q 742 217 771 297 q 663 84 713 136 q 550 8 614 32 q 418 -17 486 -17 q 263 13 328 -17 q 157 92 199 42 q 96 208 115 142 q 76 349 76 274 q 98 486 76 421 q 162 601 119 551 q 268 679 204 650 q 415 708 332 708 q 531 690 478 708 q 619 644 583 672 q 556 740 596 693 q 475 824 515 788 l 369 767 l 332 828 m 192 347 q 210 229 192 279 q 259 146 228 179 q 333 97 290 113 q 424 81 375 81 q 510 99 468 81 q 586 156 553 117 q 640 256 619 194 q 660 403 660 317 q 659 434 660 417 q 658 469 658 451 q 655 502 657 486 q 650 529 653 518 q 603 565 631 550 q 545 591 575 581 q 484 606 515 601 q 426 611 453 611 q 322 590 365 611 q 249 534 278 569 q 206 451 219 499 q 192 347 192 403 z "},"ñ":{"ha":833,"x_min":25,"x_max":729,"o":"m 129 451 q 128 484 129 464 q 126 526 128 504 q 123 568 125 547 q 118 604 121 589 l 25 604 l 25 694 l 211 694 l 224 582 l 231 582 q 267 628 244 606 q 321 670 290 651 q 389 700 351 689 q 468 711 426 711 q 581 697 532 711 q 663 648 631 683 q 713 552 696 613 q 729 399 729 492 l 729 0 l 621 0 l 621 378 q 583 551 621 493 q 447 610 546 610 q 377 595 411 610 q 315 557 343 581 q 267 502 288 533 q 236 436 246 471 l 236 0 l 129 0 l 129 451 m 203 908 q 286 973 243 954 q 357 992 329 992 q 401 983 381 992 q 440 963 421 974 q 476 944 458 953 q 513 936 493 936 q 576 969 543 936 l 625 908 q 558 853 589 868 q 489 840 526 839 q 447 849 467 840 q 409 869 428 858 q 372 888 390 879 q 333 896 353 896 q 297 886 315 896 q 254 853 278 876 l 203 908 z "},"ò":{"ha":833,"x_min":79,"x_max":754,"o":"m 79 347 q 167 613 79 515 q 417 711 254 711 q 567 683 504 711 q 672 606 631 654 q 734 490 714 557 q 754 347 754 424 q 732 197 754 264 q 667 82 710 129 q 560 9 624 35 q 417 -17 497 -17 q 267 12 331 -17 q 161 89 203 40 q 99 204 119 138 q 79 347 79 271 m 194 347 q 206 250 194 299 q 244 163 218 201 q 313 100 271 124 q 417 76 356 76 q 584 145 528 76 q 640 347 640 214 q 628 445 640 397 q 590 532 617 493 q 520 594 563 571 q 417 618 478 618 q 250 550 306 618 q 194 347 194 482 m 472 793 l 396 793 l 231 1000 l 382 1000 l 472 793 z "},"ó":{"ha":833,"x_min":79,"x_max":754,"o":"m 79 347 q 167 613 79 515 q 417 711 254 711 q 567 683 504 711 q 672 606 631 654 q 734 490 714 557 q 754 347 754 424 q 732 197 754 264 q 667 82 710 129 q 560 9 624 35 q 417 -17 497 -17 q 267 12 331 -17 q 161 89 203 40 q 99 204 119 138 q 79 347 79 271 m 194 347 q 206 250 194 299 q 244 163 218 201 q 313 100 271 124 q 417 76 356 76 q 584 145 528 76 q 640 347 640 214 q 628 445 640 397 q 590 532 617 493 q 520 594 563 571 q 417 618 478 618 q 250 550 306 618 q 194 347 194 482 m 450 1000 l 601 1000 l 436 793 l 360 793 l 450 1000 z "},"ô":{"ha":833,"x_min":79,"x_max":754,"o":"m 79 347 q 167 613 79 515 q 417 711 254 711 q 567 683 504 711 q 672 606 631 654 q 734 490 714 557 q 754 347 754 424 q 732 197 754 264 q 667 82 710 129 q 560 9 624 35 q 417 -17 497 -17 q 267 12 331 -17 q 161 89 203 40 q 99 204 119 138 q 79 347 79 271 m 194 347 q 206 250 194 299 q 244 163 218 201 q 313 100 271 124 q 417 76 356 76 q 584 145 528 76 q 640 347 640 214 q 628 445 640 397 q 590 532 617 493 q 520 594 563 571 q 417 618 478 618 q 250 550 306 618 q 194 347 194 482 m 399 1017 l 450 1017 l 638 764 l 529 764 l 417 915 l 297 764 l 200 764 l 399 1017 z "},"õ":{"ha":833,"x_min":79,"x_max":754,"o":"m 79 347 q 167 613 79 515 q 417 711 254 711 q 567 683 504 711 q 672 606 631 654 q 734 490 714 557 q 754 347 754 424 q 732 197 754 264 q 667 82 710 129 q 560 9 624 35 q 417 -17 497 -17 q 267 12 331 -17 q 161 89 203 40 q 99 204 119 138 q 79 347 79 271 m 194 347 q 206 250 194 299 q 244 163 218 201 q 313 100 271 124 q 417 76 356 76 q 584 145 528 76 q 640 347 640 214 q 628 445 640 397 q 590 532 617 493 q 520 594 563 571 q 417 618 478 618 q 250 550 306 618 q 194 347 194 482 m 204 908 q 288 973 244 954 q 358 992 331 992 q 402 983 382 992 q 441 963 422 974 q 477 944 460 953 q 514 936 494 936 q 578 969 544 936 l 626 908 q 559 853 590 868 q 490 840 528 839 q 449 849 468 840 q 410 869 429 858 q 373 888 392 879 q 335 896 354 896 q 298 886 317 896 q 256 853 279 876 l 204 908 z "},"ö":{"ha":833,"x_min":79,"x_max":754,"o":"m 79 347 q 167 613 79 515 q 417 711 254 711 q 567 683 504 711 q 672 606 631 654 q 734 490 714 557 q 754 347 754 424 q 732 197 754 264 q 667 82 710 129 q 560 9 624 35 q 417 -17 497 -17 q 267 12 331 -17 q 161 89 203 40 q 99 204 119 138 q 79 347 79 271 m 194 347 q 206 250 194 299 q 244 163 218 201 q 313 100 271 124 q 417 76 356 76 q 584 145 528 76 q 640 347 640 214 q 628 445 640 397 q 590 532 617 493 q 520 594 563 571 q 417 618 478 618 q 250 550 306 618 q 194 347 194 482 m 181 896 q 202 955 181 932 q 260 978 224 978 q 317 955 294 978 q 339 896 339 932 q 317 840 339 863 q 260 817 294 817 q 202 840 224 817 q 181 896 181 863 m 490 896 q 512 955 490 932 q 568 978 533 978 q 627 955 604 978 q 650 896 650 932 q 627 840 650 863 q 568 817 604 817 q 512 840 533 817 q 490 896 490 863 z "},"÷":{"ha":833,"x_min":94,"x_max":739,"o":"m 94 519 l 739 519 l 739 419 l 94 419 l 94 519 m 325 742 q 350 810 325 786 q 417 835 375 835 q 486 810 461 835 q 511 742 511 786 q 486 675 511 701 q 417 649 461 649 q 350 675 375 649 q 325 742 325 701 m 325 221 q 350 290 325 265 q 417 314 375 314 q 486 290 461 314 q 511 221 511 265 q 486 154 511 181 q 417 128 461 128 q 350 154 375 128 q 325 221 325 181 z "},"ø":{"ha":833,"x_min":79,"x_max":754,"o":"m 79 347 q 167 613 79 515 q 417 711 254 711 q 567 682 504 711 q 588 672 578 678 l 619 715 l 694 664 l 661 618 l 672 606 q 734 490 714 557 q 754 347 754 424 q 732 197 754 264 q 667 82 710 129 q 560 9 624 35 q 417 -17 497 -17 q 267 11 331 -17 q 236 26 251 18 l 203 -21 l 131 31 l 167 82 q 161 89 164 85 q 99 204 119 138 q 79 347 79 271 m 313 100 q 417 76 356 76 q 584 145 528 76 q 640 347 640 214 q 628 444 640 397 q 594 525 618 489 l 296 110 l 313 100 m 194 347 q 206 250 194 299 q 235 176 215 210 l 529 589 q 519 594 525 592 q 417 618 478 618 q 250 550 306 618 q 194 347 194 482 z "},"ù":{"ha":833,"x_min":35,"x_max":803,"o":"m 504 694 l 701 694 l 701 221 q 710 90 701 153 l 803 90 l 803 0 l 618 0 l 614 118 l 608 118 q 513 21 572 58 q 368 -17 453 -17 q 259 -2 304 -17 q 185 49 214 13 q 142 145 156 85 q 128 296 128 206 l 128 601 l 35 601 l 35 694 l 236 694 l 236 318 q 241 216 236 261 q 261 140 246 171 q 306 92 276 108 q 386 76 336 76 q 512 124 458 76 q 593 242 565 171 l 593 601 l 504 601 l 504 694 m 447 793 l 371 793 l 206 1000 l 357 1000 l 447 793 z "},"ú":{"ha":833,"x_min":35,"x_max":803,"o":"m 504 694 l 701 694 l 701 221 q 710 90 701 153 l 803 90 l 803 0 l 618 0 l 614 118 l 608 118 q 513 21 572 58 q 368 -17 453 -17 q 259 -2 304 -17 q 185 49 214 13 q 142 145 156 85 q 128 296 128 206 l 128 601 l 35 601 l 35 694 l 236 694 l 236 318 q 241 216 236 261 q 261 140 246 171 q 306 92 276 108 q 386 76 336 76 q 512 124 458 76 q 593 242 565 171 l 593 601 l 504 601 l 504 694 m 394 1000 l 546 1000 l 381 793 l 304 793 l 394 1000 z "},"û":{"ha":833,"x_min":35,"x_max":803,"o":"m 504 694 l 701 694 l 701 221 q 710 90 701 153 l 803 90 l 803 0 l 618 0 l 614 118 l 608 118 q 513 21 572 58 q 368 -17 453 -17 q 259 -2 304 -17 q 185 49 214 13 q 142 145 156 85 q 128 296 128 206 l 128 601 l 35 601 l 35 694 l 236 694 l 236 318 q 241 216 236 261 q 261 140 246 171 q 306 92 276 108 q 386 76 336 76 q 512 124 458 76 q 593 242 565 171 l 593 601 l 504 601 l 504 694 m 390 1017 l 442 1017 l 629 764 l 521 764 l 408 915 l 289 764 l 192 764 l 390 1017 z "},"ü":{"ha":833,"x_min":35,"x_max":803,"o":"m 504 694 l 701 694 l 701 221 q 710 90 701 153 l 803 90 l 803 0 l 618 0 l 614 118 l 608 118 q 513 21 572 58 q 368 -17 453 -17 q 259 -2 304 -17 q 185 49 214 13 q 142 145 156 85 q 128 296 128 206 l 128 601 l 35 601 l 35 694 l 236 694 l 236 318 q 241 216 236 261 q 261 140 246 171 q 306 92 276 108 q 386 76 336 76 q 512 124 458 76 q 593 242 565 171 l 593 601 l 504 601 l 504 694 m 174 896 q 195 955 174 932 q 253 978 217 978 q 310 955 288 978 q 332 896 332 932 q 310 840 332 863 q 253 817 288 817 q 195 840 217 817 q 174 896 174 863 m 483 896 q 505 955 483 932 q 561 978 526 978 q 620 955 597 978 q 643 896 643 932 q 620 840 643 863 q 561 817 597 817 q 505 840 526 817 q 483 896 483 863 z "},"ý":{"ha":833,"x_min":64,"x_max":769,"o":"m 432 107 l 485 107 l 657 694 l 769 694 l 576 71 q 545 -40 561 22 q 500 -156 529 -101 q 421 -247 471 -210 q 290 -285 371 -285 q 252 -281 272 -285 q 213 -270 232 -276 q 176 -256 193 -264 q 151 -239 160 -247 l 190 -139 q 213 -153 199 -146 q 245 -165 228 -160 q 279 -173 263 -169 q 307 -176 296 -176 q 449 0 411 -176 l 356 0 l 64 694 l 189 694 l 432 107 m 469 1000 l 621 1000 l 456 793 l 379 793 l 469 1000 z "},"þ":{"ha":833,"x_min":29,"x_max":769,"o":"m 133 882 l 29 882 l 29 972 l 240 972 l 240 597 q 330 676 272 642 q 471 711 388 711 q 694 629 619 711 q 769 361 769 547 q 744 203 769 274 q 671 85 718 133 q 557 10 624 36 q 410 -17 490 -17 q 358 -15 381 -17 q 316 -9 335 -12 q 279 0 297 -6 q 240 14 261 6 l 240 -278 l 133 -278 l 133 882 m 453 610 q 374 594 411 610 q 309 554 338 579 q 263 499 281 529 q 240 438 244 468 l 240 121 q 309 88 271 100 q 410 76 347 76 q 588 149 521 76 q 654 363 654 222 q 608 545 654 481 q 453 610 561 610 z "},"ÿ":{"ha":833,"x_min":64,"x_max":769,"o":"m 432 107 l 485 107 l 657 694 l 769 694 l 576 71 q 545 -40 561 22 q 500 -156 529 -101 q 421 -247 471 -210 q 290 -285 371 -285 q 252 -281 272 -285 q 213 -270 232 -276 q 176 -256 193 -264 q 151 -239 160 -247 l 190 -139 q 213 -153 199 -146 q 245 -165 228 -160 q 279 -173 263 -169 q 307 -176 296 -176 q 449 0 411 -176 l 356 0 l 64 694 l 189 694 l 432 107 m 194 896 q 216 955 194 932 q 274 978 238 978 q 331 955 308 978 q 353 896 353 932 q 331 840 353 863 q 274 817 308 817 q 216 840 238 817 q 194 896 194 863 m 504 896 q 526 955 504 932 q 582 978 547 978 q 641 955 618 978 q 664 896 664 932 q 641 840 664 863 q 582 817 618 817 q 526 840 547 817 q 504 896 504 863 z "},"Ā":{"ha":833,"x_min":22,"x_max":811,"o":"m 599 269 l 225 269 l 136 0 l 22 0 l 347 972 l 483 972 l 811 0 l 690 0 l 599 269 m 261 369 l 567 369 l 424 826 l 407 826 l 261 369 m 196 1171 l 635 1171 l 635 1085 l 196 1085 l 196 1171 z "},"ā":{"ha":833,"x_min":104,"x_max":757,"o":"m 150 640 q 285 690 210 675 q 432 706 360 706 q 548 683 503 706 q 619 626 593 661 q 653 545 644 590 q 663 454 663 500 q 660 342 663 401 q 656 222 657 282 q 664 90 656 153 l 757 90 l 757 0 l 572 0 l 560 104 l 553 104 q 528 72 544 92 q 484 34 511 53 q 418 1 457 15 q 326 -12 379 -12 q 164 40 224 -12 q 104 185 104 93 q 135 303 104 256 q 225 375 167 350 q 366 404 283 400 q 551 393 449 408 q 553 499 558 457 q 531 567 549 542 q 483 602 514 592 q 406 613 451 613 q 286 595 343 613 q 185 560 229 578 l 150 640 m 354 81 q 426 93 393 81 q 485 125 460 106 q 526 167 510 144 q 551 211 543 190 l 551 308 q 418 321 479 321 q 313 308 357 321 q 243 267 268 294 q 218 194 218 239 q 249 115 218 149 q 354 81 281 81 m 231 893 l 642 893 l 642 807 l 231 807 l 231 893 z "},"Ă":{"ha":833,"x_min":22,"x_max":811,"o":"m 599 269 l 225 269 l 136 0 l 22 0 l 347 972 l 483 972 l 811 0 l 690 0 l 599 269 m 261 369 l 567 369 l 424 826 l 407 826 l 261 369 m 238 1210 q 310 1137 261 1163 q 424 1111 358 1111 q 536 1140 490 1111 q 601 1210 582 1169 l 667 1174 q 569 1054 636 1094 q 422 1014 501 1014 q 347 1022 385 1014 q 275 1049 310 1031 q 213 1096 240 1067 q 167 1167 185 1125 l 238 1210 z "},"ă":{"ha":833,"x_min":104,"x_max":757,"o":"m 150 640 q 285 690 210 675 q 432 706 360 706 q 548 683 503 706 q 619 626 593 661 q 653 545 644 590 q 663 454 663 500 q 660 342 663 401 q 656 222 657 282 q 664 90 656 153 l 757 90 l 757 0 l 572 0 l 560 104 l 553 104 q 528 72 544 92 q 484 34 511 53 q 418 1 457 15 q 326 -12 379 -12 q 164 40 224 -12 q 104 185 104 93 q 135 303 104 256 q 225 375 167 350 q 366 404 283 400 q 551 393 449 408 q 553 499 558 457 q 531 567 549 542 q 483 602 514 592 q 406 613 451 613 q 286 595 343 613 q 185 560 229 578 l 150 640 m 354 81 q 426 93 393 81 q 485 125 460 106 q 526 167 510 144 q 551 211 543 190 l 551 308 q 418 321 479 321 q 313 308 357 321 q 243 267 268 294 q 218 194 218 239 q 249 115 218 149 q 354 81 281 81 m 286 1000 q 353 922 311 950 q 442 893 394 893 q 527 921 489 893 q 589 1000 565 949 l 647 975 q 626 909 643 942 q 581 851 608 876 q 518 811 554 826 q 440 796 482 796 q 367 808 401 796 q 303 842 332 819 q 254 897 275 865 q 224 968 233 928 l 286 1000 z "},"Ą":{"ha":833,"x_min":22,"x_max":836,"o":"m 599 269 l 225 269 l 136 0 l 22 0 l 347 972 l 483 972 l 811 0 l 771 0 q 722 -42 742 -18 q 694 -121 694 -76 q 713 -170 694 -149 q 765 -192 731 -192 q 821 -178 792 -192 l 836 -237 q 781 -262 815 -254 q 717 -271 746 -271 q 617 -237 654 -271 q 579 -147 579 -204 q 617 -50 579 -90 q 689 1 646 -19 l 599 269 m 261 369 l 567 369 l 424 826 l 407 826 l 261 369 z "},"ą":{"ha":833,"x_min":104,"x_max":793,"o":"m 150 640 q 285 690 210 675 q 432 706 360 706 q 548 683 503 706 q 619 626 593 661 q 653 545 644 590 q 663 454 663 500 q 660 342 663 401 q 656 222 657 282 q 664 90 656 153 l 757 90 l 757 0 l 728 0 q 679 -42 699 -18 q 651 -121 651 -76 q 669 -170 651 -149 q 722 -192 688 -192 q 778 -178 749 -192 l 793 -237 q 738 -262 772 -254 q 674 -271 703 -271 q 574 -237 611 -271 q 536 -147 536 -204 q 574 -50 536 -90 q 644 0 601 -21 l 572 0 l 560 104 l 553 104 q 528 72 544 92 q 484 34 511 53 q 418 1 457 15 q 326 -12 379 -12 q 164 40 224 -12 q 104 185 104 93 q 135 303 104 256 q 225 375 167 350 q 366 404 283 400 q 551 393 449 408 q 553 499 558 457 q 531 567 549 542 q 483 602 514 592 q 406 613 451 613 q 286 595 343 613 q 185 560 229 578 l 150 640 m 354 81 q 426 93 393 81 q 485 125 460 106 q 526 167 510 144 q 551 211 543 190 l 551 308 q 418 321 479 321 q 313 308 357 321 q 243 267 268 294 q 218 194 218 239 q 249 115 218 149 q 354 81 281 81 z "},"Ć":{"ha":833,"x_min":90,"x_max":756,"o":"m 636 867 q 584 881 613 876 q 515 886 556 886 q 403 865 458 886 q 306 797 349 844 q 238 674 264 750 q 213 486 213 597 q 235 311 213 386 q 299 186 258 236 q 398 111 340 136 q 526 86 456 86 q 594 92 563 86 q 651 110 625 99 l 651 249 l 754 249 l 754 61 l 756 58 q 650 5 714 26 q 494 -17 586 -17 q 333 13 407 -17 q 204 104 258 43 q 120 260 150 165 q 90 486 90 356 q 124 717 90 622 q 214 873 157 813 q 347 961 271 933 q 508 989 422 989 q 590 985 556 989 q 651 976 625 982 q 698 960 678 969 q 738 938 718 950 l 739 938 l 739 718 l 636 718 l 636 867 m 571 1208 l 729 1208 l 729 1179 l 503 1044 l 407 1044 l 571 1208 z "},"ć":{"ha":833,"x_min":83,"x_max":751,"o":"m 610 588 q 541 606 578 599 q 468 614 504 614 q 265 550 332 614 q 199 347 199 486 q 218 238 199 286 q 274 157 238 190 q 360 106 310 124 q 472 88 411 88 q 599 110 538 88 q 703 168 661 132 l 751 88 q 703 53 732 71 q 635 19 674 35 q 551 -7 597 3 q 450 -17 504 -17 q 291 9 360 -17 q 176 83 222 35 q 107 198 131 131 q 83 347 83 265 q 108 503 83 435 q 178 617 132 571 q 289 687 224 663 q 435 711 354 711 q 602 693 538 711 q 711 653 667 675 l 710 649 l 710 456 l 610 456 l 610 588 m 469 1000 l 621 1000 l 456 793 l 379 793 l 469 1000 z "},"Ĉ":{"ha":833,"x_min":90,"x_max":756,"o":"m 636 867 q 584 881 613 876 q 515 886 556 886 q 403 865 458 886 q 306 797 349 844 q 238 674 264 750 q 213 486 213 597 q 235 311 213 386 q 299 186 258 236 q 398 111 340 136 q 526 86 456 86 q 594 92 563 86 q 651 110 625 99 l 651 249 l 754 249 l 754 61 l 756 58 q 650 5 714 26 q 494 -17 586 -17 q 333 13 407 -17 q 204 104 258 43 q 120 260 150 165 q 90 486 90 356 q 124 717 90 622 q 214 873 157 813 q 347 961 271 933 q 508 989 422 989 q 590 985 556 989 q 651 976 625 982 q 698 960 678 969 q 738 938 718 950 l 739 938 l 739 718 l 636 718 l 636 867 m 436 1210 l 519 1210 l 721 1039 l 583 1039 l 476 1129 l 361 1039 l 221 1039 l 436 1210 z "},"ĉ":{"ha":833,"x_min":83,"x_max":751,"o":"m 610 588 q 541 606 578 599 q 468 614 504 614 q 265 550 332 614 q 199 347 199 486 q 218 238 199 286 q 274 157 238 190 q 360 106 310 124 q 472 88 411 88 q 599 110 538 88 q 703 168 661 132 l 751 88 q 703 53 732 71 q 635 19 674 35 q 551 -7 597 3 q 450 -17 504 -17 q 291 9 360 -17 q 176 83 222 35 q 107 198 131 131 q 83 347 83 265 q 108 503 83 435 q 178 617 132 571 q 289 687 224 663 q 435 711 354 711 q 602 693 538 711 q 711 653 667 675 l 710 649 l 710 456 l 610 456 l 610 588 m 385 1017 l 436 1017 l 624 764 l 515 764 l 403 915 l 283 764 l 186 764 l 385 1017 z "},"Č":{"ha":833,"x_min":90,"x_max":756,"o":"m 636 867 q 584 881 613 876 q 515 886 556 886 q 403 865 458 886 q 306 797 349 844 q 238 674 264 750 q 213 486 213 597 q 235 311 213 386 q 299 186 258 236 q 398 111 340 136 q 526 86 456 86 q 594 92 563 86 q 651 110 625 99 l 651 249 l 754 249 l 754 61 l 756 58 q 650 5 714 26 q 494 -17 586 -17 q 333 13 407 -17 q 204 104 258 43 q 120 260 150 165 q 90 486 90 356 q 124 717 90 622 q 214 873 157 813 q 347 961 271 933 q 508 989 422 989 q 590 985 556 989 q 651 976 625 982 q 698 960 678 969 q 738 938 718 950 l 739 938 l 739 718 l 636 718 l 636 867 m 522 1036 l 442 1036 l 235 1208 l 379 1208 l 486 1115 l 599 1208 l 728 1208 l 522 1036 z "},"č":{"ha":833,"x_min":83,"x_max":751,"o":"m 610 588 q 541 606 578 599 q 468 614 504 614 q 265 550 332 614 q 199 347 199 486 q 218 238 199 286 q 274 157 238 190 q 360 106 310 124 q 472 88 411 88 q 599 110 538 88 q 703 168 661 132 l 751 88 q 703 53 732 71 q 635 19 674 35 q 551 -7 597 3 q 450 -17 504 -17 q 291 9 360 -17 q 176 83 222 35 q 107 198 131 131 q 83 347 83 265 q 108 503 83 435 q 178 617 132 571 q 289 687 224 663 q 435 711 354 711 q 602 693 538 711 q 711 653 667 675 l 710 649 l 710 456 l 610 456 l 610 588 m 435 764 l 383 764 l 196 1017 l 304 1017 l 417 865 l 536 1017 l 633 1017 l 435 764 z "},"Ď":{"ha":833,"x_min":111,"x_max":767,"o":"m 111 972 q 222 981 164 979 q 319 983 279 983 q 531 947 446 983 q 669 847 617 911 q 744 692 721 782 q 767 493 767 601 q 746 303 767 394 q 674 142 725 213 q 535 30 622 72 q 318 -12 449 -12 q 271 -12 300 -12 q 211 -9 242 -11 q 153 -6 181 -7 q 111 -1 125 -4 l 111 972 m 325 881 q 276 879 306 881 q 226 874 246 878 l 226 96 q 247 94 233 94 q 274 92 260 93 q 301 91 288 92 q 322 90 314 90 q 487 124 424 90 q 585 213 550 157 q 632 342 619 269 q 644 493 644 415 q 633 630 644 561 q 588 754 622 699 q 491 845 554 810 q 325 881 428 881 m 419 1036 l 339 1036 l 132 1208 l 276 1208 l 383 1115 l 496 1208 l 625 1208 l 419 1036 z "},"ď":{"ha":833,"x_min":78,"x_max":935,"o":"m 485 972 l 710 972 l 710 238 q 711 206 710 225 q 715 167 713 188 q 719 126 717 146 q 725 90 722 106 l 818 90 l 818 0 l 633 0 l 619 107 l 614 107 q 523 19 583 54 q 383 -17 463 -17 q 152 72 226 -17 q 78 346 78 160 q 103 501 78 433 q 174 613 128 568 q 286 682 221 658 q 432 706 351 706 q 484 704 461 706 q 526 700 507 703 q 563 692 546 697 q 601 682 581 688 l 601 879 l 485 879 l 485 972 m 401 76 q 535 120 486 76 q 601 251 583 164 l 601 574 q 533 604 571 594 q 432 614 494 614 q 257 549 321 614 q 193 346 193 485 q 203 240 193 289 q 238 154 214 190 q 303 97 263 118 q 401 76 343 76 m 935 972 q 918 890 932 932 q 887 811 904 847 q 851 747 869 775 q 821 707 833 719 l 775 732 q 811 845 799 782 q 824 972 824 908 l 935 972 z "},"Đ":{"ha":833,"x_min":13,"x_max":808,"o":"m 13 544 l 138 544 l 138 972 q 258 981 190 979 q 383 983 325 983 q 581 947 500 983 q 713 847 663 911 q 786 692 764 782 q 808 493 808 601 q 788 303 808 394 q 716 142 767 213 q 581 30 665 72 q 369 -12 496 -12 q 314 -12 347 -12 q 246 -9 281 -11 q 181 -6 211 -7 q 138 -1 151 -4 l 138 461 l 13 461 l 13 544 m 386 881 q 311 879 350 881 q 253 874 272 878 l 253 544 l 443 544 l 443 461 l 253 461 l 253 96 q 276 94 260 94 q 312 92 293 93 q 348 91 331 92 q 372 90 365 90 q 531 124 469 90 q 627 213 593 157 q 674 342 661 269 q 686 493 686 415 q 675 630 686 561 q 631 754 664 699 q 540 845 599 810 q 386 881 482 881 z "},"đ":{"ha":833,"x_min":78,"x_max":818,"o":"m 818 90 l 818 0 l 633 0 l 619 107 l 614 107 q 523 19 583 54 q 383 -17 463 -17 q 152 72 226 -17 q 78 346 78 160 q 103 501 78 433 q 174 613 128 568 q 286 682 221 658 q 432 706 351 706 q 484 704 461 706 q 526 700 507 703 q 563 692 546 697 q 601 682 581 688 l 601 794 l 372 794 l 372 878 l 601 878 l 601 972 l 710 972 l 710 878 l 814 878 l 814 794 l 710 794 l 710 238 q 711 206 710 225 q 715 167 713 188 q 719 126 717 146 q 725 90 722 106 l 818 90 m 401 76 q 535 120 486 76 q 601 251 583 164 l 601 574 q 533 604 571 594 q 432 614 494 614 q 257 549 321 614 q 193 346 193 485 q 203 240 193 289 q 238 154 214 190 q 303 97 263 118 q 401 76 343 76 z "},"Ē":{"ha":833,"x_min":149,"x_max":726,"o":"m 149 972 l 719 972 l 719 869 l 264 869 l 264 551 l 685 551 l 685 449 l 264 449 l 264 103 l 726 103 l 726 0 l 149 0 l 149 972 m 210 1171 l 649 1171 l 649 1085 l 210 1085 l 210 1171 z "},"ē":{"ha":833,"x_min":88,"x_max":746,"o":"m 735 88 q 676 46 710 65 q 601 13 642 26 q 517 -9 561 -1 q 429 -17 474 -17 q 282 9 346 -17 q 175 83 218 35 q 110 197 132 131 q 88 347 88 264 q 112 503 88 435 q 182 617 136 571 q 293 687 228 663 q 439 711 358 711 q 554 696 497 711 q 655 638 611 681 q 722 522 699 596 q 739 329 746 447 l 201 329 q 269 142 201 204 q 449 81 336 81 q 523 90 486 81 q 593 111 560 99 q 652 139 626 124 q 692 167 678 154 l 735 88 m 442 619 q 355 610 396 619 q 283 577 314 600 q 231 517 251 554 q 206 426 211 481 l 638 426 q 578 569 631 518 q 442 619 526 619 m 226 893 l 638 893 l 638 807 l 226 807 l 226 893 z "},"Ė":{"ha":833,"x_min":149,"x_max":726,"o":"m 149 972 l 719 972 l 719 869 l 264 869 l 264 551 l 685 551 l 685 449 l 264 449 l 264 103 l 726 103 l 726 0 l 149 0 l 149 972 m 344 1104 q 369 1160 344 1136 q 439 1183 394 1183 q 510 1160 483 1183 q 536 1104 536 1136 q 510 1046 536 1069 q 439 1022 483 1022 q 369 1046 394 1022 q 344 1104 344 1069 z "},"ė":{"ha":833,"x_min":88,"x_max":746,"o":"m 735 88 q 676 46 710 65 q 601 13 642 26 q 517 -9 561 -1 q 429 -17 474 -17 q 282 9 346 -17 q 175 83 218 35 q 110 197 132 131 q 88 347 88 264 q 112 503 88 435 q 182 617 136 571 q 293 687 228 663 q 439 711 358 711 q 554 696 497 711 q 655 638 611 681 q 722 522 699 596 q 739 329 746 447 l 201 329 q 269 142 201 204 q 449 81 336 81 q 523 90 486 81 q 593 111 560 99 q 652 139 626 124 q 692 167 678 154 l 735 88 m 442 619 q 355 610 396 619 q 283 577 314 600 q 231 517 251 554 q 206 426 211 481 l 638 426 q 578 569 631 518 q 442 619 526 619 m 351 892 q 376 956 351 929 q 440 983 401 983 q 508 956 481 983 q 535 892 535 929 q 508 831 535 856 q 440 806 481 806 q 376 831 401 806 q 351 892 351 856 z "},"Ę":{"ha":833,"x_min":149,"x_max":764,"o":"m 149 972 l 719 972 l 719 869 l 264 869 l 264 551 l 685 551 l 685 449 l 264 449 l 264 103 l 726 103 l 726 0 l 699 0 q 650 -42 669 -18 q 622 -121 622 -76 q 640 -170 622 -149 q 693 -192 658 -192 q 749 -178 719 -192 l 764 -237 q 708 -262 743 -254 q 644 -271 674 -271 q 544 -237 582 -271 q 507 -147 507 -204 q 544 -50 507 -90 q 615 0 572 -21 l 149 0 l 149 972 z "},"ę":{"ha":833,"x_min":88,"x_max":746,"o":"m 735 88 q 676 46 710 65 q 601 13 642 26 q 581 6 590 8 q 522 -42 544 -14 q 494 -121 494 -76 q 513 -170 494 -149 q 565 -192 531 -192 q 621 -178 592 -192 l 636 -237 q 581 -262 615 -254 q 517 -271 546 -271 q 417 -237 454 -271 q 379 -147 379 -204 q 417 -50 379 -90 q 458 -15 435 -31 q 429 -17 443 -17 q 282 9 346 -17 q 175 83 218 35 q 110 197 132 131 q 88 347 88 264 q 112 503 88 435 q 182 617 136 571 q 293 687 228 663 q 439 711 358 711 q 554 696 497 711 q 655 638 611 681 q 722 522 699 596 q 739 329 746 447 l 201 329 q 269 142 201 204 q 449 81 336 81 q 523 90 486 81 q 593 111 560 99 q 652 139 626 124 q 692 167 678 154 l 735 88 m 442 619 q 355 610 396 619 q 283 577 314 600 q 231 517 251 554 q 206 426 211 481 l 638 426 q 578 569 631 518 q 442 619 526 619 z "},"Ě":{"ha":833,"x_min":149,"x_max":726,"o":"m 149 972 l 719 972 l 719 869 l 264 869 l 264 551 l 685 551 l 685 449 l 264 449 l 264 103 l 726 103 l 726 0 l 149 0 l 149 972 m 467 1036 l 386 1036 l 179 1208 l 324 1208 l 431 1115 l 543 1208 l 672 1208 l 467 1036 z "},"ě":{"ha":833,"x_min":88,"x_max":746,"o":"m 735 88 q 676 46 710 65 q 601 13 642 26 q 517 -9 561 -1 q 429 -17 474 -17 q 282 9 346 -17 q 175 83 218 35 q 110 197 132 131 q 88 347 88 264 q 112 503 88 435 q 182 617 136 571 q 293 687 228 663 q 439 711 358 711 q 554 696 497 711 q 655 638 611 681 q 722 522 699 596 q 739 329 746 447 l 201 329 q 269 142 201 204 q 449 81 336 81 q 523 90 486 81 q 593 111 560 99 q 652 139 626 124 q 692 167 678 154 l 735 88 m 442 619 q 355 610 396 619 q 283 577 314 600 q 231 517 251 554 q 206 426 211 481 l 638 426 q 578 569 631 518 q 442 619 526 619 m 451 764 l 400 764 l 213 1017 l 321 1017 l 433 865 l 553 1017 l 650 1017 l 451 764 z "},"Ĝ":{"ha":833,"x_min":74,"x_max":740,"o":"m 607 876 q 492 886 560 886 q 380 866 433 886 q 285 799 326 846 q 220 675 244 751 q 196 486 196 599 q 272 183 196 281 q 490 86 347 86 q 642 121 579 86 l 642 392 l 442 392 l 442 485 l 740 485 l 740 57 q 687 26 718 40 q 620 3 656 13 q 547 -12 585 -7 q 472 -17 508 -17 q 306 13 379 -17 q 181 105 232 43 q 101 262 129 167 q 74 486 74 357 q 108 717 74 621 q 200 873 143 813 q 331 961 257 933 q 482 989 404 989 q 619 980 565 989 q 711 956 674 971 l 710 950 l 710 718 l 607 718 l 607 876 m 428 1210 l 511 1210 l 713 1039 l 575 1039 l 468 1129 l 353 1039 l 213 1039 l 428 1210 z "},"ĝ":{"ha":833,"x_min":96,"x_max":728,"o":"m 728 -35 q 703 -149 728 -100 q 634 -231 678 -199 q 532 -278 590 -262 q 406 -294 474 -294 q 263 -278 324 -294 q 157 -235 201 -261 l 210 -136 q 242 -158 222 -147 q 289 -177 263 -168 q 345 -192 315 -186 q 404 -197 375 -197 q 506 -186 465 -197 q 572 -151 547 -175 q 608 -90 597 -128 q 619 1 619 -53 l 619 79 l 614 79 q 532 8 582 33 q 403 -17 482 -17 q 170 72 244 -17 q 96 346 96 160 q 190 615 96 524 q 471 706 285 706 q 617 694 557 706 q 728 664 678 682 l 728 -35 m 418 76 q 551 120 503 76 q 619 254 600 164 l 619 583 q 449 613 558 613 q 274 547 338 613 q 210 347 210 482 q 221 238 210 288 q 256 153 232 189 q 320 97 281 117 q 418 76 360 76 m 415 1017 l 467 1017 l 654 764 l 546 764 l 433 915 l 314 764 l 217 764 l 415 1017 z "},"Ğ":{"ha":833,"x_min":74,"x_max":740,"o":"m 607 876 q 492 886 560 886 q 380 866 433 886 q 285 799 326 846 q 220 675 244 751 q 196 486 196 599 q 272 183 196 281 q 490 86 347 86 q 642 121 579 86 l 642 392 l 442 392 l 442 485 l 740 485 l 740 57 q 687 26 718 40 q 620 3 656 13 q 547 -12 585 -7 q 472 -17 508 -17 q 306 13 379 -17 q 181 105 232 43 q 101 262 129 167 q 74 486 74 357 q 108 717 74 621 q 200 873 143 813 q 331 961 257 933 q 482 989 404 989 q 619 980 565 989 q 711 956 674 971 l 710 950 l 710 718 l 607 718 l 607 876 m 278 1210 q 350 1137 301 1163 q 464 1111 399 1111 q 576 1140 531 1111 q 642 1210 622 1169 l 707 1174 q 609 1054 676 1094 q 463 1014 542 1014 q 388 1022 425 1014 q 315 1049 350 1031 q 253 1096 281 1067 q 207 1167 225 1125 l 278 1210 z "},"ğ":{"ha":833,"x_min":96,"x_max":728,"o":"m 728 -35 q 703 -149 728 -100 q 634 -231 678 -199 q 532 -278 590 -262 q 406 -294 474 -294 q 263 -278 324 -294 q 157 -235 201 -261 l 210 -136 q 242 -158 222 -147 q 289 -177 263 -168 q 345 -192 315 -186 q 404 -197 375 -197 q 506 -186 465 -197 q 572 -151 547 -175 q 608 -90 597 -128 q 619 1 619 -53 l 619 79 l 614 79 q 532 8 582 33 q 403 -17 482 -17 q 170 72 244 -17 q 96 346 96 160 q 190 615 96 524 q 471 706 285 706 q 617 694 557 706 q 728 664 678 682 l 728 -35 m 418 76 q 551 120 503 76 q 619 254 600 164 l 619 583 q 449 613 558 613 q 274 547 338 613 q 210 347 210 482 q 221 238 210 288 q 256 153 232 189 q 320 97 281 117 q 418 76 360 76 m 282 1000 q 349 922 307 950 q 438 893 390 893 q 523 921 485 893 q 585 1000 561 949 l 643 975 q 622 909 639 942 q 577 851 604 876 q 514 811 550 826 q 436 796 478 796 q 363 808 397 796 q 299 842 328 819 q 250 897 271 865 q 219 968 229 928 l 282 1000 z "},"Ģ":{"ha":833,"x_min":74,"x_max":740,"o":"m 607 876 q 492 886 560 886 q 380 866 433 886 q 285 799 326 846 q 220 675 244 751 q 196 486 196 599 q 272 183 196 281 q 490 86 347 86 q 642 121 579 86 l 642 392 l 442 392 l 442 485 l 740 485 l 740 57 q 687 26 718 40 q 620 3 656 13 q 547 -12 585 -7 q 472 -17 508 -17 q 306 13 379 -17 q 181 105 232 43 q 101 262 129 167 q 74 486 74 357 q 108 717 74 621 q 200 873 143 813 q 331 961 257 933 q 482 989 404 989 q 619 980 565 989 q 711 956 674 971 l 710 950 l 710 718 l 607 718 l 607 876 m 390 -128 q 412 -81 390 -99 q 461 -62 433 -62 q 523 -87 496 -62 q 550 -167 550 -111 q 538 -230 550 -203 q 508 -277 525 -257 q 472 -309 490 -297 q 439 -326 453 -321 l 400 -282 q 444 -243 428 -267 q 461 -186 461 -219 q 447 -187 456 -187 q 406 -171 422 -187 q 390 -128 390 -154 z "},"ģ":{"ha":833,"x_min":96,"x_max":728,"o":"m 728 -35 q 703 -149 728 -100 q 634 -231 678 -199 q 532 -278 590 -262 q 406 -294 474 -294 q 263 -278 324 -294 q 157 -235 201 -261 l 210 -136 q 242 -158 222 -147 q 289 -177 263 -168 q 345 -192 315 -186 q 404 -197 375 -197 q 506 -186 465 -197 q 572 -151 547 -175 q 608 -90 597 -128 q 619 1 619 -53 l 619 79 l 614 79 q 532 8 582 33 q 403 -17 482 -17 q 170 72 244 -17 q 96 346 96 160 q 190 615 96 524 q 471 706 285 706 q 617 694 557 706 q 728 664 678 682 l 728 -35 m 418 76 q 551 120 503 76 q 619 254 600 164 l 619 583 q 449 613 558 613 q 274 547 338 613 q 210 347 210 482 q 221 238 210 288 q 256 153 232 189 q 320 97 281 117 q 418 76 360 76 m 519 832 q 498 785 519 803 q 449 767 476 767 q 387 791 414 767 q 360 871 360 815 q 372 934 360 907 q 402 981 385 961 q 438 1013 419 1001 q 471 1031 457 1025 l 510 986 q 465 947 482 971 q 449 890 449 924 q 463 892 454 892 q 503 875 488 892 q 519 832 519 858 z "},"Ĥ":{"ha":833,"x_min":83,"x_max":750,"o":"m 635 446 l 199 446 l 199 0 l 83 0 l 83 972 l 199 972 l 199 549 l 635 549 l 635 972 l 750 972 l 750 0 l 635 0 l 635 446 m 378 1210 l 461 1210 l 663 1039 l 525 1039 l 418 1129 l 303 1039 l 163 1039 l 378 1210 z "},"ĥ":{"ha":833,"x_min":-50,"x_max":729,"o":"m 6 972 l 222 972 l 222 608 l 229 608 q 329 684 272 657 q 471 711 386 711 q 587 697 538 711 q 667 649 636 683 q 714 553 699 614 q 729 400 729 493 l 729 0 l 621 0 l 621 379 q 614 483 621 439 q 587 558 607 528 q 532 603 567 588 q 443 618 497 618 q 369 605 406 618 q 303 569 333 592 q 252 513 274 546 q 222 442 231 481 l 222 0 l 115 0 l 115 879 l 6 879 l 6 972 m 165 1210 l 249 1210 l 450 1039 l 313 1039 l 206 1129 l 90 1039 l -50 1039 l 165 1210 z "},"Ħ":{"ha":833,"x_min":14,"x_max":819,"o":"m 14 815 l 124 815 l 124 972 l 239 972 l 239 815 l 594 815 l 594 972 l 710 972 l 710 815 l 819 815 l 819 726 l 710 726 l 710 0 l 594 0 l 594 446 l 239 446 l 239 0 l 124 0 l 124 726 l 14 726 l 14 815 m 594 549 l 594 726 l 239 726 l 239 549 l 594 549 z "},"ħ":{"ha":833,"x_min":4,"x_max":729,"o":"m 4 878 l 115 878 l 115 972 l 222 972 l 222 878 l 449 878 l 449 794 l 222 794 l 222 608 l 229 608 q 329 684 272 657 q 471 711 386 711 q 587 697 538 711 q 667 649 636 683 q 714 553 699 614 q 729 400 729 493 l 729 0 l 621 0 l 621 379 q 614 483 621 439 q 587 558 607 528 q 532 603 567 588 q 443 618 497 618 q 369 605 406 618 q 303 569 333 592 q 252 513 274 546 q 222 442 231 481 l 222 0 l 115 0 l 115 794 l 4 794 l 4 878 z "},"Ī":{"ha":833,"x_min":83,"x_max":750,"o":"m 83 972 l 750 972 l 750 869 l 474 869 l 474 103 l 750 103 l 750 0 l 83 0 l 83 103 l 358 103 l 358 869 l 83 869 l 83 972 m 197 1171 l 636 1171 l 636 1085 l 197 1085 l 197 1171 z "},"ī":{"ha":833,"x_min":146,"x_max":735,"o":"m 146 0 l 146 93 l 388 93 l 388 601 l 146 601 l 146 694 l 499 694 l 499 93 l 735 93 l 735 0 l 146 0 m 211 893 l 622 893 l 622 807 l 211 807 l 211 893 z "},"Į":{"ha":833,"x_min":83,"x_max":750,"o":"m 83 972 l 750 972 l 750 869 l 474 869 l 474 103 l 750 103 l 750 0 l 646 0 q 597 -42 617 -18 q 569 -121 569 -76 q 588 -170 569 -149 q 640 -192 606 -192 q 696 -178 667 -192 l 711 -237 q 656 -262 690 -254 q 592 -271 621 -271 q 492 -237 529 -271 q 454 -147 454 -204 q 492 -50 454 -90 q 563 0 519 -21 l 83 0 l 83 103 l 358 103 l 358 869 l 83 869 l 83 972 z "},"į":{"ha":833,"x_min":146,"x_max":735,"o":"m 146 0 l 146 93 l 388 93 l 388 601 l 146 601 l 146 694 l 499 694 l 499 93 l 735 93 l 735 0 l 632 0 q 583 -42 603 -18 q 556 -121 556 -76 q 574 -170 556 -149 q 626 -192 592 -192 q 682 -178 653 -192 l 697 -237 q 642 -262 676 -254 q 578 -271 607 -271 q 478 -237 515 -271 q 440 -147 440 -204 q 478 -50 440 -90 q 549 0 506 -21 l 146 0 m 350 892 q 375 956 350 929 q 439 983 400 983 q 506 956 479 983 q 533 892 533 929 q 506 831 533 856 q 439 806 479 806 q 375 831 400 806 q 350 892 350 856 z "},"İ":{"ha":833,"x_min":83,"x_max":750,"o":"m 83 972 l 750 972 l 750 869 l 474 869 l 474 103 l 750 103 l 750 0 l 83 0 l 83 103 l 358 103 l 358 869 l 83 869 l 83 972 m 322 1104 q 347 1160 322 1136 q 417 1183 372 1183 q 488 1160 461 1183 q 514 1104 514 1136 q 488 1046 514 1069 q 417 1022 461 1022 q 347 1046 372 1022 q 322 1104 322 1069 z "},"ı":{"ha":833,"x_min":146,"x_max":735,"o":"m 146 0 l 146 93 l 388 93 l 388 601 l 146 601 l 146 694 l 499 694 l 499 93 l 735 93 l 735 0 l 146 0 z "},"Ĵ":{"ha":833,"x_min":117,"x_max":685,"o":"m 135 972 l 685 972 l 685 344 q 601 78 685 169 q 361 -14 518 -14 q 282 -7 321 -14 q 210 12 243 0 q 152 38 176 24 q 117 64 128 51 l 167 156 q 201 135 182 146 q 242 113 219 124 q 294 96 265 103 q 358 89 322 89 q 516 154 463 89 q 569 365 569 219 l 569 869 l 135 869 l 135 972 m 392 1210 l 475 1210 l 676 1039 l 539 1039 l 432 1129 l 317 1039 l 176 1039 l 392 1210 z "},"ĵ":{"ha":833,"x_min":149,"x_max":644,"o":"m 533 601 l 197 601 l 197 694 l 644 694 l 644 -17 q 573 -226 644 -157 q 375 -294 501 -294 q 302 -285 338 -294 q 236 -262 267 -275 q 183 -235 206 -249 q 149 -212 160 -221 l 194 -122 q 280 -171 232 -150 q 379 -192 328 -192 q 498 -140 463 -192 q 533 4 533 -87 l 533 601 m 404 1017 l 456 1017 l 643 764 l 535 764 l 422 915 l 303 764 l 206 764 l 404 1017 z "},"Ķ":{"ha":833,"x_min":118,"x_max":826,"o":"m 340 450 l 233 450 l 233 0 l 118 0 l 118 972 l 233 972 l 233 539 l 338 539 l 650 972 l 783 972 l 440 510 l 826 0 l 681 0 l 340 450 m 324 -128 q 345 -81 324 -99 q 394 -62 367 -62 q 456 -87 429 -62 q 483 -167 483 -111 q 471 -230 483 -203 q 441 -277 458 -257 q 405 -309 424 -297 q 372 -326 386 -321 l 333 -282 q 378 -243 361 -267 q 394 -186 394 -219 q 381 -187 389 -187 q 340 -171 356 -187 q 324 -128 324 -154 z "},"ķ":{"ha":833,"x_min":33,"x_max":775,"o":"m 33 972 l 258 972 l 258 397 l 335 397 l 608 694 l 739 694 l 432 365 l 685 93 l 775 93 l 775 0 l 632 0 l 335 314 l 258 314 l 258 0 l 151 0 l 151 879 l 33 879 l 33 972 m 326 -128 q 348 -81 326 -99 q 397 -62 369 -62 q 459 -87 432 -62 q 486 -167 486 -111 q 474 -230 486 -203 q 444 -277 461 -257 q 408 -309 426 -297 q 375 -326 389 -321 l 336 -282 q 381 -243 364 -267 q 397 -186 397 -219 q 383 -187 392 -187 q 342 -171 358 -187 q 326 -128 326 -154 z "},"Ĺ":{"ha":833,"x_min":125,"x_max":736,"o":"m 125 972 l 240 972 l 240 103 l 633 103 l 633 344 l 736 344 l 736 0 l 125 0 l 125 972 m 383 1208 l 542 1208 l 542 1179 l 315 1044 l 219 1044 l 383 1208 z "},"ĺ":{"ha":833,"x_min":97,"x_max":643,"o":"m 97 972 l 328 972 l 328 233 q 356 114 328 149 q 440 79 385 79 q 519 94 479 79 q 593 138 560 110 l 643 64 q 594 29 621 44 q 540 3 568 14 q 485 -12 513 -7 q 433 -18 457 -18 q 342 -5 382 -18 q 274 38 301 8 q 233 115 247 67 q 219 233 219 163 l 219 879 l 97 879 l 97 972 m 400 1208 l 558 1208 l 558 1179 l 332 1044 l 236 1044 l 400 1208 z "},"Ļ":{"ha":833,"x_min":125,"x_max":736,"o":"m 125 972 l 240 972 l 240 103 l 633 103 l 633 344 l 736 344 l 736 0 l 125 0 l 125 972 m 329 -128 q 351 -81 329 -99 q 400 -62 372 -62 q 462 -87 435 -62 q 489 -167 489 -111 q 476 -230 489 -203 q 447 -277 464 -257 q 410 -309 429 -297 q 378 -326 392 -321 l 339 -282 q 383 -243 367 -267 q 400 -186 400 -219 q 386 -187 394 -187 q 345 -171 361 -187 q 329 -128 329 -154 z "},"ļ":{"ha":833,"x_min":97,"x_max":643,"o":"m 97 972 l 328 972 l 328 233 q 356 114 328 149 q 440 79 385 79 q 519 94 479 79 q 593 138 560 110 l 643 64 q 594 29 621 44 q 540 3 568 14 q 485 -12 513 -7 q 433 -18 457 -18 q 342 -5 382 -18 q 274 38 301 8 q 233 115 247 67 q 219 233 219 163 l 219 879 l 97 879 l 97 972 m 342 -128 q 363 -81 342 -99 q 413 -62 385 -62 q 474 -87 447 -62 q 501 -167 501 -111 q 489 -230 501 -203 q 459 -277 476 -257 q 423 -309 442 -297 q 390 -326 404 -321 l 351 -282 q 396 -243 379 -267 q 413 -186 413 -219 q 399 -187 407 -187 q 358 -171 374 -187 q 342 -128 342 -154 z "},"Ľ":{"ha":833,"x_min":125,"x_max":736,"o":"m 125 972 l 240 972 l 240 103 l 633 103 l 633 344 l 736 344 l 736 0 l 125 0 l 125 972 m 657 972 q 640 890 654 932 q 609 811 626 847 q 574 747 592 775 q 543 707 556 719 l 497 732 q 533 845 521 782 q 546 972 546 908 l 657 972 z "},"ľ":{"ha":833,"x_min":97,"x_max":643,"o":"m 97 972 l 328 972 l 328 233 q 356 114 328 149 q 440 79 385 79 q 519 94 479 79 q 593 138 560 110 l 643 64 q 594 29 621 44 q 540 3 568 14 q 485 -12 513 -7 q 433 -18 457 -18 q 342 -5 382 -18 q 274 38 301 8 q 233 115 247 67 q 219 233 219 163 l 219 879 l 97 879 l 97 972 m 583 972 q 567 890 581 932 q 535 811 553 847 q 500 747 518 775 q 469 707 482 719 l 424 732 q 460 845 447 782 q 472 972 472 908 l 583 972 z "},"Ł":{"ha":833,"x_min":25,"x_max":736,"o":"m 25 399 l 125 476 l 125 972 l 240 972 l 240 567 l 386 682 l 386 571 l 240 458 l 240 103 l 633 103 l 633 344 l 736 344 l 736 0 l 125 0 l 125 369 l 25 293 l 25 399 z "},"ł":{"ha":833,"x_min":82,"x_max":643,"o":"m 82 351 l 219 460 l 219 879 l 97 879 l 97 972 l 328 972 l 328 544 l 532 707 l 532 596 l 328 436 l 328 233 q 356 114 328 149 q 440 79 385 79 q 519 94 479 79 q 593 138 560 110 l 643 64 q 594 29 621 44 q 540 3 568 14 q 485 -12 513 -7 q 433 -18 457 -18 q 342 -5 382 -18 q 274 38 301 8 q 233 115 247 67 q 219 233 219 163 l 219 353 l 82 246 l 82 351 z "},"Ń":{"ha":833,"x_min":97,"x_max":736,"o":"m 272 608 l 197 749 l 192 749 l 206 608 l 206 0 l 97 0 l 97 972 l 172 972 l 564 367 l 636 233 l 643 233 l 628 367 l 628 972 l 736 972 l 736 0 l 661 0 l 272 608 m 514 1208 l 672 1208 l 672 1179 l 446 1044 l 350 1044 l 514 1208 z "},"ń":{"ha":833,"x_min":25,"x_max":729,"o":"m 129 451 q 128 484 129 464 q 126 526 128 504 q 123 568 125 547 q 118 604 121 589 l 25 604 l 25 694 l 211 694 l 224 582 l 231 582 q 267 628 244 606 q 321 670 290 651 q 389 700 351 689 q 468 711 426 711 q 581 697 532 711 q 663 648 631 683 q 713 552 696 613 q 729 399 729 492 l 729 0 l 621 0 l 621 378 q 583 551 621 493 q 447 610 546 610 q 377 595 411 610 q 315 557 343 581 q 267 502 288 533 q 236 436 246 471 l 236 0 l 129 0 l 129 451 m 433 1000 l 585 1000 l 419 793 l 343 793 l 433 1000 z "},"Ņ":{"ha":833,"x_min":97,"x_max":736,"o":"m 272 608 l 197 749 l 192 749 l 206 608 l 206 0 l 97 0 l 97 972 l 172 972 l 564 367 l 636 233 l 643 233 l 628 367 l 628 972 l 736 972 l 736 0 l 661 0 l 272 608 m 336 -128 q 358 -81 336 -99 q 407 -62 379 -62 q 469 -87 442 -62 q 496 -167 496 -111 q 483 -230 496 -203 q 453 -277 471 -257 q 417 -309 436 -297 q 385 -326 399 -321 l 346 -282 q 390 -243 374 -267 q 407 -186 407 -219 q 393 -187 401 -187 q 352 -171 368 -187 q 336 -128 336 -154 z "},"ņ":{"ha":833,"x_min":25,"x_max":729,"o":"m 129 451 q 128 484 129 464 q 126 526 128 504 q 123 568 125 547 q 118 604 121 589 l 25 604 l 25 694 l 211 694 l 224 582 l 231 582 q 267 628 244 606 q 321 670 290 651 q 389 700 351 689 q 468 711 426 711 q 581 697 532 711 q 663 648 631 683 q 713 552 696 613 q 729 399 729 492 l 729 0 l 621 0 l 621 378 q 583 551 621 493 q 447 610 546 610 q 377 595 411 610 q 315 557 343 581 q 267 502 288 533 q 236 436 246 471 l 236 0 l 129 0 l 129 451 m 350 -128 q 372 -81 350 -99 q 421 -62 393 -62 q 483 -87 456 -62 q 510 -167 510 -111 q 497 -230 510 -203 q 467 -277 485 -257 q 431 -309 450 -297 q 399 -326 413 -321 l 360 -282 q 404 -243 388 -267 q 421 -186 421 -219 q 407 -187 415 -187 q 366 -171 382 -187 q 350 -128 350 -154 z "},"Ň":{"ha":833,"x_min":97,"x_max":736,"o":"m 272 608 l 197 749 l 192 749 l 206 608 l 206 0 l 97 0 l 97 972 l 172 972 l 564 367 l 636 233 l 643 233 l 628 367 l 628 972 l 736 972 l 736 0 l 661 0 l 272 608 m 454 1036 l 374 1036 l 167 1208 l 311 1208 l 418 1115 l 531 1208 l 660 1208 l 454 1036 z "},"ň":{"ha":833,"x_min":25,"x_max":729,"o":"m 129 451 q 128 484 129 464 q 126 526 128 504 q 123 568 125 547 q 118 604 121 589 l 25 604 l 25 694 l 211 694 l 224 582 l 231 582 q 267 628 244 606 q 321 670 290 651 q 389 700 351 689 q 468 711 426 711 q 581 697 532 711 q 663 648 631 683 q 713 552 696 613 q 729 399 729 492 l 729 0 l 621 0 l 621 378 q 583 551 621 493 q 447 610 546 610 q 377 595 411 610 q 315 557 343 581 q 267 502 288 533 q 236 436 246 471 l 236 0 l 129 0 l 129 451 m 451 764 l 400 764 l 213 1017 l 321 1017 l 433 865 l 553 1017 l 650 1017 l 451 764 z "},"Ō":{"ha":833,"x_min":67,"x_max":767,"o":"m 67 486 q 152 858 67 728 q 415 989 238 989 q 580 953 513 989 q 689 851 647 917 q 749 692 731 785 q 767 486 767 600 q 681 114 767 244 q 415 -17 596 -17 q 253 19 319 -17 q 144 122 186 56 q 85 280 103 188 q 67 486 67 372 m 189 486 q 199 333 189 406 q 236 206 210 261 q 306 119 263 151 q 415 86 349 86 q 590 183 535 86 q 644 486 644 281 q 634 638 644 565 q 597 766 624 711 q 526 853 571 821 q 415 886 482 886 q 243 788 297 886 q 189 486 189 690 m 206 1171 l 644 1171 l 644 1085 l 206 1085 l 206 1171 z "},"ō":{"ha":833,"x_min":79,"x_max":754,"o":"m 79 347 q 167 613 79 515 q 417 711 254 711 q 567 683 504 711 q 672 606 631 654 q 734 490 714 557 q 754 347 754 424 q 732 197 754 264 q 667 82 710 129 q 560 9 624 35 q 417 -17 497 -17 q 267 12 331 -17 q 161 89 203 40 q 99 204 119 138 q 79 347 79 271 m 194 347 q 206 250 194 299 q 244 163 218 201 q 313 100 271 124 q 417 76 356 76 q 584 145 528 76 q 640 347 640 214 q 628 445 640 397 q 590 532 617 493 q 520 594 563 571 q 417 618 478 618 q 250 550 306 618 q 194 347 194 482 m 211 893 l 622 893 l 622 807 l 211 807 l 211 893 z "},"Ő":{"ha":833,"x_min":67,"x_max":767,"o":"m 67 486 q 152 858 67 728 q 415 989 238 989 q 580 953 513 989 q 689 851 647 917 q 749 692 731 785 q 767 486 767 600 q 681 114 767 244 q 415 -17 596 -17 q 253 19 319 -17 q 144 122 186 56 q 85 280 103 188 q 67 486 67 372 m 189 486 q 199 333 189 406 q 236 206 210 261 q 306 119 263 151 q 415 86 349 86 q 590 183 535 86 q 644 486 644 281 q 634 638 644 565 q 597 766 624 711 q 526 853 571 821 q 415 886 482 886 q 243 788 297 886 q 189 486 189 690 m 367 1181 l 496 1181 l 496 1158 l 357 1029 l 278 1029 l 367 1181 m 592 1181 l 729 1181 l 729 1158 l 531 1029 l 450 1029 l 592 1181 z "},"ő":{"ha":833,"x_min":79,"x_max":754,"o":"m 79 347 q 167 613 79 515 q 417 711 254 711 q 567 683 504 711 q 672 606 631 654 q 734 490 714 557 q 754 347 754 424 q 732 197 754 264 q 667 82 710 129 q 560 9 624 35 q 417 -17 497 -17 q 267 12 331 -17 q 161 89 203 40 q 99 204 119 138 q 79 347 79 271 m 194 347 q 206 250 194 299 q 244 163 218 201 q 313 100 271 124 q 417 76 356 76 q 584 145 528 76 q 640 347 640 214 q 628 445 640 397 q 590 532 617 493 q 520 594 563 571 q 417 618 478 618 q 250 550 306 618 q 194 347 194 482 m 338 1000 l 457 1000 l 347 793 l 289 793 l 338 1000 m 540 1000 l 683 1000 l 501 793 l 439 793 l 540 1000 z "},"Œ":{"ha":833,"x_min":39,"x_max":801,"o":"m 436 858 q 382 881 413 874 q 317 888 351 888 q 194 790 236 888 q 153 486 153 693 q 162 331 153 404 q 191 203 171 258 q 244 117 211 149 q 324 85 276 85 q 376 88 350 85 q 436 107 403 92 l 436 858 m 436 0 q 383 -12 414 -7 q 315 -17 351 -17 q 193 19 244 -17 q 107 119 142 54 q 56 278 72 185 q 39 486 39 371 q 111 860 39 732 q 315 989 183 989 q 383 984 356 989 q 436 972 410 979 l 797 972 l 797 868 l 547 868 l 547 551 l 774 551 l 774 447 l 547 447 l 547 104 l 801 104 l 801 0 l 436 0 z "},"œ":{"ha":833,"x_min":60,"x_max":772,"o":"m 161 347 q 167 244 161 293 q 187 158 174 194 q 222 99 200 121 q 274 76 243 76 q 353 143 329 76 q 378 347 378 210 q 373 451 378 401 q 356 538 368 500 q 324 597 344 575 q 274 618 304 618 q 190 552 219 618 q 161 347 161 486 m 431 97 q 366 10 406 36 q 272 -17 326 -17 q 114 74 168 -17 q 60 347 60 164 q 117 618 60 525 q 274 711 174 711 q 370 683 332 711 q 431 599 408 654 q 492 679 453 647 q 588 711 531 711 q 653 701 621 711 q 713 663 686 692 q 756 585 739 635 q 772 457 772 536 q 771 397 772 432 q 765 329 769 361 l 478 329 q 510 141 479 207 q 615 75 540 75 q 677 88 646 75 q 725 121 708 101 l 758 44 q 683 -1 731 14 q 590 -17 636 -17 q 491 15 532 -17 q 431 97 450 47 m 588 619 q 479 414 489 619 l 678 414 q 588 619 678 619 z "},"Ŕ":{"ha":833,"x_min":139,"x_max":792,"o":"m 139 963 q 260 978 192 972 q 386 983 329 983 q 508 969 450 983 q 609 924 565 956 q 679 840 653 892 q 706 715 706 789 q 687 615 706 658 q 641 540 668 571 q 585 489 614 508 q 535 461 556 469 l 792 0 l 657 0 l 428 428 l 254 428 l 254 0 l 139 0 l 139 963 m 389 883 q 351 883 371 883 q 314 882 332 883 q 280 879 296 881 q 254 875 264 878 l 254 517 l 363 517 q 521 564 458 517 q 583 711 583 611 q 532 835 583 786 q 389 883 481 883 m 465 1208 l 624 1208 l 624 1179 l 397 1044 l 301 1044 l 465 1208 z "},"ŕ":{"ha":833,"x_min":92,"x_max":772,"o":"m 92 0 l 92 93 l 279 93 l 279 601 l 92 601 l 92 694 l 351 694 l 374 604 l 381 604 q 486 678 428 647 q 625 708 544 708 q 701 690 672 708 q 745 638 729 672 q 767 553 761 603 q 772 442 772 504 l 675 440 q 658 571 675 529 q 594 613 640 613 q 517 600 551 613 q 456 569 482 588 q 413 533 431 551 q 386 503 394 515 l 386 93 l 653 93 l 653 0 l 92 0 m 465 1000 l 617 1000 l 451 793 l 375 793 l 465 1000 z "},"Ŗ":{"ha":833,"x_min":139,"x_max":792,"o":"m 139 963 q 260 978 192 972 q 386 983 329 983 q 508 969 450 983 q 609 924 565 956 q 679 840 653 892 q 706 715 706 789 q 687 615 706 658 q 641 540 668 571 q 585 489 614 508 q 535 461 556 469 l 792 0 l 657 0 l 428 428 l 254 428 l 254 0 l 139 0 l 139 963 m 389 883 q 351 883 371 883 q 314 882 332 883 q 280 879 296 881 q 254 875 264 878 l 254 517 l 363 517 q 521 564 458 517 q 583 711 583 611 q 532 835 583 786 q 389 883 481 883 m 353 -128 q 374 -81 353 -99 q 424 -62 396 -62 q 485 -87 458 -62 q 513 -167 513 -111 q 500 -230 513 -203 q 470 -277 488 -257 q 434 -309 453 -297 q 401 -326 415 -321 l 363 -282 q 407 -243 390 -267 q 424 -186 424 -219 q 410 -187 418 -187 q 369 -171 385 -187 q 353 -128 353 -154 z "},"ŗ":{"ha":833,"x_min":92,"x_max":772,"o":"m 92 0 l 92 93 l 279 93 l 279 601 l 92 601 l 92 694 l 351 694 l 374 604 l 381 604 q 486 678 428 647 q 625 708 544 708 q 701 690 672 708 q 745 638 729 672 q 767 553 761 603 q 772 442 772 504 l 675 440 q 658 571 675 529 q 594 613 640 613 q 517 600 551 613 q 456 569 482 588 q 413 533 431 551 q 386 503 394 515 l 386 93 l 653 93 l 653 0 l 92 0 m 319 -128 q 341 -81 319 -99 q 390 -62 363 -62 q 452 -87 425 -62 q 479 -167 479 -111 q 467 -230 479 -203 q 437 -277 454 -257 q 401 -309 419 -297 q 368 -326 382 -321 l 329 -282 q 374 -243 357 -267 q 390 -186 390 -219 q 376 -187 385 -187 q 335 -171 351 -187 q 319 -128 319 -154 z "},"Ř":{"ha":833,"x_min":119,"x_max":792,"o":"m 139 963 q 260 978 192 972 q 386 983 329 983 q 508 969 450 983 q 609 924 565 956 q 679 840 653 892 q 706 715 706 789 q 687 615 706 658 q 641 540 668 571 q 585 489 614 508 q 535 461 556 469 l 792 0 l 657 0 l 428 428 l 254 428 l 254 0 l 139 0 l 139 963 m 389 883 q 351 883 371 883 q 314 882 332 883 q 280 879 296 881 q 254 875 264 878 l 254 517 l 363 517 q 521 564 458 517 q 583 711 583 611 q 532 835 583 786 q 389 883 481 883 m 407 1036 l 326 1036 l 119 1208 l 264 1208 l 371 1115 l 483 1208 l 613 1208 l 407 1036 z "},"ř":{"ha":833,"x_min":92,"x_max":772,"o":"m 92 0 l 92 93 l 279 93 l 279 601 l 92 601 l 92 694 l 351 694 l 374 604 l 381 604 q 486 678 428 647 q 625 708 544 708 q 701 690 672 708 q 745 638 729 672 q 767 553 761 603 q 772 442 772 504 l 675 440 q 658 571 675 529 q 594 613 640 613 q 517 600 551 613 q 456 569 482 588 q 413 533 431 551 q 386 503 394 515 l 386 93 l 653 93 l 653 0 l 92 0 m 457 764 l 406 764 l 218 1017 l 326 1017 l 439 865 l 558 1017 l 656 1017 l 457 764 z "},"Ś":{"ha":833,"x_min":104,"x_max":743,"o":"m 208 138 q 302 101 250 115 q 407 86 354 86 q 493 95 453 86 q 563 124 533 104 q 610 175 593 144 q 628 247 628 206 q 590 340 628 304 q 494 404 551 376 q 371 458 438 432 q 247 521 304 485 q 152 609 190 557 q 114 742 114 661 q 137 844 114 799 q 201 922 160 890 q 302 972 243 954 q 433 989 361 989 q 585 977 517 989 q 693 946 653 965 l 696 947 l 696 944 l 697 944 l 696 940 l 696 718 l 593 718 l 593 867 q 517 881 558 875 q 428 886 475 886 q 345 875 382 886 q 283 845 308 864 q 243 801 257 826 q 229 749 229 776 q 267 658 229 694 q 363 594 306 622 q 486 538 419 565 q 610 473 553 510 q 705 385 667 436 q 743 257 743 333 q 720 144 743 194 q 655 58 697 94 q 551 3 613 22 q 411 -17 489 -17 q 311 -8 358 -17 q 224 13 264 0 q 153 39 185 25 q 104 63 122 53 l 106 67 l 106 292 l 208 292 l 208 138 m 522 1208 l 681 1208 l 681 1179 l 454 1044 l 358 1044 l 522 1208 z "},"ś":{"ha":833,"x_min":117,"x_max":717,"o":"m 608 188 q 574 256 608 232 q 488 295 539 281 q 376 322 436 310 q 264 356 315 335 q 178 412 213 376 q 143 511 143 447 q 166 601 143 564 q 226 663 189 639 q 314 699 264 688 q 418 711 364 711 q 585 687 515 711 q 697 636 656 663 l 653 549 q 553 597 607 574 q 419 619 500 619 q 359 613 389 619 q 305 594 329 607 q 266 562 281 582 q 251 513 251 542 q 286 457 251 476 q 372 424 321 438 q 484 399 424 411 q 596 365 544 388 q 682 306 647 343 q 717 204 717 268 q 641 46 717 108 q 414 -17 565 -17 q 324 -8 368 -17 q 240 14 279 0 q 169 45 201 28 q 117 81 138 63 l 172 171 q 217 137 189 154 q 278 106 244 119 q 349 83 311 92 q 426 75 388 75 q 497 81 464 75 q 554 101 529 88 q 594 135 579 114 q 608 188 608 157 m 422 1000 l 574 1000 l 408 793 l 332 793 l 422 1000 z "},"Ŝ":{"ha":833,"x_min":104,"x_max":743,"o":"m 208 138 q 302 101 250 115 q 407 86 354 86 q 493 95 453 86 q 563 124 533 104 q 610 175 593 144 q 628 247 628 206 q 590 340 628 304 q 494 404 551 376 q 371 458 438 432 q 247 521 304 485 q 152 609 190 557 q 114 742 114 661 q 137 844 114 799 q 201 922 160 890 q 302 972 243 954 q 433 989 361 989 q 585 977 517 989 q 693 946 653 965 l 696 947 l 696 944 l 697 944 l 696 940 l 696 718 l 593 718 l 593 867 q 517 881 558 875 q 428 886 475 886 q 345 875 382 886 q 283 845 308 864 q 243 801 257 826 q 229 749 229 776 q 267 658 229 694 q 363 594 306 622 q 486 538 419 565 q 610 473 553 510 q 705 385 667 436 q 743 257 743 333 q 720 144 743 194 q 655 58 697 94 q 551 3 613 22 q 411 -17 489 -17 q 311 -8 358 -17 q 224 13 264 0 q 153 39 185 25 q 104 63 122 53 l 106 67 l 106 292 l 208 292 l 208 138 m 392 1210 l 475 1210 l 676 1039 l 539 1039 l 432 1129 l 317 1039 l 176 1039 l 392 1210 z "},"ŝ":{"ha":833,"x_min":117,"x_max":717,"o":"m 608 188 q 574 256 608 232 q 488 295 539 281 q 376 322 436 310 q 264 356 315 335 q 178 412 213 376 q 143 511 143 447 q 166 601 143 564 q 226 663 189 639 q 314 699 264 688 q 418 711 364 711 q 585 687 515 711 q 697 636 656 663 l 653 549 q 553 597 607 574 q 419 619 500 619 q 359 613 389 619 q 305 594 329 607 q 266 562 281 582 q 251 513 251 542 q 286 457 251 476 q 372 424 321 438 q 484 399 424 411 q 596 365 544 388 q 682 306 647 343 q 717 204 717 268 q 641 46 717 108 q 414 -17 565 -17 q 324 -8 368 -17 q 240 14 279 0 q 169 45 201 28 q 117 81 138 63 l 172 171 q 217 137 189 154 q 278 106 244 119 q 349 83 311 92 q 426 75 388 75 q 497 81 464 75 q 554 101 529 88 q 594 135 579 114 q 608 188 608 157 m 403 1017 l 454 1017 l 642 764 l 533 764 l 421 915 l 301 764 l 204 764 l 403 1017 z "},"Ş":{"ha":833,"x_min":104,"x_max":743,"o":"m 208 138 q 302 101 250 115 q 407 86 354 86 q 493 95 453 86 q 563 124 533 104 q 610 175 593 144 q 628 247 628 206 q 590 340 628 304 q 494 404 551 376 q 371 458 438 432 q 247 521 304 485 q 152 609 190 557 q 114 742 114 661 q 137 844 114 799 q 201 922 160 890 q 302 972 243 954 q 433 989 361 989 q 585 977 517 989 q 693 946 653 965 l 696 947 l 696 944 l 697 944 l 696 940 l 696 718 l 593 718 l 593 867 q 517 881 558 875 q 428 886 475 886 q 345 875 382 886 q 283 845 308 864 q 243 801 257 826 q 229 749 229 776 q 267 658 229 694 q 363 594 306 622 q 486 538 419 565 q 610 473 553 510 q 705 385 667 436 q 743 257 743 333 q 720 144 743 194 q 655 58 697 94 q 550 3 613 22 q 461 -14 510 -10 l 436 -60 q 520 -96 494 -71 q 546 -164 546 -121 q 501 -253 546 -218 q 376 -289 457 -289 q 346 -287 361 -289 q 314 -283 331 -286 l 326 -229 q 342 -231 335 -231 l 356 -231 q 403 -225 386 -231 q 430 -212 421 -219 q 441 -194 439 -204 q 443 -176 443 -185 q 324 -125 443 -137 l 382 -15 q 311 -8 344 -14 q 224 13 264 0 q 153 39 185 25 q 104 63 122 53 l 106 67 l 106 292 l 208 292 l 208 138 z "},"ş":{"ha":833,"x_min":117,"x_max":717,"o":"m 608 188 q 574 256 608 232 q 488 295 539 281 q 376 322 436 310 q 264 356 315 335 q 178 412 213 376 q 143 511 143 447 q 166 601 143 564 q 226 663 189 639 q 314 699 264 688 q 418 711 364 711 q 585 687 515 711 q 697 636 656 663 l 653 549 q 553 597 607 574 q 419 619 500 619 q 359 613 389 619 q 305 594 329 607 q 266 562 281 582 q 251 513 251 542 q 286 457 251 476 q 372 424 321 438 q 484 399 424 411 q 596 365 544 388 q 682 306 647 343 q 717 204 717 268 q 640 46 717 108 q 461 -15 578 -6 l 436 -60 q 520 -96 494 -71 q 546 -164 546 -121 q 501 -253 546 -218 q 376 -289 457 -289 q 346 -287 361 -289 q 314 -283 331 -286 l 326 -229 q 342 -231 335 -231 l 356 -231 q 403 -225 386 -231 q 430 -212 421 -219 q 441 -194 439 -204 q 443 -176 443 -185 q 324 -125 443 -137 l 382 -15 q 324 -8 353 -14 q 240 14 279 0 q 169 45 201 28 q 117 81 138 63 l 172 171 q 217 137 189 154 q 278 106 244 119 q 349 83 311 92 q 426 75 388 75 q 497 81 464 75 q 554 101 529 88 q 594 135 579 114 q 608 188 608 157 z "},"Š":{"ha":833,"x_min":104,"x_max":743,"o":"m 208 138 q 302 101 250 115 q 407 86 354 86 q 493 95 453 86 q 563 124 533 104 q 610 175 593 144 q 628 247 628 206 q 590 340 628 304 q 494 404 551 376 q 371 458 438 432 q 247 521 304 485 q 152 609 190 557 q 114 742 114 661 q 137 844 114 799 q 201 922 160 890 q 302 972 243 954 q 433 989 361 989 q 585 977 517 989 q 693 946 653 965 l 696 947 l 696 944 l 697 944 l 696 940 l 696 718 l 593 718 l 593 867 q 517 881 558 875 q 428 886 475 886 q 345 875 382 886 q 283 845 308 864 q 243 801 257 826 q 229 749 229 776 q 267 658 229 694 q 363 594 306 622 q 486 538 419 565 q 610 473 553 510 q 705 385 667 436 q 743 257 743 333 q 720 144 743 194 q 655 58 697 94 q 551 3 613 22 q 411 -17 489 -17 q 311 -8 358 -17 q 224 13 264 0 q 153 39 185 25 q 104 63 122 53 l 106 67 l 106 292 l 208 292 l 208 138 m 461 1036 l 381 1036 l 174 1208 l 318 1208 l 425 1115 l 538 1208 l 667 1208 l 461 1036 z "},"š":{"ha":833,"x_min":117,"x_max":717,"o":"m 608 188 q 574 256 608 232 q 488 295 539 281 q 376 322 436 310 q 264 356 315 335 q 178 412 213 376 q 143 511 143 447 q 166 601 143 564 q 226 663 189 639 q 314 699 264 688 q 418 711 364 711 q 585 687 515 711 q 697 636 656 663 l 653 549 q 553 597 607 574 q 419 619 500 619 q 359 613 389 619 q 305 594 329 607 q 266 562 281 582 q 251 513 251 542 q 286 457 251 476 q 372 424 321 438 q 484 399 424 411 q 596 365 544 388 q 682 306 647 343 q 717 204 717 268 q 641 46 717 108 q 414 -17 565 -17 q 324 -8 368 -17 q 240 14 279 0 q 169 45 201 28 q 117 81 138 63 l 172 171 q 217 137 189 154 q 278 106 244 119 q 349 83 311 92 q 426 75 388 75 q 497 81 464 75 q 554 101 529 88 q 594 135 579 114 q 608 188 608 157 m 440 764 l 389 764 l 201 1017 l 310 1017 l 422 865 l 542 1017 l 639 1017 l 440 764 z "},"Ţ":{"ha":833,"x_min":56,"x_max":778,"o":"m 456 0 l 422 -60 q 506 -96 481 -71 q 532 -164 532 -121 q 488 -253 532 -218 q 363 -289 443 -289 q 332 -287 347 -289 q 300 -283 317 -286 l 313 -229 q 328 -231 321 -231 l 342 -231 q 390 -225 372 -231 q 416 -212 407 -219 q 427 -194 425 -204 q 429 -176 429 -185 q 310 -125 429 -137 l 376 0 l 206 0 l 206 103 l 358 103 l 358 869 l 158 869 l 158 718 l 56 718 l 56 972 l 778 972 l 778 718 l 675 718 l 675 869 l 474 869 l 474 103 l 626 103 l 626 0 l 456 0 z "},"ţ":{"ha":833,"x_min":43,"x_max":736,"o":"m 43 694 l 208 694 l 208 832 l 317 863 l 317 694 l 688 694 l 688 601 l 317 601 l 317 274 q 366 124 317 172 q 507 75 415 75 q 616 99 569 75 q 700 150 663 122 l 736 68 q 620 6 688 29 q 482 -18 553 -18 l 472 -18 l 450 -60 q 534 -96 508 -71 q 560 -164 560 -121 q 515 -253 560 -218 q 390 -289 471 -289 q 360 -287 375 -289 q 328 -283 344 -286 l 340 -229 q 356 -231 349 -231 l 369 -231 q 417 -225 400 -231 q 444 -212 435 -219 q 455 -194 453 -204 q 457 -176 457 -185 q 338 -125 457 -137 l 400 -8 q 376 -1 388 -6 q 290 47 328 14 q 231 133 253 81 q 208 257 208 185 l 208 601 l 43 601 l 43 694 z "},"Ť":{"ha":833,"x_min":56,"x_max":778,"o":"m 56 972 l 778 972 l 778 718 l 675 718 l 675 869 l 474 869 l 474 103 l 626 103 l 626 0 l 206 0 l 206 103 l 358 103 l 358 869 l 158 869 l 158 718 l 56 718 l 56 972 m 453 1036 l 372 1036 l 165 1208 l 310 1208 l 417 1115 l 529 1208 l 658 1208 l 453 1036 z "},"ť":{"ha":833,"x_min":43,"x_max":736,"o":"m 43 694 l 208 694 l 208 832 l 317 863 l 317 694 l 688 694 l 688 601 l 317 601 l 317 274 q 366 124 317 172 q 507 75 415 75 q 616 99 569 75 q 700 150 663 122 l 736 68 q 620 6 688 29 q 482 -18 553 -18 q 377 -2 426 -18 q 290 47 328 14 q 231 133 253 81 q 208 257 208 185 l 208 601 l 43 601 l 43 694 m 608 992 q 592 909 606 951 q 560 831 578 867 q 525 767 543 794 q 494 726 507 739 l 449 751 q 485 865 472 801 q 497 992 497 928 l 608 992 z "},"Ū":{"ha":833,"x_min":83,"x_max":750,"o":"m 639 972 l 750 972 l 750 324 q 727 172 750 236 q 663 67 704 108 q 561 7 621 26 q 429 -12 501 -12 q 170 65 257 -12 q 83 301 83 143 l 83 972 l 199 972 l 199 356 q 213 231 199 282 q 256 149 228 181 q 328 104 285 118 q 431 90 372 90 q 591 152 543 90 q 639 356 639 214 l 639 972 m 200 1171 l 639 1171 l 639 1085 l 200 1085 l 200 1171 z "},"ū":{"ha":833,"x_min":35,"x_max":803,"o":"m 504 694 l 701 694 l 701 221 q 710 90 701 153 l 803 90 l 803 0 l 618 0 l 614 118 l 608 118 q 513 21 572 58 q 368 -17 453 -17 q 259 -2 304 -17 q 185 49 214 13 q 142 145 156 85 q 128 296 128 206 l 128 601 l 35 601 l 35 694 l 236 694 l 236 318 q 241 216 236 261 q 261 140 246 171 q 306 92 276 108 q 386 76 336 76 q 512 124 458 76 q 593 242 565 171 l 593 601 l 504 601 l 504 694 m 203 893 l 614 893 l 614 807 l 203 807 l 203 893 z "},"Ŭ":{"ha":833,"x_min":83,"x_max":750,"o":"m 639 972 l 750 972 l 750 324 q 727 172 750 236 q 663 67 704 108 q 561 7 621 26 q 429 -12 501 -12 q 170 65 257 -12 q 83 301 83 143 l 83 972 l 199 972 l 199 356 q 213 231 199 282 q 256 149 228 181 q 328 104 285 118 q 431 90 372 90 q 591 152 543 90 q 639 356 639 214 l 639 972 m 238 1210 q 310 1137 261 1163 q 424 1111 358 1111 q 536 1140 490 1111 q 601 1210 582 1169 l 667 1174 q 569 1054 636 1094 q 422 1014 501 1014 q 347 1022 385 1014 q 275 1049 310 1031 q 213 1096 240 1067 q 167 1167 185 1125 l 238 1210 z "},"ŭ":{"ha":833,"x_min":35,"x_max":803,"o":"m 504 694 l 701 694 l 701 221 q 710 90 701 153 l 803 90 l 803 0 l 618 0 l 614 118 l 608 118 q 513 21 572 58 q 368 -17 453 -17 q 259 -2 304 -17 q 185 49 214 13 q 142 145 156 85 q 128 296 128 206 l 128 601 l 35 601 l 35 694 l 236 694 l 236 318 q 241 216 236 261 q 261 140 246 171 q 306 92 276 108 q 386 76 336 76 q 512 124 458 76 q 593 242 565 171 l 593 601 l 504 601 l 504 694 m 258 1000 q 325 922 283 950 q 414 893 367 893 q 499 921 461 893 q 561 1000 538 949 l 619 975 q 598 909 615 942 q 553 851 581 876 q 490 811 526 826 q 413 796 454 796 q 339 808 374 796 q 276 842 304 819 q 226 897 247 865 q 196 968 206 928 l 258 1000 z "},"Ů":{"ha":833,"x_min":83,"x_max":750,"o":"m 639 972 l 750 972 l 750 324 q 727 172 750 236 q 663 67 704 108 q 561 7 621 26 q 429 -12 501 -12 q 170 65 257 -12 q 83 301 83 143 l 83 972 l 199 972 l 199 356 q 213 231 199 282 q 256 149 228 181 q 328 104 285 118 q 431 90 372 90 q 591 152 543 90 q 639 356 639 214 l 639 972 m 276 1067 q 311 1151 276 1118 q 422 1185 346 1185 q 531 1155 492 1185 q 569 1067 569 1125 q 533 984 569 1017 q 422 951 496 951 q 314 983 351 951 q 276 1067 276 1014 m 361 1067 q 376 1027 361 1043 q 422 1011 390 1011 q 469 1026 453 1011 q 485 1067 485 1042 q 469 1109 485 1093 q 422 1125 454 1125 q 376 1109 392 1125 q 361 1067 361 1093 z "},"ů":{"ha":833,"x_min":35,"x_max":803,"o":"m 504 694 l 701 694 l 701 221 q 710 90 701 153 l 803 90 l 803 0 l 618 0 l 614 118 l 608 118 q 513 21 572 58 q 368 -17 453 -17 q 259 -2 304 -17 q 185 49 214 13 q 142 145 156 85 q 128 296 128 206 l 128 601 l 35 601 l 35 694 l 236 694 l 236 318 q 241 216 236 261 q 261 140 246 171 q 306 92 276 108 q 386 76 336 76 q 512 124 458 76 q 593 242 565 171 l 593 601 l 504 601 l 504 694 m 272 893 q 309 985 272 951 q 407 1019 346 1019 q 504 989 465 1019 q 543 893 543 958 q 504 803 543 839 q 407 768 465 768 q 310 801 349 768 q 272 893 272 833 m 347 893 q 365 850 347 865 q 407 835 383 835 q 451 849 433 835 q 468 893 468 863 q 449 938 468 924 q 407 953 431 953 q 365 939 383 953 q 347 893 347 925 z "},"Ű":{"ha":833,"x_min":83,"x_max":750,"o":"m 639 972 l 750 972 l 750 324 q 727 172 750 236 q 663 67 704 108 q 561 7 621 26 q 429 -12 501 -12 q 170 65 257 -12 q 83 301 83 143 l 83 972 l 199 972 l 199 356 q 213 231 199 282 q 256 149 228 181 q 328 104 285 118 q 431 90 372 90 q 591 152 543 90 q 639 356 639 214 l 639 972 m 349 1181 l 478 1181 l 478 1158 l 339 1029 l 260 1029 l 349 1181 m 574 1181 l 711 1181 l 711 1158 l 513 1029 l 432 1029 l 574 1181 z "},"ű":{"ha":833,"x_min":35,"x_max":803,"o":"m 504 694 l 701 694 l 701 221 q 710 90 701 153 l 803 90 l 803 0 l 618 0 l 614 118 l 608 118 q 513 21 572 58 q 368 -17 453 -17 q 259 -2 304 -17 q 185 49 214 13 q 142 145 156 85 q 128 296 128 206 l 128 601 l 35 601 l 35 694 l 236 694 l 236 318 q 241 216 236 261 q 261 140 246 171 q 306 92 276 108 q 386 76 336 76 q 512 124 458 76 q 593 242 565 171 l 593 601 l 504 601 l 504 694 m 324 1000 l 443 1000 l 333 793 l 275 793 l 324 1000 m 526 1000 l 669 1000 l 488 793 l 425 793 l 526 1000 z "},"Ų":{"ha":833,"x_min":83,"x_max":750,"o":"m 639 972 l 750 972 l 750 324 q 727 172 750 236 q 663 67 704 108 q 561 7 621 26 q 500 -42 524 -14 q 472 -121 472 -76 q 490 -170 472 -149 q 543 -192 508 -192 q 599 -178 569 -192 l 614 -237 q 558 -262 593 -254 q 494 -271 524 -271 q 394 -237 432 -271 q 357 -147 357 -204 q 394 -50 357 -90 q 442 -12 414 -29 l 429 -12 q 170 65 257 -12 q 83 301 83 143 l 83 972 l 199 972 l 199 356 q 213 231 199 282 q 256 149 228 181 q 328 104 285 118 q 431 90 372 90 q 591 152 543 90 q 639 356 639 214 l 639 972 z "},"ų":{"ha":833,"x_min":35,"x_max":839,"o":"m 504 694 l 701 694 l 701 221 q 710 90 701 153 l 803 90 l 803 0 l 774 0 q 725 -42 744 -18 q 697 -121 697 -76 q 715 -170 697 -149 q 768 -192 733 -192 q 824 -178 794 -192 l 839 -237 q 783 -262 818 -254 q 719 -271 749 -271 q 619 -237 657 -271 q 582 -147 582 -204 q 619 -50 582 -90 q 690 0 647 -21 l 618 0 l 614 118 l 608 118 q 513 21 572 58 q 368 -17 453 -17 q 259 -2 304 -17 q 185 49 214 13 q 142 145 156 85 q 128 296 128 206 l 128 601 l 35 601 l 35 694 l 236 694 l 236 318 q 241 216 236 261 q 261 140 246 171 q 306 92 276 108 q 386 76 336 76 q 512 124 458 76 q 593 242 565 171 l 593 601 l 504 601 l 504 694 z "},"Ÿ":{"ha":833,"x_min":13,"x_max":821,"o":"m 360 372 l 13 972 l 147 972 l 425 492 l 426 492 l 697 972 l 821 972 l 475 374 l 475 0 l 360 0 l 360 372 m 178 1111 q 202 1163 178 1143 q 265 1183 226 1183 q 326 1163 301 1183 q 350 1111 350 1143 q 326 1060 350 1079 q 265 1040 301 1040 q 202 1060 226 1040 q 178 1111 178 1079 m 490 1111 q 514 1163 490 1143 q 574 1183 538 1183 q 638 1163 614 1183 q 661 1111 661 1143 q 638 1060 661 1079 q 574 1040 614 1040 q 514 1060 538 1040 q 490 1111 490 1079 z "},"Ź":{"ha":833,"x_min":76,"x_max":757,"o":"m 76 104 l 625 869 l 76 869 l 76 972 l 757 972 l 757 868 l 206 103 l 757 103 l 757 0 l 76 0 l 76 104 m 494 1208 l 653 1208 l 653 1179 l 426 1044 l 331 1044 l 494 1208 z "},"ź":{"ha":833,"x_min":117,"x_max":717,"o":"m 117 93 l 588 601 l 117 601 l 117 694 l 717 694 l 717 601 l 242 93 l 717 93 l 717 0 l 117 0 l 117 93 m 419 1000 l 571 1000 l 406 793 l 329 793 l 419 1000 z "},"Ż":{"ha":833,"x_min":76,"x_max":757,"o":"m 76 104 l 625 869 l 76 869 l 76 972 l 757 972 l 757 868 l 206 103 l 757 103 l 757 0 l 76 0 l 76 104 m 322 1104 q 347 1160 322 1136 q 417 1183 372 1183 q 488 1160 461 1183 q 514 1104 514 1136 q 488 1046 514 1069 q 417 1022 461 1022 q 347 1046 372 1022 q 322 1104 322 1069 z "},"ż":{"ha":833,"x_min":117,"x_max":717,"o":"m 117 93 l 588 601 l 117 601 l 117 694 l 717 694 l 717 601 l 242 93 l 717 93 l 717 0 l 117 0 l 117 93 m 339 892 q 364 956 339 929 q 428 983 389 983 q 495 956 468 983 q 522 892 522 929 q 495 831 522 856 q 428 806 468 806 q 364 831 389 806 q 339 892 339 856 z "},"Ž":{"ha":833,"x_min":76,"x_max":757,"o":"m 76 104 l 625 869 l 76 869 l 76 972 l 757 972 l 757 868 l 206 103 l 757 103 l 757 0 l 76 0 l 76 104 m 436 1036 l 356 1036 l 149 1208 l 293 1208 l 400 1115 l 513 1208 l 642 1208 l 436 1036 z "},"ž":{"ha":833,"x_min":117,"x_max":717,"o":"m 117 93 l 588 601 l 117 601 l 117 694 l 717 694 l 717 601 l 242 93 l 717 93 l 717 0 l 117 0 l 117 93 m 438 764 l 386 764 l 199 1017 l 307 1017 l 419 865 l 539 1017 l 636 1017 l 438 764 z "},"ſ":{"ha":833,"x_min":132,"x_max":771,"o":"m 132 694 l 296 694 l 296 733 q 363 922 296 864 q 551 981 429 981 q 672 966 614 981 q 771 926 729 951 l 731 835 q 653 867 694 851 q 547 883 611 883 q 443 846 479 883 q 407 735 407 808 l 407 0 l 296 0 l 296 597 l 132 597 l 132 694 z "},"ƒ":{"ha":833,"x_min":29,"x_max":803,"o":"m 515 597 l 406 -47 q 382 -142 397 -99 q 341 -219 367 -186 q 278 -270 315 -251 q 189 -289 240 -289 q 106 -279 149 -289 q 29 -256 63 -269 l 58 -165 q 119 -185 90 -179 q 181 -192 147 -192 q 260 -145 233 -192 q 306 11 288 -99 l 400 597 l 282 597 l 282 694 l 415 694 l 431 788 q 491 940 447 890 q 635 989 535 989 q 724 979 681 989 q 803 954 768 969 l 771 865 q 643 892 708 892 q 600 884 617 892 q 572 860 583 876 q 553 817 561 843 q 540 751 546 790 l 531 694 l 697 694 l 697 597 l 515 597 z "},"Ǵ":{"ha":833,"x_min":74,"x_max":740,"o":"m 607 876 q 492 886 560 886 q 380 866 433 886 q 285 799 326 846 q 220 675 244 751 q 196 486 196 599 q 272 183 196 281 q 490 86 347 86 q 642 121 579 86 l 642 392 l 442 392 l 442 485 l 740 485 l 740 57 q 687 26 718 40 q 620 3 656 13 q 547 -12 585 -7 q 472 -17 508 -17 q 306 13 379 -17 q 181 105 232 43 q 101 262 129 167 q 74 486 74 357 q 108 717 74 621 q 200 873 143 813 q 331 961 257 933 q 482 989 404 989 q 619 980 565 989 q 711 956 674 971 l 710 950 l 710 718 l 607 718 l 607 876 m 563 1208 l 721 1208 l 721 1179 l 494 1044 l 399 1044 l 563 1208 z "},"ǵ":{"ha":833,"x_min":96,"x_max":728,"o":"m 728 -35 q 703 -149 728 -100 q 634 -231 678 -199 q 532 -278 590 -262 q 406 -294 474 -294 q 263 -278 324 -294 q 157 -235 201 -261 l 210 -136 q 242 -158 222 -147 q 289 -177 263 -168 q 345 -192 315 -186 q 404 -197 375 -197 q 506 -186 465 -197 q 572 -151 547 -175 q 608 -90 597 -128 q 619 1 619 -53 l 619 79 l 614 79 q 532 8 582 33 q 403 -17 482 -17 q 170 72 244 -17 q 96 346 96 160 q 190 615 96 524 q 471 706 285 706 q 617 694 557 706 q 728 664 678 682 l 728 -35 m 418 76 q 551 120 503 76 q 619 254 600 164 l 619 583 q 449 613 558 613 q 274 547 338 613 q 210 347 210 482 q 221 238 210 288 q 256 153 232 189 q 320 97 281 117 q 418 76 360 76 m 475 1000 l 626 1000 l 461 793 l 385 793 l 475 1000 z "},"Ș":{"ha":833,"x_min":104,"x_max":743,"o":"m 208 138 q 302 101 250 115 q 407 86 354 86 q 493 95 453 86 q 563 124 533 104 q 610 175 593 144 q 628 247 628 206 q 590 340 628 304 q 494 404 551 376 q 371 458 438 432 q 247 521 304 485 q 152 609 190 557 q 114 742 114 661 q 137 844 114 799 q 201 922 160 890 q 302 972 243 954 q 433 989 361 989 q 585 977 517 989 q 693 946 653 965 l 696 947 l 696 944 l 697 944 l 696 940 l 696 718 l 593 718 l 593 867 q 517 881 558 875 q 428 886 475 886 q 345 875 382 886 q 283 845 308 864 q 243 801 257 826 q 229 749 229 776 q 267 658 229 694 q 363 594 306 622 q 486 538 419 565 q 610 473 553 510 q 705 385 667 436 q 743 257 743 333 q 720 144 743 194 q 655 58 697 94 q 551 3 613 22 q 411 -17 489 -17 q 311 -8 358 -17 q 224 13 264 0 q 153 39 185 25 q 104 63 122 53 l 106 67 l 106 292 l 208 292 l 208 138 m 325 -128 q 347 -81 325 -99 q 396 -62 368 -62 q 458 -87 431 -62 q 485 -167 485 -111 q 472 -230 485 -203 q 442 -277 460 -257 q 406 -309 425 -297 q 374 -326 388 -321 l 335 -282 q 379 -243 363 -267 q 396 -186 396 -219 q 382 -187 390 -187 q 341 -171 357 -187 q 325 -128 325 -154 z "},"ș":{"ha":833,"x_min":117,"x_max":717,"o":"m 608 188 q 574 256 608 232 q 488 295 539 281 q 376 322 436 310 q 264 356 315 335 q 178 412 213 376 q 143 511 143 447 q 166 601 143 564 q 226 663 189 639 q 314 699 264 688 q 418 711 364 711 q 585 687 515 711 q 697 636 656 663 l 653 549 q 553 597 607 574 q 419 619 500 619 q 359 613 389 619 q 305 594 329 607 q 266 562 281 582 q 251 513 251 542 q 286 457 251 476 q 372 424 321 438 q 484 399 424 411 q 596 365 544 388 q 682 306 647 343 q 717 204 717 268 q 641 46 717 108 q 414 -17 565 -17 q 324 -8 368 -17 q 240 14 279 0 q 169 45 201 28 q 117 81 138 63 l 172 171 q 217 137 189 154 q 278 106 244 119 q 349 83 311 92 q 426 75 388 75 q 497 81 464 75 q 554 101 529 88 q 594 135 579 114 q 608 188 608 157 m 342 -128 q 363 -81 342 -99 q 413 -62 385 -62 q 474 -87 447 -62 q 501 -167 501 -111 q 489 -230 501 -203 q 459 -277 476 -257 q 423 -309 442 -297 q 390 -326 404 -321 l 351 -282 q 396 -243 379 -267 q 413 -186 413 -219 q 399 -187 407 -187 q 358 -171 374 -187 q 342 -128 342 -154 z "},"Ț":{"ha":833,"x_min":56,"x_max":778,"o":"m 56 972 l 778 972 l 778 718 l 675 718 l 675 869 l 474 869 l 474 103 l 626 103 l 626 0 l 206 0 l 206 103 l 358 103 l 358 869 l 158 869 l 158 718 l 56 718 l 56 972 m 335 -128 q 356 -81 335 -99 q 406 -62 378 -62 q 467 -87 440 -62 q 494 -167 494 -111 q 482 -230 494 -203 q 452 -277 469 -257 q 416 -309 435 -297 q 383 -326 397 -321 l 344 -282 q 389 -243 372 -267 q 406 -186 406 -219 q 392 -187 400 -187 q 351 -171 367 -187 q 335 -128 335 -154 z "},"ț":{"ha":833,"x_min":43,"x_max":736,"o":"m 43 694 l 208 694 l 208 832 l 317 863 l 317 694 l 688 694 l 688 601 l 317 601 l 317 274 q 366 124 317 172 q 507 75 415 75 q 616 99 569 75 q 700 150 663 122 l 736 68 q 620 6 688 29 q 482 -18 553 -18 q 377 -2 426 -18 q 290 47 328 14 q 231 133 253 81 q 208 257 208 185 l 208 601 l 43 601 l 43 694 m 371 -128 q 392 -81 371 -99 q 442 -62 414 -62 q 503 -87 476 -62 q 531 -167 531 -111 q 518 -230 531 -203 q 488 -277 506 -257 q 452 -309 471 -297 q 419 -326 433 -321 l 381 -282 q 425 -243 408 -267 q 442 -186 442 -219 q 428 -187 436 -187 q 387 -171 403 -187 q 371 -128 371 -154 z "},"ȷ":{"ha":833,"x_min":82,"x_max":578,"o":"m 467 601 l 131 601 l 131 694 l 578 694 l 578 -17 q 506 -226 578 -157 q 308 -294 435 -294 q 235 -285 271 -294 q 169 -262 200 -275 q 116 -235 139 -249 q 82 -212 93 -221 l 128 -122 q 213 -171 165 -150 q 313 -192 261 -192 q 431 -140 396 -192 q 467 4 467 -87 l 467 601 z "},"ʼ":{"ha":833,"x_min":219,"x_max":413,"o":"m 219 943 q 244 1003 219 981 q 306 1025 269 1025 q 383 996 354 1025 q 413 908 413 967 q 397 812 413 853 q 358 743 381 771 q 310 699 335 715 q 265 676 285 683 l 224 733 q 291 783 263 753 q 319 861 319 814 q 303 860 314 860 q 245 883 271 860 q 219 943 219 907 z "},"ˆ":{"ha":833,"x_min":200,"x_max":638,"o":"m 399 1017 l 450 1017 l 638 764 l 529 764 l 417 915 l 297 764 l 200 764 l 399 1017 z "},"ˇ":{"ha":833,"x_min":197,"x_max":635,"o":"m 436 764 l 385 764 l 197 1017 l 306 1017 l 418 865 l 538 1017 l 635 1017 l 436 764 z "},"˘":{"ha":833,"x_min":204,"x_max":628,"o":"m 267 1000 q 333 922 292 950 q 422 893 375 893 q 508 921 469 893 q 569 1000 546 949 l 628 975 q 606 909 624 942 q 562 851 589 876 q 499 811 535 826 q 421 796 463 796 q 347 808 382 796 q 284 842 313 819 q 235 897 256 865 q 204 968 214 928 l 267 1000 z "},"˙":{"ha":833,"x_min":325,"x_max":508,"o":"m 325 892 q 350 956 325 929 q 414 983 375 983 q 481 956 454 983 q 508 892 508 929 q 481 831 508 856 q 414 806 454 806 q 350 831 375 806 q 325 892 325 856 z "},"˚":{"ha":833,"x_min":281,"x_max":551,"o":"m 281 893 q 317 985 281 951 q 415 1019 354 1019 q 513 989 474 1019 q 551 893 551 958 q 513 803 551 839 q 415 768 474 768 q 319 801 357 768 q 281 893 281 833 m 356 893 q 374 850 356 865 q 415 835 392 835 q 459 849 442 835 q 476 893 476 863 q 458 938 476 924 q 415 953 439 953 q 374 939 392 953 q 356 893 356 925 z "},"˛":{"ha":833,"x_min":288,"x_max":544,"o":"m 507 14 q 431 -42 458 -8 q 403 -121 403 -76 q 421 -170 403 -149 q 474 -192 439 -192 q 529 -178 500 -192 l 544 -237 q 489 -262 524 -254 q 425 -271 454 -271 q 325 -237 363 -271 q 288 -147 288 -204 q 326 -50 288 -90 q 431 14 364 -10 l 507 14 z "},"˜":{"ha":833,"x_min":203,"x_max":625,"o":"m 203 908 q 286 973 243 954 q 357 992 329 992 q 401 983 381 992 q 440 963 421 974 q 476 944 458 953 q 513 936 493 936 q 576 969 543 936 l 625 908 q 558 853 589 868 q 489 840 526 839 q 447 849 467 840 q 409 869 428 858 q 372 888 390 879 q 333 896 353 896 q 297 886 315 896 q 254 853 278 876 l 203 908 z "},"˝":{"ha":833,"x_min":231,"x_max":625,"o":"m 279 1000 l 399 1000 l 289 793 l 231 793 l 279 1000 m 482 1000 l 625 1000 l 443 793 l 381 793 l 482 1000 z "},"́":{"ha":833,"x_min":272,"x_max":514,"o":"m 363 1000 l 514 1000 l 349 793 l 272 793 l 363 1000 z "},"Δ":{"ha":833,"x_min":39,"x_max":794,"o":"m 39 0 l 39 51 l 392 988 l 439 988 l 794 51 l 794 0 l 39 0 m 167 100 l 660 100 l 410 754 l 408 754 l 167 100 z "},"Ω":{"ha":833,"x_min":35,"x_max":799,"o":"m 35 97 l 257 97 l 257 119 q 156 172 197 133 q 87 264 114 210 q 47 384 60 318 q 35 522 35 450 q 56 717 35 631 q 122 863 76 803 q 240 956 168 924 q 415 989 313 989 q 597 954 524 989 q 715 857 671 919 q 779 708 760 794 q 799 517 799 621 q 783 377 799 442 q 739 262 768 313 q 668 174 710 211 q 574 119 626 138 l 574 97 l 799 97 l 799 0 l 469 0 l 469 174 q 549 204 511 182 q 615 267 586 226 q 660 372 643 308 q 676 524 676 435 q 668 655 676 590 q 633 771 660 719 q 553 854 606 822 q 414 886 501 886 q 286 863 336 886 q 208 793 236 839 q 168 678 179 747 q 157 519 157 610 q 172 370 157 432 q 213 267 186 308 q 278 203 240 225 q 363 174 317 181 l 363 0 l 35 0 l 35 97 z "},"π":{"ha":833,"x_min":18,"x_max":814,"o":"m 682 161 q 694 107 682 122 q 726 92 707 92 q 758 94 740 92 q 788 100 775 97 l 814 25 q 759 5 792 15 q 685 -6 726 -6 q 593 35 615 -6 q 571 147 571 75 l 571 597 l 307 597 l 307 0 l 196 0 l 196 597 l 176 597 q 129 581 147 597 q 92 535 111 565 l 18 579 q 83 663 44 632 q 196 694 122 694 l 797 694 l 797 597 l 682 597 l 682 161 z "},"Ё":{"ha":833,"x_min":149,"x_max":726,"o":"m 149 972 l 719 972 l 719 869 l 264 869 l 264 551 l 685 551 l 685 449 l 264 449 l 264 103 l 726 103 l 726 0 l 149 0 l 149 972 m 190 1111 q 215 1163 190 1143 q 278 1183 239 1183 q 338 1163 314 1183 q 363 1111 363 1143 q 338 1060 363 1079 q 278 1040 314 1040 q 215 1060 239 1040 q 190 1111 190 1079 m 503 1111 q 526 1163 503 1143 q 586 1183 550 1183 q 650 1163 626 1183 q 674 1111 674 1143 q 650 1060 674 1079 q 586 1040 626 1040 q 526 1060 550 1040 q 503 1111 503 1079 z "},"Ђ":{"ha":833,"x_min":32,"x_max":815,"o":"m 381 0 l 265 0 l 265 869 l 32 869 l 32 972 l 656 972 l 656 869 l 381 869 l 381 576 q 440 594 397 582 q 560 606 482 606 q 650 592 604 606 q 733 546 696 579 q 792 456 769 513 q 815 314 815 400 q 749 67 815 146 q 547 -11 682 -11 q 481 -10 501 -11 q 450 -7 461 -10 l 450 93 q 490 90 468 90 q 551 89 511 89 q 660 143 628 89 q 693 306 693 197 q 679 403 693 364 q 642 465 665 442 q 588 497 619 488 q 524 506 557 506 q 435 494 475 506 q 381 475 396 482 l 381 0 z "},"Ѓ":{"ha":833,"x_min":97,"x_max":764,"o":"m 97 972 l 764 972 l 764 718 l 661 718 l 661 869 l 346 869 l 346 103 l 564 103 l 564 0 l 97 0 l 97 103 l 231 103 l 231 869 l 97 869 l 97 972 m 535 1208 l 693 1208 l 693 1179 l 467 1044 l 371 1044 l 535 1208 z "},"Є":{"ha":833,"x_min":76,"x_max":756,"o":"m 636 867 q 584 881 613 876 q 515 886 556 886 q 410 869 463 886 q 313 812 357 851 q 240 708 269 772 q 201 553 210 644 l 626 553 l 626 450 l 199 450 q 230 290 203 358 q 300 177 257 222 q 401 109 343 132 q 526 86 460 86 q 594 92 563 86 q 651 110 625 99 l 651 249 l 754 249 l 754 61 l 756 58 q 650 5 714 26 q 494 -17 586 -17 q 331 13 407 -17 q 198 104 254 43 q 109 260 142 165 q 76 486 76 356 q 112 717 76 622 q 206 873 147 813 q 344 961 265 933 q 508 989 422 989 q 590 985 556 989 q 651 976 625 982 q 698 960 678 969 q 738 938 718 950 l 739 938 l 739 718 l 636 718 l 636 867 z "},"Ѕ":{"ha":833,"x_min":104,"x_max":743,"o":"m 208 138 q 302 101 250 115 q 407 86 354 86 q 493 95 453 86 q 563 124 533 104 q 610 175 593 144 q 628 247 628 206 q 590 340 628 304 q 494 404 551 376 q 371 458 438 432 q 247 521 304 485 q 152 609 190 557 q 114 742 114 661 q 137 844 114 799 q 201 922 160 890 q 302 972 243 954 q 433 989 361 989 q 585 977 517 989 q 693 946 653 965 l 696 947 l 696 944 l 697 944 l 696 940 l 696 718 l 593 718 l 593 867 q 517 881 558 875 q 428 886 475 886 q 345 875 382 886 q 283 845 308 864 q 243 801 257 826 q 229 749 229 776 q 267 658 229 694 q 363 594 306 622 q 486 538 419 565 q 610 473 553 510 q 705 385 667 436 q 743 257 743 333 q 720 144 743 194 q 655 58 697 94 q 551 3 613 22 q 411 -17 489 -17 q 311 -8 358 -17 q 224 13 264 0 q 153 39 185 25 q 104 63 122 53 l 106 67 l 106 292 l 208 292 l 208 138 z "},"І":{"ha":833,"x_min":83,"x_max":750,"o":"m 83 972 l 750 972 l 750 869 l 474 869 l 474 103 l 750 103 l 750 0 l 83 0 l 83 103 l 358 103 l 358 869 l 83 869 l 83 972 z "},"Ї":{"ha":833,"x_min":83,"x_max":750,"o":"m 83 972 l 750 972 l 750 869 l 474 869 l 474 103 l 750 103 l 750 0 l 83 0 l 83 103 l 358 103 l 358 869 l 83 869 l 83 972 m 175 1111 q 199 1163 175 1143 q 263 1183 224 1183 q 323 1163 299 1183 q 347 1111 347 1143 q 323 1060 347 1079 q 263 1040 299 1040 q 199 1060 224 1040 q 175 1111 175 1079 m 488 1111 q 511 1163 488 1143 q 571 1183 535 1183 q 635 1163 611 1183 q 658 1111 658 1143 q 635 1060 658 1079 q 571 1040 611 1040 q 511 1060 535 1040 q 488 1111 488 1079 z "},"Ј":{"ha":833,"x_min":117,"x_max":685,"o":"m 135 972 l 685 972 l 685 344 q 601 78 685 169 q 361 -14 518 -14 q 282 -7 321 -14 q 210 12 243 0 q 152 38 176 24 q 117 64 128 51 l 167 156 q 201 135 182 146 q 242 113 219 124 q 294 96 265 103 q 358 89 322 89 q 516 154 463 89 q 569 365 569 219 l 569 869 l 135 869 l 135 972 z "},"Љ":{"ha":833,"x_min":1,"x_max":831,"o":"m 413 869 l 261 869 q 239 406 253 592 q 193 121 225 221 q 138 24 174 54 q 61 -7 101 -7 q 1 7 29 -7 l 14 110 q 33 106 24 106 q 65 115 51 106 q 92 165 79 125 q 115 267 104 203 q 133 429 125 332 q 147 660 142 526 q 154 972 151 794 l 524 972 l 524 594 q 561 603 540 600 q 603 607 582 607 q 692 594 650 607 q 764 547 733 581 q 813 458 794 514 q 831 315 831 401 q 767 67 831 146 q 575 -11 704 -11 q 543 -10 563 -11 q 501 -8 524 -10 q 456 -2 479 -6 q 413 7 432 1 l 413 869 m 583 92 q 687 141 657 92 q 717 306 717 190 q 708 404 717 365 q 683 465 700 443 q 642 496 667 488 q 583 504 617 504 q 550 500 568 504 q 524 492 532 496 l 524 100 q 583 92 549 92 z "},"Њ":{"ha":833,"x_min":22,"x_max":811,"o":"m 379 460 l 133 460 l 133 0 l 22 0 l 22 972 l 133 972 l 133 563 l 379 563 l 379 972 l 490 972 l 490 563 q 506 566 494 564 q 531 570 518 568 q 557 574 544 572 q 576 575 569 575 q 668 564 625 575 q 743 522 711 553 q 793 438 775 492 q 811 300 811 385 q 746 60 811 132 q 558 -11 681 -11 q 524 -10 546 -11 q 476 -8 501 -10 q 424 -1 450 -6 q 379 8 399 3 l 379 460 m 568 92 q 667 137 638 92 q 697 290 697 182 q 689 385 697 349 q 664 440 681 421 q 623 466 647 460 q 568 472 599 472 q 549 471 560 472 q 526 468 538 469 q 504 464 514 467 q 490 460 494 461 l 490 100 q 526 93 503 94 q 568 92 549 92 z "},"Ћ":{"ha":833,"x_min":25,"x_max":808,"o":"m 374 0 l 258 0 l 258 869 l 25 869 l 25 972 l 649 972 l 649 869 l 374 869 l 374 549 q 413 569 392 558 q 460 590 435 581 q 515 606 485 600 q 585 611 546 611 q 685 598 643 611 q 755 553 728 585 q 795 469 782 522 q 808 339 808 417 l 808 0 l 693 0 l 693 318 q 689 402 693 367 q 671 461 685 438 q 631 497 657 485 q 563 508 606 508 q 453 491 496 508 q 374 444 410 474 l 374 0 z "},"Ќ":{"ha":833,"x_min":118,"x_max":826,"o":"m 340 450 l 233 450 l 233 0 l 118 0 l 118 972 l 233 972 l 233 539 l 338 539 l 650 972 l 783 972 l 440 510 l 826 0 l 681 0 l 340 450 m 474 1208 l 632 1208 l 632 1179 l 406 1044 l 310 1044 l 474 1208 z "},"Ў":{"ha":833,"x_min":42,"x_max":792,"o":"m 415 394 l 504 394 l 674 972 l 792 972 l 594 340 q 540 178 567 244 q 481 70 513 111 q 413 11 450 29 q 326 -7 375 -7 q 253 1 281 -7 q 203 24 226 8 l 238 119 q 289 100 265 104 q 332 96 313 96 q 407 142 371 96 q 467 292 443 188 l 342 293 l 42 972 l 175 972 l 415 394 m 301 1208 q 340 1129 307 1157 q 429 1101 374 1101 q 517 1129 485 1101 q 557 1207 550 1157 l 656 1183 q 585 1065 640 1108 q 428 1021 531 1021 q 266 1059 329 1021 q 192 1181 203 1097 l 301 1208 z "},"Џ":{"ha":833,"x_min":104,"x_max":728,"o":"m 104 0 l 104 972 l 219 972 l 219 103 l 613 103 l 613 972 l 728 972 l 728 0 l 467 0 l 467 -251 l 369 -251 l 369 0 l 104 0 z "},"А":{"ha":833,"x_min":22,"x_max":811,"o":"m 599 269 l 225 269 l 136 0 l 22 0 l 347 972 l 483 972 l 811 0 l 690 0 l 599 269 m 261 369 l 567 369 l 424 826 l 407 826 l 261 369 z "},"Б":{"ha":833,"x_min":150,"x_max":743,"o":"m 150 972 l 678 972 l 678 869 l 265 869 l 265 578 q 324 586 289 582 q 390 590 358 590 q 525 577 461 590 q 638 532 589 564 q 715 445 686 500 q 743 307 743 390 q 714 163 743 224 q 636 65 685 103 q 523 8 588 26 q 388 -11 458 -11 q 334 -10 364 -11 q 272 -7 304 -10 q 208 -1 239 -4 q 150 10 176 3 l 150 972 m 401 89 q 486 101 446 89 q 556 138 526 113 q 603 200 586 163 q 621 288 621 238 q 601 392 621 351 q 547 453 581 432 q 470 483 514 475 q 379 490 426 490 q 350 489 367 490 q 317 486 333 488 q 286 483 300 485 q 265 479 272 481 l 265 97 q 291 93 275 94 q 326 90 307 92 q 364 89 344 89 q 401 89 383 89 z "},"В":{"ha":833,"x_min":139,"x_max":754,"o":"m 725 750 q 714 679 725 715 q 681 612 703 643 q 624 557 658 581 q 542 521 589 533 l 542 515 q 622 492 583 508 q 689 446 660 475 q 736 375 718 417 q 754 276 754 333 q 723 147 754 201 q 641 57 692 92 q 525 6 590 22 q 392 -11 460 -11 q 336 -11 368 -11 q 269 -9 304 -11 q 200 -3 235 -7 q 139 7 165 0 l 139 964 q 258 978 190 972 q 407 983 326 983 q 517 974 461 983 q 619 940 574 965 q 695 868 665 914 q 725 750 725 822 m 403 89 q 489 100 447 89 q 563 133 531 111 q 613 189 594 156 q 632 268 632 222 q 609 360 632 325 q 549 414 586 394 q 467 440 513 433 q 375 447 421 447 l 254 447 l 254 99 q 282 94 264 96 q 321 92 300 93 q 364 90 342 90 q 403 89 386 89 m 326 544 q 383 546 350 544 q 439 550 417 547 q 501 577 472 561 q 553 615 531 593 q 590 665 576 638 q 603 726 603 693 q 585 803 603 772 q 539 851 568 833 q 472 876 510 869 q 396 883 435 883 q 312 881 350 883 q 254 875 274 879 l 254 544 l 326 544 z "},"Г":{"ha":833,"x_min":97,"x_max":764,"o":"m 97 972 l 764 972 l 764 718 l 661 718 l 661 869 l 346 869 l 346 103 l 564 103 l 564 0 l 97 0 l 97 103 l 231 103 l 231 869 l 97 869 l 97 972 z "},"Д":{"ha":833,"x_min":11,"x_max":811,"o":"m 811 -196 l 714 -196 l 714 0 l 108 0 l 108 -196 l 11 -196 l 11 103 l 104 103 q 130 176 110 119 q 172 338 150 233 q 211 599 193 442 q 229 972 229 756 l 707 972 l 707 103 l 811 103 l 811 -196 m 592 103 l 592 869 l 338 869 q 320 594 333 717 q 290 378 307 472 q 256 215 274 283 q 226 103 239 147 l 592 103 z "},"Е":{"ha":833,"x_min":149,"x_max":726,"o":"m 149 972 l 719 972 l 719 869 l 264 869 l 264 551 l 685 551 l 685 449 l 264 449 l 264 103 l 726 103 l 726 0 l 149 0 l 149 972 z "},"Ж":{"ha":833,"x_min":0,"x_max":833,"o":"m 360 972 l 471 972 l 471 536 l 540 536 l 693 972 l 807 972 l 639 497 l 833 0 l 706 0 l 543 450 l 471 450 l 471 0 l 360 0 l 360 450 l 283 450 l 119 0 l 0 0 l 182 490 l 25 972 l 146 972 l 278 536 l 360 536 l 360 972 z "},"З":{"ha":833,"x_min":111,"x_max":736,"o":"m 111 254 l 214 254 l 214 108 q 289 89 247 97 q 379 81 331 81 q 549 131 485 81 q 614 281 614 181 q 554 410 614 368 q 396 460 494 453 l 313 460 l 313 557 l 408 557 q 476 576 444 561 q 533 613 508 590 q 571 664 557 635 q 585 726 585 693 q 569 803 585 772 q 525 854 553 835 q 458 883 497 874 q 372 892 419 892 q 293 886 332 892 q 222 872 254 881 l 222 735 l 119 735 l 119 940 l 119 942 q 160 958 133 950 q 222 974 186 967 q 301 985 258 981 q 392 989 344 989 q 511 977 454 989 q 612 938 568 965 q 681 865 656 911 q 707 750 707 818 q 662 617 707 681 q 525 526 617 554 l 525 521 q 680 447 624 507 q 736 288 736 388 q 706 151 736 208 q 624 56 675 93 q 510 1 574 18 q 379 -17 446 -17 q 217 1 283 -17 q 111 33 150 18 l 111 35 l 111 254 z "},"И":{"ha":833,"x_min":83,"x_max":750,"o":"m 635 644 l 643 783 l 635 783 l 554 628 l 193 0 l 83 0 l 83 972 l 199 972 l 199 319 l 192 182 l 200 182 l 279 338 l 640 972 l 750 972 l 750 0 l 635 0 l 635 644 z "},"Й":{"ha":833,"x_min":83,"x_max":750,"o":"m 635 644 l 643 783 l 635 783 l 554 628 l 193 0 l 83 0 l 83 972 l 199 972 l 199 319 l 192 182 l 200 182 l 279 338 l 640 972 l 750 972 l 750 0 l 635 0 l 635 644 m 310 1208 q 349 1129 315 1157 q 438 1101 382 1101 q 526 1129 493 1101 q 565 1207 558 1157 l 664 1183 q 594 1065 649 1108 q 436 1021 539 1021 q 274 1059 338 1021 q 200 1181 211 1097 l 310 1208 z "},"К":{"ha":833,"x_min":118,"x_max":826,"o":"m 340 450 l 233 450 l 233 0 l 118 0 l 118 972 l 233 972 l 233 539 l 338 539 l 650 972 l 783 972 l 440 510 l 826 0 l 681 0 l 340 450 z "},"Л":{"ha":833,"x_min":4,"x_max":728,"o":"m 613 869 l 350 869 q 313 408 336 592 q 244 121 290 224 q 172 24 214 54 q 82 -7 131 -7 q 39 -3 57 -7 q 4 7 21 0 l 19 107 q 49 103 33 103 q 95 118 72 103 q 140 175 118 133 q 177 275 160 213 q 208 433 194 338 q 229 662 221 529 q 242 972 238 794 l 728 972 l 728 0 l 613 0 l 613 869 z "},"М":{"ha":833,"x_min":83,"x_max":750,"o":"m 635 646 l 649 778 l 642 778 l 575 658 l 433 421 l 399 421 l 250 660 l 186 778 l 179 778 l 196 647 l 196 0 l 83 0 l 83 972 l 190 972 l 421 603 l 424 603 l 646 972 l 750 972 l 750 0 l 635 0 l 635 646 z "},"Н":{"ha":833,"x_min":83,"x_max":750,"o":"m 635 446 l 199 446 l 199 0 l 83 0 l 83 972 l 199 972 l 199 549 l 635 549 l 635 972 l 750 972 l 750 0 l 635 0 l 635 446 z "},"О":{"ha":833,"x_min":67,"x_max":767,"o":"m 67 486 q 152 858 67 728 q 415 989 238 989 q 580 953 513 989 q 689 851 647 917 q 749 692 731 785 q 767 486 767 600 q 681 114 767 244 q 415 -17 596 -17 q 253 19 319 -17 q 144 122 186 56 q 85 280 103 188 q 67 486 67 372 m 189 486 q 199 333 189 406 q 236 206 210 261 q 306 119 263 151 q 415 86 349 86 q 590 183 535 86 q 644 486 644 281 q 634 638 644 565 q 597 766 624 711 q 526 853 571 821 q 415 886 482 886 q 243 788 297 886 q 189 486 189 690 z "},"П":{"ha":833,"x_min":97,"x_max":736,"o":"m 621 869 l 213 869 l 213 0 l 97 0 l 97 972 l 736 972 l 736 0 l 621 0 l 621 869 z "},"Р":{"ha":833,"x_min":139,"x_max":746,"o":"m 139 963 q 253 979 192 975 q 374 983 314 983 q 503 971 438 983 q 624 925 569 958 q 712 833 678 892 q 746 685 746 775 q 714 535 746 596 q 629 435 682 474 q 508 381 576 397 q 368 364 440 364 q 345 364 361 364 q 312 365 329 364 q 278 367 294 365 q 254 369 261 368 l 254 0 l 139 0 l 139 963 m 376 883 q 307 882 340 883 q 254 875 274 881 l 254 472 q 276 469 261 469 q 308 467 292 468 q 340 467 325 467 q 363 467 356 467 q 456 476 410 467 q 540 508 503 485 q 601 575 578 532 q 624 685 624 618 q 602 780 624 742 q 545 841 581 818 q 465 874 510 864 q 376 883 421 883 z "},"С":{"ha":833,"x_min":90,"x_max":756,"o":"m 636 867 q 584 881 613 876 q 515 886 556 886 q 403 865 458 886 q 306 797 349 844 q 238 674 264 750 q 213 486 213 597 q 235 311 213 386 q 299 186 258 236 q 398 111 340 136 q 526 86 456 86 q 594 92 563 86 q 651 110 625 99 l 651 249 l 754 249 l 754 61 l 756 58 q 650 5 714 26 q 494 -17 586 -17 q 333 13 407 -17 q 204 104 258 43 q 120 260 150 165 q 90 486 90 356 q 124 717 90 622 q 214 873 157 813 q 347 961 271 933 q 508 989 422 989 q 590 985 556 989 q 651 976 625 982 q 698 960 678 969 q 738 938 718 950 l 739 938 l 739 718 l 636 718 l 636 867 z "},"Т":{"ha":833,"x_min":56,"x_max":778,"o":"m 56 972 l 778 972 l 778 718 l 675 718 l 675 869 l 474 869 l 474 103 l 626 103 l 626 0 l 206 0 l 206 103 l 358 103 l 358 869 l 158 869 l 158 718 l 56 718 l 56 972 z "},"У":{"ha":833,"x_min":42,"x_max":792,"o":"m 415 394 l 504 394 l 674 972 l 792 972 l 594 340 q 540 178 567 244 q 481 70 513 111 q 413 11 450 29 q 326 -7 375 -7 q 253 1 281 -7 q 203 24 226 8 l 238 119 q 289 100 265 104 q 332 96 313 96 q 407 142 371 96 q 467 292 443 188 l 342 293 l 42 972 l 175 972 l 415 394 z "},"Ф":{"ha":833,"x_min":31,"x_max":803,"o":"m 358 90 q 238 106 297 90 q 133 163 179 121 q 59 283 88 206 q 31 486 31 361 q 57 678 31 599 q 128 806 83 757 q 232 878 172 856 q 358 900 292 900 l 358 1000 l 474 1000 l 474 900 q 592 883 533 900 q 697 820 650 865 q 774 698 744 775 q 803 500 803 621 q 774 303 803 382 q 699 176 746 224 q 594 110 653 129 q 474 90 535 90 l 474 -28 l 358 -28 l 358 90 m 688 500 q 672 638 688 581 q 628 732 657 696 q 560 785 600 768 q 469 803 519 803 l 469 186 q 560 201 519 186 q 629 251 601 215 q 672 348 657 288 q 688 500 688 408 m 146 486 q 159 346 146 403 q 199 253 172 289 q 266 202 225 218 q 361 186 307 186 l 361 803 q 274 788 314 803 q 206 737 235 774 q 162 639 178 700 q 146 486 146 578 z "},"Х":{"ha":833,"x_min":28,"x_max":806,"o":"m 349 494 l 56 972 l 194 972 l 389 643 l 424 578 l 457 643 l 664 972 l 792 972 l 488 504 l 806 0 l 671 0 l 453 349 l 415 418 l 379 349 l 157 0 l 28 0 l 349 494 z "},"Ц":{"ha":833,"x_min":97,"x_max":825,"o":"m 825 -196 l 728 -196 l 728 0 l 97 0 l 97 972 l 213 972 l 213 103 l 594 103 l 594 972 l 710 972 l 710 103 l 825 103 l 825 -196 z "},"Ч":{"ha":833,"x_min":114,"x_max":732,"o":"m 229 972 l 229 650 q 401 460 229 460 q 524 477 467 460 q 617 524 581 494 l 617 972 l 732 972 l 732 0 l 617 0 l 617 419 q 518 378 579 399 q 378 357 457 357 q 271 370 319 357 q 188 415 222 383 q 133 499 153 446 q 114 629 114 551 l 114 972 l 229 972 z "},"Ш":{"ha":833,"x_min":71,"x_max":763,"o":"m 71 0 l 71 972 l 179 972 l 179 103 l 363 103 l 363 972 l 471 972 l 471 103 l 654 103 l 654 972 l 763 972 l 763 0 l 71 0 z "},"Щ":{"ha":833,"x_min":58,"x_max":833,"o":"m 58 0 l 58 972 l 167 972 l 167 103 l 349 103 l 349 972 l 457 972 l 457 103 l 640 103 l 640 972 l 749 972 l 749 103 l 833 103 l 833 -196 l 736 -196 l 736 0 l 58 0 z "},"Ъ":{"ha":833,"x_min":29,"x_max":789,"o":"m 224 869 l 29 869 l 29 972 l 339 972 l 339 594 q 386 601 354 597 q 450 606 418 606 q 589 588 526 606 q 696 535 651 571 q 765 444 740 500 q 789 314 789 389 q 766 181 789 240 q 698 78 743 121 q 587 13 653 36 q 433 -11 521 -11 q 397 -10 421 -11 q 343 -8 372 -10 q 282 -1 314 -6 q 224 10 250 3 l 224 869 m 447 89 q 614 147 561 89 q 667 306 667 206 q 609 454 667 403 q 442 506 551 506 q 381 501 410 506 q 339 493 353 497 l 339 97 q 363 93 349 94 q 392 91 376 92 q 422 90 407 90 q 447 89 436 89 z "},"Ы":{"ha":833,"x_min":69,"x_max":764,"o":"m 649 972 l 764 972 l 764 0 l 649 0 l 649 972 m 69 972 l 185 972 l 185 607 q 219 615 194 610 q 276 619 244 619 q 378 606 328 619 q 468 557 428 592 q 533 463 508 522 q 558 315 558 404 q 536 168 558 229 q 474 67 514 107 q 376 8 433 26 q 251 -11 319 -11 q 210 -10 233 -11 q 161 -8 186 -10 q 112 -2 136 -6 q 69 7 88 1 l 69 972 m 260 92 q 334 103 300 92 q 392 141 368 115 q 430 207 417 167 q 443 306 443 247 q 428 409 443 368 q 390 474 414 450 q 333 508 365 499 q 264 517 300 517 q 217 513 240 517 q 185 504 193 510 l 185 101 q 217 94 196 96 q 260 92 238 92 z "},"Ь":{"ha":833,"x_min":164,"x_max":769,"o":"m 164 972 l 279 972 l 279 594 q 303 598 286 596 q 339 601 319 600 q 379 604 358 603 q 417 606 400 606 q 547 592 483 606 q 659 546 610 579 q 739 456 708 513 q 769 314 769 400 q 740 169 769 231 q 660 68 711 108 q 540 8 608 28 q 390 -11 471 -11 q 343 -10 371 -11 q 284 -8 315 -10 q 222 -1 253 -6 q 164 10 190 3 l 164 972 m 406 89 q 499 102 456 89 q 576 142 543 115 q 628 210 610 169 q 647 306 647 251 q 626 403 647 364 q 572 465 606 442 q 493 497 538 488 q 401 506 449 506 q 371 504 389 506 q 335 501 353 503 q 301 497 317 500 q 279 493 286 494 l 279 97 q 335 91 299 93 q 406 89 371 89 z "},"Э":{"ha":833,"x_min":83,"x_max":750,"o":"m 106 931 l 104 935 q 210 974 147 960 q 346 989 274 989 q 509 961 435 989 q 637 873 583 933 q 720 717 690 813 q 750 486 750 621 q 716 254 750 350 q 623 98 682 158 q 485 10 564 38 q 317 -17 406 -17 q 247 -10 282 -17 q 180 5 211 -4 q 123 24 149 14 q 83 43 97 35 l 83 249 l 186 249 l 186 110 q 255 90 217 99 q 340 81 293 81 q 447 100 394 81 q 542 163 500 119 q 609 275 583 206 q 635 446 635 344 l 290 446 l 290 549 l 633 549 q 607 703 631 639 q 543 810 583 768 q 449 872 503 851 q 332 892 396 892 q 265 887 296 892 q 208 875 235 882 l 208 729 l 106 729 l 106 931 z "},"Ю":{"ha":833,"x_min":49,"x_max":800,"o":"m 164 549 l 279 549 q 298 726 282 646 q 345 865 314 807 q 425 956 376 924 q 540 989 474 989 q 660 954 611 989 q 741 854 710 919 q 786 696 772 789 q 800 486 800 603 q 734 110 800 238 q 526 -17 668 -17 q 415 15 461 -17 q 339 108 369 47 q 294 253 308 168 q 278 447 279 339 l 164 447 l 164 0 l 49 0 l 49 972 l 164 972 l 164 549 m 394 486 q 432 189 394 292 q 536 86 469 86 q 651 181 618 86 q 685 486 685 275 q 678 642 685 569 q 656 769 672 715 q 609 855 639 824 q 532 886 579 886 q 467 858 493 886 q 424 779 440 831 q 401 653 408 728 q 394 486 394 579 z "},"Я":{"ha":833,"x_min":58,"x_max":694,"o":"m 694 0 l 579 0 l 579 401 l 436 401 l 194 0 l 58 0 l 328 419 q 251 450 288 429 q 188 504 215 471 q 144 583 160 538 q 128 689 128 628 q 156 830 128 774 q 234 920 185 886 q 349 969 283 954 q 489 983 415 983 q 590 979 536 983 q 694 963 643 975 l 694 0 m 483 883 q 396 874 438 883 q 322 843 354 865 q 269 783 289 821 q 250 689 250 746 q 269 599 250 636 q 319 537 288 561 q 394 501 351 513 q 485 490 436 490 l 579 490 l 579 875 q 539 881 560 879 q 483 883 518 883 z "},"а":{"ha":833,"x_min":104,"x_max":757,"o":"m 150 640 q 285 690 210 675 q 432 706 360 706 q 548 683 503 706 q 619 626 593 661 q 653 545 644 590 q 663 454 663 500 q 660 342 663 401 q 656 222 657 282 q 664 90 656 153 l 757 90 l 757 0 l 572 0 l 560 104 l 553 104 q 528 72 544 92 q 484 34 511 53 q 418 1 457 15 q 326 -12 379 -12 q 164 40 224 -12 q 104 185 104 93 q 135 303 104 256 q 225 375 167 350 q 366 404 283 400 q 551 393 449 408 q 553 499 558 457 q 531 567 549 542 q 483 602 514 592 q 406 613 451 613 q 286 595 343 613 q 185 560 229 578 l 150 640 m 354 81 q 426 93 393 81 q 485 125 460 106 q 526 167 510 144 q 551 211 543 190 l 551 308 q 418 321 479 321 q 313 308 357 321 q 243 267 268 294 q 218 194 218 239 q 249 115 218 149 q 354 81 281 81 z "},"б":{"ha":833,"x_min":79,"x_max":754,"o":"m 185 568 q 301 665 238 638 q 458 693 364 693 q 678 607 601 693 q 754 363 754 521 q 665 81 754 179 q 417 -17 576 -17 q 79 421 79 -17 q 92 625 79 540 q 131 768 106 710 q 192 861 156 826 q 274 916 228 896 q 374 944 319 936 q 490 958 428 953 q 614 974 571 964 q 685 1007 657 983 l 701 911 q 668 890 686 899 q 624 876 650 882 q 562 867 597 871 q 478 860 526 863 q 357 846 410 856 q 267 806 304 836 q 209 720 231 776 q 181 568 188 664 l 185 568 m 194 346 q 208 246 194 294 q 248 160 221 197 q 317 99 275 122 q 417 76 358 76 q 583 149 528 76 q 639 354 639 221 q 627 450 639 406 q 592 528 615 494 q 530 581 568 561 q 440 600 492 600 q 253 535 311 600 q 194 346 194 471 z "},"в":{"ha":833,"x_min":167,"x_max":736,"o":"m 167 693 q 219 697 193 694 q 276 700 246 699 q 342 703 307 701 q 422 704 378 704 q 639 662 572 704 q 706 535 706 619 q 674 438 706 486 q 569 369 642 390 l 569 364 q 699 308 661 349 q 736 196 736 267 q 648 39 736 88 q 392 -10 560 -10 q 272 -6 325 -10 q 167 1 219 -3 l 167 693 m 274 88 q 338 83 306 85 q 410 82 369 82 q 572 109 518 82 q 625 203 625 136 q 615 250 625 229 q 580 286 604 271 q 517 310 556 301 q 419 318 478 318 l 274 318 l 274 88 m 439 401 q 494 410 467 401 q 545 434 522 419 q 582 469 568 449 q 596 511 596 489 q 555 590 596 568 q 418 613 514 613 q 334 611 365 613 q 274 608 303 610 l 274 401 l 439 401 z "},"г":{"ha":833,"x_min":142,"x_max":703,"o":"m 142 0 l 142 93 l 231 93 l 231 600 l 142 600 l 142 694 l 703 694 l 703 435 l 608 435 l 608 600 l 339 600 l 339 93 l 550 93 l 550 0 l 142 0 z "},"д":{"ha":833,"x_min":39,"x_max":786,"o":"m 786 -167 l 692 -167 l 692 0 l 133 0 l 133 -167 l 39 -167 l 39 94 l 117 94 q 150 149 129 110 q 190 260 171 189 q 225 438 210 332 q 243 694 240 544 l 679 694 l 679 94 l 786 94 l 786 -167 m 571 93 l 571 601 l 342 601 q 331 472 339 542 q 310 334 324 403 q 276 203 296 265 q 229 93 256 140 l 571 93 z "},"е":{"ha":833,"x_min":88,"x_max":746,"o":"m 735 88 q 676 46 710 65 q 601 13 642 26 q 517 -9 561 -1 q 429 -17 474 -17 q 282 9 346 -17 q 175 83 218 35 q 110 197 132 131 q 88 347 88 264 q 112 503 88 435 q 182 617 136 571 q 293 687 228 663 q 439 711 358 711 q 554 696 497 711 q 655 638 611 681 q 722 522 699 596 q 739 329 746 447 l 201 329 q 269 142 201 204 q 449 81 336 81 q 523 90 486 81 q 593 111 560 99 q 652 139 626 124 q 692 167 678 154 l 735 88 m 442 619 q 355 610 396 619 q 283 577 314 600 q 231 517 251 554 q 206 426 211 481 l 638 426 q 578 569 631 518 q 442 619 526 619 z "},"ж":{"ha":833,"x_min":8,"x_max":825,"o":"m 276 311 l 128 0 l 8 0 l 186 356 l 26 694 l 147 694 l 274 394 l 361 394 l 361 694 l 469 694 l 469 394 l 544 394 l 692 694 l 806 694 l 642 372 l 825 0 l 701 0 l 553 311 l 469 311 l 469 0 l 361 0 l 361 311 l 276 311 z "},"з":{"ha":833,"x_min":110,"x_max":731,"o":"m 149 629 l 147 633 q 198 660 171 647 q 259 684 225 674 q 336 701 293 694 q 435 708 379 708 q 540 697 492 708 q 625 663 589 685 q 681 608 661 640 q 701 533 701 575 q 692 487 701 511 q 665 440 683 463 q 622 400 647 418 q 565 372 597 382 l 565 367 q 694 308 657 351 q 731 194 731 265 q 710 113 731 150 q 648 47 689 75 q 547 3 607 19 q 406 -12 486 -12 q 297 -1 346 -12 q 212 26 249 10 q 149 63 175 43 q 110 99 124 82 l 165 186 q 203 151 181 169 q 258 117 225 132 q 333 91 290 101 q 431 81 375 81 q 503 88 469 81 q 563 110 538 96 q 604 148 589 125 q 619 201 619 171 q 572 282 619 254 q 414 310 524 310 l 335 310 l 335 400 l 433 400 q 489 409 461 400 q 539 433 517 418 q 575 467 561 447 q 589 510 589 488 q 575 558 589 538 q 537 590 561 578 q 480 609 513 603 q 411 615 447 615 q 314 605 356 615 q 243 579 272 594 l 243 464 l 149 464 l 149 629 z "},"и":{"ha":833,"x_min":118,"x_max":715,"o":"m 607 436 l 611 528 l 607 528 l 217 0 l 118 0 l 118 694 l 226 694 l 226 246 l 222 158 l 228 158 l 615 694 l 715 694 l 715 0 l 607 0 l 607 436 z "},"й":{"ha":833,"x_min":118,"x_max":715,"o":"m 607 436 l 611 528 l 607 528 l 217 0 l 118 0 l 118 694 l 226 694 l 226 246 l 222 158 l 228 158 l 615 694 l 715 694 l 715 0 l 607 0 l 607 436 m 299 975 q 347 886 313 911 q 425 861 381 861 q 504 888 469 861 q 551 974 539 914 l 635 947 q 563 824 622 867 q 422 781 504 781 q 348 790 385 781 q 282 819 311 800 q 232 869 253 839 q 204 942 211 900 l 299 975 z "},"к":{"ha":833,"x_min":151,"x_max":775,"o":"m 335 314 l 258 314 l 258 0 l 151 0 l 151 694 l 258 694 l 258 397 l 335 397 l 608 694 l 739 694 l 432 365 l 685 93 l 775 93 l 775 0 l 632 0 l 335 314 z "},"л":{"ha":833,"x_min":56,"x_max":700,"o":"m 592 600 l 351 600 q 338 363 346 474 q 306 171 329 253 q 241 42 283 89 q 126 -6 199 -6 q 86 -3 99 -6 q 56 7 74 0 l 74 110 q 123 103 100 103 q 164 119 146 103 q 197 173 182 136 q 222 277 211 210 q 239 447 232 344 q 250 694 246 549 l 700 694 l 700 0 l 592 0 l 592 600 z "},"м":{"ha":833,"x_min":89,"x_max":744,"o":"m 636 413 l 639 511 l 632 511 l 432 193 l 393 193 l 190 511 l 185 511 l 192 414 l 192 0 l 89 0 l 89 694 l 199 694 l 419 346 l 422 346 l 633 694 l 744 694 l 744 0 l 636 0 l 636 413 z "},"н":{"ha":833,"x_min":122,"x_max":711,"o":"m 603 308 l 229 308 l 229 0 l 122 0 l 122 694 l 229 694 l 229 406 l 603 406 l 603 694 l 711 694 l 711 0 l 603 0 l 603 308 z "},"о":{"ha":833,"x_min":79,"x_max":754,"o":"m 79 347 q 167 613 79 515 q 417 711 254 711 q 567 683 504 711 q 672 606 631 654 q 734 490 714 557 q 754 347 754 424 q 732 197 754 264 q 667 82 710 129 q 560 9 624 35 q 417 -17 497 -17 q 267 12 331 -17 q 161 89 203 40 q 99 204 119 138 q 79 347 79 271 m 194 347 q 206 250 194 299 q 244 163 218 201 q 313 100 271 124 q 417 76 356 76 q 584 145 528 76 q 640 347 640 214 q 628 445 640 397 q 590 532 617 493 q 520 594 563 571 q 417 618 478 618 q 250 550 306 618 q 194 347 194 482 z "},"п":{"ha":833,"x_min":128,"x_max":706,"o":"m 597 600 l 235 600 l 235 0 l 128 0 l 128 694 l 706 694 l 706 0 l 597 0 l 597 600 z "},"р":{"ha":833,"x_min":29,"x_max":769,"o":"m 133 451 q 133 484 133 464 q 131 526 132 504 q 127 568 129 547 q 122 604 125 589 l 29 604 l 29 694 l 214 694 l 228 597 l 235 597 q 330 678 272 646 q 471 711 388 711 q 694 629 619 711 q 769 361 769 547 q 744 203 769 274 q 671 85 718 133 q 557 10 624 36 q 410 -17 490 -17 q 358 -15 381 -17 q 316 -9 335 -12 q 279 0 297 -6 q 240 14 261 6 l 240 -278 l 133 -278 l 133 451 m 453 610 q 374 594 411 610 q 309 554 338 579 q 263 499 281 529 q 240 438 244 468 l 240 121 q 309 88 271 100 q 410 76 347 76 q 588 149 521 76 q 654 363 654 222 q 608 545 654 481 q 453 610 561 610 z "},"с":{"ha":833,"x_min":83,"x_max":751,"o":"m 610 588 q 541 606 578 599 q 468 614 504 614 q 265 550 332 614 q 199 347 199 486 q 218 238 199 286 q 274 157 238 190 q 360 106 310 124 q 472 88 411 88 q 599 110 538 88 q 703 168 661 132 l 751 88 q 703 53 732 71 q 635 19 674 35 q 551 -7 597 3 q 450 -17 504 -17 q 291 9 360 -17 q 176 83 222 35 q 107 198 131 131 q 83 347 83 265 q 108 503 83 435 q 178 617 132 571 q 289 687 224 663 q 435 711 354 711 q 602 693 538 711 q 711 653 667 675 l 710 649 l 710 456 l 610 456 l 610 588 z "},"т":{"ha":833,"x_min":72,"x_max":761,"o":"m 72 694 l 761 694 l 761 435 l 667 435 l 667 600 l 471 600 l 471 93 l 639 93 l 639 0 l 189 0 l 189 93 l 363 93 l 363 600 l 167 600 l 167 435 l 72 435 l 72 694 z "},"у":{"ha":833,"x_min":64,"x_max":769,"o":"m 432 107 l 485 107 l 657 694 l 769 694 l 576 71 q 545 -40 561 22 q 500 -156 529 -101 q 421 -247 471 -210 q 290 -285 371 -285 q 252 -281 272 -285 q 213 -270 232 -276 q 176 -256 193 -264 q 151 -239 160 -247 l 190 -139 q 213 -153 199 -146 q 245 -165 228 -160 q 279 -173 263 -169 q 307 -176 296 -176 q 449 0 411 -176 l 356 0 l 64 694 l 189 694 l 432 107 z "},"ф":{"ha":833,"x_min":33,"x_max":800,"o":"m 256 972 l 469 972 l 469 699 q 514 704 494 703 q 551 706 533 706 q 739 626 678 706 q 800 361 800 546 q 735 85 800 186 q 546 -17 671 -17 q 509 -15 533 -17 q 469 -7 485 -12 l 469 -278 l 364 -278 l 364 -6 q 315 -15 340 -14 q 268 -17 289 -17 q 92 72 151 -17 q 33 347 33 161 q 100 615 33 525 q 297 706 167 706 q 364 700 336 706 l 364 879 l 256 879 l 256 972 m 531 614 q 501 613 514 614 q 468 607 488 613 l 468 79 q 499 76 482 76 q 538 75 517 75 q 653 149 617 75 q 689 361 689 222 q 682 467 689 419 q 657 547 675 514 q 608 597 639 579 q 531 614 578 614 m 296 75 q 329 76 313 75 q 365 82 346 78 l 365 608 q 334 613 349 611 q 299 614 319 614 q 184 549 224 614 q 144 347 144 485 q 153 239 144 289 q 179 152 161 189 q 226 95 197 115 q 296 75 254 75 z "},"х":{"ha":833,"x_min":64,"x_max":769,"o":"m 351 356 l 83 694 l 222 694 l 422 433 l 628 694 l 753 694 l 485 361 l 769 0 l 636 0 l 415 285 l 190 0 l 64 0 l 351 356 z "},"ц":{"ha":833,"x_min":125,"x_max":813,"o":"m 813 -167 l 718 -167 l 718 0 l 125 0 l 125 694 l 232 694 l 232 94 l 590 94 l 590 694 l 699 694 l 699 94 l 813 94 l 813 -167 z "},"ч":{"ha":833,"x_min":125,"x_max":678,"o":"m 232 694 l 232 510 q 237 440 232 472 q 257 385 242 408 q 300 350 272 363 q 374 338 328 338 q 497 353 449 338 q 569 388 546 369 l 569 694 l 678 694 l 678 0 l 569 0 l 569 294 q 494 262 544 279 q 356 244 443 244 q 254 256 297 244 q 183 298 211 268 q 140 377 154 328 q 125 501 125 426 l 125 694 l 232 694 z "},"ш":{"ha":833,"x_min":76,"x_max":757,"o":"m 76 0 l 76 694 l 179 694 l 179 97 l 365 97 l 365 694 l 468 694 l 468 97 l 654 97 l 654 694 l 757 694 l 757 0 l 76 0 z "},"щ":{"ha":833,"x_min":94,"x_max":822,"o":"m 822 -167 l 728 -167 l 728 0 l 94 0 l 94 694 l 197 694 l 197 97 l 364 97 l 364 694 l 467 694 l 467 97 l 633 97 l 633 694 l 736 694 l 736 97 l 822 97 l 822 -167 z "},"ъ":{"ha":833,"x_min":61,"x_max":772,"o":"m 340 93 q 456 85 404 85 q 608 122 560 85 q 657 218 657 158 q 610 308 657 271 q 461 346 563 346 q 402 344 435 346 q 340 336 369 343 l 340 93 m 340 426 q 412 434 378 432 q 478 436 446 436 q 615 420 558 436 q 706 376 671 404 q 756 312 740 349 q 772 232 772 275 q 687 49 772 106 q 428 -8 601 -8 q 233 0 339 -8 l 233 600 l 61 600 l 61 694 l 340 694 l 340 426 z "},"ы":{"ha":833,"x_min":65,"x_max":768,"o":"m 176 97 q 275 89 228 89 q 397 123 363 89 q 432 219 432 157 q 398 311 432 275 q 279 347 364 347 q 228 346 256 347 q 176 338 200 344 l 176 97 m 176 429 q 240 437 210 435 q 299 439 271 439 q 417 423 369 439 q 494 379 465 407 q 535 313 524 351 q 547 232 547 275 q 477 49 547 106 q 250 -8 407 -8 q 65 0 161 -8 l 65 694 l 176 694 l 176 429 m 657 694 l 768 694 l 768 0 l 657 0 l 657 694 z "},"ь":{"ha":833,"x_min":156,"x_max":736,"o":"m 263 96 q 299 92 278 93 q 343 88 321 90 q 386 85 365 86 q 419 85 407 85 q 572 122 524 85 q 621 218 621 158 q 574 308 621 271 q 425 346 526 346 q 335 344 379 346 q 263 336 292 343 l 263 96 m 263 426 q 342 434 300 432 q 440 436 385 436 q 577 420 521 436 q 669 376 633 404 q 720 312 704 349 q 736 232 736 275 q 651 49 736 106 q 390 -8 565 -8 q 338 -7 368 -8 q 277 -3 308 -6 q 214 1 246 -1 q 156 6 182 3 l 156 694 l 263 694 l 263 426 z "},"э":{"ha":833,"x_min":104,"x_max":751,"o":"m 140 660 l 143 660 q 254 698 192 685 q 403 711 317 711 q 546 685 482 711 q 656 613 610 660 q 726 498 701 565 q 751 347 751 431 q 724 193 751 261 q 646 78 696 125 q 528 8 596 32 q 382 -17 461 -17 q 306 -10 346 -17 q 227 9 265 -3 q 157 38 189 21 q 104 76 125 56 l 150 163 q 250 107 190 133 q 385 81 310 81 q 475 94 429 81 q 558 135 521 107 q 617 205 594 163 q 640 304 640 247 l 311 304 l 311 396 l 639 396 q 615 484 635 443 q 562 555 596 525 q 480 601 528 585 q 372 618 432 618 q 297 612 332 618 q 235 594 263 606 l 235 490 l 140 490 l 140 660 z "},"ю":{"ha":833,"x_min":68,"x_max":781,"o":"m 538 -17 q 422 6 468 -17 q 347 72 375 29 q 307 174 319 114 q 292 307 294 233 l 179 307 l 179 0 l 68 0 l 68 694 l 179 694 l 179 404 l 293 404 q 313 536 297 479 q 357 632 328 593 q 431 691 386 671 q 540 711 476 711 q 658 685 611 711 q 731 612 704 660 q 769 497 758 564 q 781 347 781 429 q 726 78 781 172 q 538 -17 671 -17 m 400 347 q 404 244 400 293 q 422 160 408 196 q 464 102 436 124 q 540 81 492 81 q 604 97 579 81 q 642 145 629 113 q 660 228 656 178 q 665 347 665 278 q 662 450 665 401 q 646 535 658 499 q 608 592 633 571 q 539 614 582 614 q 469 598 496 614 q 426 549 442 582 q 406 466 411 517 q 400 347 400 415 z "},"я":{"ha":833,"x_min":89,"x_max":678,"o":"m 569 271 l 403 271 l 228 0 l 89 0 l 89 93 l 161 93 l 288 282 q 236 305 261 289 q 191 345 211 321 q 159 402 171 369 q 147 475 147 435 q 172 583 147 538 q 242 657 197 628 q 347 699 286 686 q 482 713 408 713 q 582 705 535 713 q 678 689 629 697 l 678 0 l 569 0 l 569 271 m 569 354 l 569 601 q 524 614 550 608 q 478 619 497 619 q 317 587 372 619 q 261 483 261 554 q 294 395 261 426 q 375 354 328 364 l 569 354 z "},"ё":{"ha":833,"x_min":88,"x_max":746,"o":"m 735 88 q 676 46 710 65 q 601 13 642 26 q 517 -9 561 -1 q 429 -17 474 -17 q 282 9 346 -17 q 175 83 218 35 q 110 197 132 131 q 88 347 88 264 q 112 503 88 435 q 182 617 136 571 q 293 687 228 663 q 439 711 358 711 q 554 696 497 711 q 655 638 611 681 q 722 522 699 596 q 739 329 746 447 l 201 329 q 269 142 201 204 q 449 81 336 81 q 523 90 486 81 q 593 111 560 99 q 652 139 626 124 q 692 167 678 154 l 735 88 m 442 619 q 355 610 396 619 q 283 577 314 600 q 231 517 251 554 q 206 426 211 481 l 638 426 q 578 569 631 518 q 442 619 526 619 m 182 869 q 203 928 182 906 q 261 951 225 951 q 318 928 296 951 q 340 869 340 906 q 318 813 340 836 q 261 790 296 790 q 203 813 225 790 q 182 869 182 836 m 492 869 q 513 928 492 906 q 569 951 535 951 q 628 928 606 951 q 651 869 651 906 q 628 813 651 836 q 569 790 606 790 q 513 813 535 790 q 492 869 492 836 z "},"ђ":{"ha":833,"x_min":82,"x_max":750,"o":"m 82 694 l 193 694 l 193 972 l 304 972 l 304 694 l 526 694 l 526 611 l 304 611 l 304 406 l 310 406 q 397 474 346 449 q 522 500 447 500 q 624 487 581 500 q 695 440 667 474 q 737 351 724 407 q 750 208 750 294 l 750 -37 q 706 -231 750 -167 q 564 -294 661 -294 q 543 -294 553 -294 q 522 -292 533 -293 l 522 -197 q 584 -185 561 -197 q 619 -149 607 -174 q 635 -87 632 -125 q 639 0 639 -50 l 639 183 q 633 279 639 238 q 610 348 626 321 q 565 389 593 375 q 490 403 536 403 q 372 360 425 403 q 304 251 319 318 l 304 0 l 193 0 l 193 611 l 82 611 l 82 694 z "},"ѓ":{"ha":833,"x_min":142,"x_max":703,"o":"m 142 0 l 142 93 l 231 93 l 231 600 l 142 600 l 142 694 l 703 694 l 703 435 l 608 435 l 608 600 l 339 600 l 339 93 l 550 93 l 550 0 l 142 0 m 443 1000 l 594 1000 l 429 793 l 353 793 l 443 1000 z "},"є":{"ha":833,"x_min":83,"x_max":751,"o":"m 610 588 q 541 606 578 599 q 468 614 504 614 q 265 550 332 614 q 201 397 211 497 l 517 397 l 517 306 l 200 306 q 218 238 206 268 q 274 157 238 190 q 360 106 310 124 q 472 88 411 88 q 599 110 538 88 q 703 168 661 132 l 751 88 q 703 53 732 71 q 635 19 674 35 q 551 -7 597 3 q 450 -17 504 -17 q 291 9 360 -17 q 176 83 222 35 q 107 198 131 131 q 83 347 83 265 q 108 503 83 435 q 178 617 132 571 q 289 687 224 663 q 435 711 354 711 q 602 693 538 711 q 711 653 667 675 l 710 649 l 710 456 l 610 456 l 610 588 z "},"ѕ":{"ha":833,"x_min":117,"x_max":717,"o":"m 608 188 q 574 256 608 232 q 488 295 539 281 q 376 322 436 310 q 264 356 315 335 q 178 412 213 376 q 143 511 143 447 q 166 601 143 564 q 226 663 189 639 q 314 699 264 688 q 418 711 364 711 q 585 687 515 711 q 697 636 656 663 l 653 549 q 553 597 607 574 q 419 619 500 619 q 359 613 389 619 q 305 594 329 607 q 266 562 281 582 q 251 513 251 542 q 286 457 251 476 q 372 424 321 438 q 484 399 424 411 q 596 365 544 388 q 682 306 647 343 q 717 204 717 268 q 641 46 717 108 q 414 -17 565 -17 q 324 -8 368 -17 q 240 14 279 0 q 169 45 201 28 q 117 81 138 63 l 172 171 q 217 137 189 154 q 278 106 244 119 q 349 83 311 92 q 426 75 388 75 q 497 81 464 75 q 554 101 529 88 q 594 135 579 114 q 608 188 608 157 z "},"і":{"ha":833,"x_min":146,"x_max":735,"o":"m 146 0 l 146 93 l 388 93 l 388 601 l 146 601 l 146 694 l 499 694 l 499 93 l 735 93 l 735 0 l 146 0 m 350 892 q 375 956 350 929 q 439 983 400 983 q 506 956 479 983 q 533 892 533 929 q 506 831 533 856 q 439 806 479 806 q 375 831 400 806 q 350 892 350 856 z "},"ї":{"ha":833,"x_min":146,"x_max":735,"o":"m 146 0 l 146 93 l 388 93 l 388 601 l 146 601 l 146 694 l 499 694 l 499 93 l 735 93 l 735 0 l 146 0 m 182 896 q 203 955 182 932 q 261 978 225 978 q 318 955 296 978 q 340 896 340 932 q 318 840 340 863 q 261 817 296 817 q 203 840 225 817 q 182 896 182 863 m 492 896 q 513 955 492 932 q 569 978 535 978 q 628 955 606 978 q 651 896 651 932 q 628 840 651 863 q 569 817 606 817 q 513 840 535 817 q 492 896 492 863 z "},"ј":{"ha":833,"x_min":82,"x_max":592,"o":"m 467 601 l 131 601 l 131 694 l 578 694 l 578 -17 q 506 -226 578 -157 q 308 -294 435 -294 q 235 -285 271 -294 q 169 -262 200 -275 q 116 -235 139 -249 q 82 -212 93 -221 l 128 -122 q 213 -171 165 -150 q 313 -192 261 -192 q 431 -140 396 -192 q 467 4 467 -87 l 467 601 m 408 892 q 433 956 408 929 q 497 983 458 983 q 565 956 538 983 q 592 892 592 929 q 565 831 592 856 q 497 806 538 806 q 433 831 458 806 q 408 892 408 856 z "},"љ":{"ha":833,"x_min":8,"x_max":811,"o":"m 517 429 q 565 437 540 435 q 618 439 590 439 q 708 423 671 439 q 767 379 744 407 q 801 313 790 351 q 811 232 811 275 q 747 49 811 106 q 569 -8 682 -8 q 487 -6 524 -8 q 413 0 450 -4 l 413 597 l 276 597 q 269 477 274 543 q 258 344 265 411 q 239 215 251 278 q 205 103 226 151 q 152 24 183 54 q 75 -6 121 -6 q 36 -3 49 -6 q 8 7 24 0 l 25 100 q 57 94 42 94 q 102 118 82 94 q 138 208 122 142 q 164 390 153 274 q 179 694 175 507 l 517 694 l 517 429 m 517 96 q 594 88 547 88 q 678 122 654 88 q 703 219 703 157 q 681 311 703 275 q 599 347 660 347 q 553 346 575 347 q 517 338 531 344 l 517 96 z "},"њ":{"ha":833,"x_min":26,"x_max":822,"o":"m 479 96 q 516 92 492 94 q 564 89 540 89 q 674 123 642 89 q 707 219 707 157 q 675 311 707 275 q 568 347 643 347 q 518 344 544 347 q 479 338 492 340 l 479 96 m 479 429 q 528 435 496 432 q 588 439 560 439 q 699 423 654 439 q 772 379 744 407 q 810 313 799 351 q 822 232 822 275 q 755 49 822 106 q 539 -8 688 -8 q 446 -6 493 -8 q 368 0 399 -4 l 368 310 l 138 310 l 138 0 l 26 0 l 26 694 l 138 694 l 138 407 l 368 407 l 368 694 l 479 694 l 479 429 z "},"ћ":{"ha":833,"x_min":82,"x_max":750,"o":"m 82 694 l 193 694 l 193 972 l 304 972 l 304 694 l 526 694 l 526 611 l 304 611 l 304 406 l 310 406 q 397 474 346 449 q 522 500 447 500 q 624 487 581 500 q 695 440 667 474 q 737 351 724 407 q 750 208 750 294 l 750 0 l 639 0 l 639 183 q 633 279 639 238 q 610 348 626 321 q 565 389 593 375 q 490 403 536 403 q 372 360 425 403 q 304 251 319 318 l 304 0 l 193 0 l 193 611 l 82 611 l 82 694 z "},"ќ":{"ha":833,"x_min":151,"x_max":775,"o":"m 335 314 l 258 314 l 258 0 l 151 0 l 151 694 l 258 694 l 258 397 l 335 397 l 608 694 l 739 694 l 432 365 l 685 93 l 775 93 l 775 0 l 632 0 l 335 314 m 417 1000 l 568 1000 l 403 793 l 326 793 l 417 1000 z "},"ў":{"ha":833,"x_min":64,"x_max":769,"o":"m 432 107 l 485 107 l 657 694 l 769 694 l 576 71 q 545 -40 561 22 q 500 -156 529 -101 q 421 -247 471 -210 q 290 -285 371 -285 q 252 -281 272 -285 q 213 -270 232 -276 q 176 -256 193 -264 q 151 -239 160 -247 l 190 -139 q 213 -153 199 -146 q 245 -165 228 -160 q 279 -173 263 -169 q 307 -176 296 -176 q 449 0 411 -176 l 356 0 l 64 694 l 189 694 l 432 107 m 314 975 q 362 886 328 911 q 440 861 396 861 q 519 888 485 861 q 567 974 554 914 l 650 947 q 578 824 638 867 q 438 781 519 781 q 363 790 400 781 q 297 819 326 800 q 247 869 268 839 q 219 942 226 900 l 314 975 z "},"џ":{"ha":833,"x_min":139,"x_max":694,"o":"m 139 0 l 139 694 l 250 694 l 250 97 l 583 97 l 583 694 l 694 694 l 694 0 l 468 0 l 468 -222 l 374 -222 l 374 0 l 139 0 z "},"Ѣ":{"ha":833,"x_min":10,"x_max":822,"o":"m 10 861 l 217 861 l 217 1001 l 332 1001 l 332 861 l 619 861 l 619 764 l 332 764 l 332 593 q 356 597 339 594 q 392 600 372 599 q 432 603 411 601 q 469 604 453 604 q 599 591 536 604 q 712 545 663 578 q 792 456 761 513 q 822 314 822 400 q 793 169 822 231 q 713 68 764 108 q 592 8 661 28 q 443 -11 524 -11 q 396 -10 424 -11 q 337 -8 368 -10 q 274 -1 306 -6 q 217 10 243 3 l 217 764 l 10 764 l 10 861 m 458 89 q 552 102 508 89 q 629 142 596 115 q 681 210 663 169 q 700 306 700 251 q 679 403 700 364 q 624 464 658 442 q 546 495 590 486 q 454 504 501 504 q 424 503 442 504 q 388 500 406 501 q 354 496 369 499 q 332 492 339 493 l 332 97 q 388 91 351 93 q 458 89 424 89 z "},"ѣ":{"ha":833,"x_min":51,"x_max":740,"o":"m 51 694 l 203 694 l 203 972 l 314 972 l 314 694 l 578 694 l 578 603 l 314 603 l 314 429 q 383 437 347 435 q 478 439 419 439 q 600 423 550 439 q 681 379 650 407 q 726 313 713 351 q 740 232 740 275 q 665 49 740 106 q 429 -8 589 -8 q 376 -8 406 -8 q 317 -6 347 -7 q 256 -4 286 -6 q 203 0 226 -3 l 203 603 l 51 603 l 51 694 m 314 97 q 374 91 342 93 q 433 89 406 89 q 581 123 538 89 q 625 219 625 157 q 583 311 625 275 q 444 347 540 347 q 375 346 411 347 q 314 338 339 344 l 314 97 z "},"Ѳ":{"ha":833,"x_min":67,"x_max":767,"o":"m 67 486 q 152 858 67 728 q 415 989 238 989 q 580 953 513 989 q 689 851 647 917 q 749 692 731 785 q 767 486 767 600 q 681 114 767 244 q 415 -17 596 -17 q 253 19 319 -17 q 144 122 186 56 q 85 280 103 188 q 67 486 67 372 m 415 86 q 583 173 528 86 q 643 442 638 260 l 189 442 q 204 303 192 368 q 243 191 217 239 q 312 115 269 143 q 415 86 354 86 m 415 886 q 252 802 307 886 q 190 544 197 718 l 643 544 q 626 677 639 615 q 586 785 613 739 q 518 859 560 832 q 415 886 476 886 z "},"ѳ":{"ha":833,"x_min":79,"x_max":754,"o":"m 79 347 q 167 613 79 515 q 417 711 254 711 q 567 683 504 711 q 672 606 631 654 q 734 490 714 557 q 754 347 754 424 q 732 197 754 264 q 667 82 710 129 q 560 9 624 35 q 417 -17 497 -17 q 267 12 331 -17 q 161 89 203 40 q 99 204 119 138 q 79 347 79 271 m 417 618 q 196 390 213 618 l 638 390 q 618 475 633 433 q 576 548 603 517 q 510 599 550 579 q 417 618 471 618 m 417 76 q 572 133 517 76 q 638 301 628 190 l 196 301 q 215 217 200 258 q 257 145 231 176 q 323 95 283 114 q 417 76 363 76 z "},"Ѵ":{"ha":833,"x_min":-40,"x_max":875,"o":"m 410 0 l 301 0 l -40 972 l 85 972 l 357 186 l 367 186 l 503 683 q 563 852 535 792 q 621 941 592 913 q 681 976 650 969 q 747 982 711 982 q 824 974 796 982 q 875 951 851 967 l 842 854 q 790 874 814 869 q 746 879 765 879 q 681 843 707 879 q 626 722 654 807 l 410 0 z "},"ѵ":{"ha":833,"x_min":56,"x_max":778,"o":"m 404 -15 l 357 -15 l 56 694 l 183 694 l 388 193 l 389 193 l 489 451 q 531 558 511 511 q 573 637 550 604 q 626 687 596 669 q 697 704 656 704 q 742 701 722 704 q 778 692 761 699 l 761 589 q 737 598 749 594 q 714 601 725 601 q 667 581 690 601 q 615 494 643 560 l 404 -15 z "},"Ҋ":{"ha":833,"x_min":33,"x_max":844,"o":"m 585 644 l 593 783 l 585 783 l 504 628 l 143 0 l 33 0 l 33 972 l 149 972 l 149 319 l 142 182 l 150 182 l 229 338 l 590 972 l 700 972 l 700 97 l 844 97 l 746 -181 l 643 -181 l 706 0 l 585 0 l 585 644 m 260 1208 q 299 1129 265 1157 q 388 1101 332 1101 q 476 1129 443 1101 q 515 1207 508 1157 l 614 1183 q 544 1065 599 1108 q 386 1021 489 1021 q 224 1059 288 1021 q 150 1181 161 1097 l 260 1208 z "},"ҋ":{"ha":833,"x_min":118,"x_max":863,"o":"m 607 436 l 611 528 l 607 528 l 217 0 l 118 0 l 118 694 l 226 694 l 226 246 l 222 158 l 228 158 l 615 694 l 715 694 l 715 93 l 863 93 l 764 -181 l 661 -181 l 724 0 l 607 0 l 607 436 m 299 975 q 347 886 313 911 q 425 861 381 861 q 504 888 469 861 q 551 974 539 914 l 635 947 q 563 824 622 867 q 422 781 504 781 q 348 790 385 781 q 282 819 311 800 q 232 869 253 839 q 204 942 211 900 l 299 975 z "},"Ҍ":{"ha":833,"x_min":10,"x_max":822,"o":"m 10 861 l 217 861 l 217 1001 l 332 1001 l 332 861 l 619 861 l 619 764 l 332 764 l 332 593 q 356 597 339 594 q 392 600 372 599 q 432 603 411 601 q 469 604 453 604 q 599 591 536 604 q 712 545 663 578 q 792 456 761 513 q 822 314 822 400 q 793 169 822 231 q 713 68 764 108 q 592 8 661 28 q 443 -11 524 -11 q 396 -10 424 -11 q 337 -8 368 -10 q 274 -1 306 -6 q 217 10 243 3 l 217 764 l 10 764 l 10 861 m 458 89 q 552 102 508 89 q 629 142 596 115 q 681 210 663 169 q 700 306 700 251 q 679 403 700 364 q 624 464 658 442 q 546 495 590 486 q 454 504 501 504 q 424 503 442 504 q 388 500 406 501 q 354 496 369 499 q 332 492 339 493 l 332 97 q 388 91 351 93 q 458 89 424 89 z "},"ҍ":{"ha":833,"x_min":51,"x_max":740,"o":"m 51 694 l 203 694 l 203 972 l 314 972 l 314 694 l 578 694 l 578 603 l 314 603 l 314 429 q 383 437 347 435 q 478 439 419 439 q 600 423 550 439 q 681 379 650 407 q 726 313 713 351 q 740 232 740 275 q 665 49 740 106 q 429 -8 589 -8 q 376 -8 406 -8 q 317 -6 347 -7 q 256 -4 286 -6 q 203 0 226 -3 l 203 603 l 51 603 l 51 694 m 314 97 q 374 91 342 93 q 433 89 406 89 q 581 123 538 89 q 625 219 625 157 q 583 311 625 275 q 444 347 540 347 q 375 346 411 347 q 314 338 339 344 l 314 97 z "},"Ҏ":{"ha":833,"x_min":113,"x_max":719,"o":"m 113 963 q 226 979 165 975 q 347 983 288 983 q 477 971 411 983 q 597 925 543 958 q 685 833 651 892 q 719 685 719 775 q 676 514 719 581 q 563 411 632 447 l 657 275 l 593 229 l 486 382 q 342 364 419 364 q 319 364 335 364 q 285 365 303 364 q 251 367 268 365 q 228 369 235 368 l 228 0 l 113 0 l 113 963 m 399 642 l 497 499 q 569 566 542 522 q 597 685 597 610 q 576 780 597 742 q 519 841 554 818 q 439 874 483 864 q 350 883 394 883 q 281 882 314 883 q 228 875 247 881 l 228 472 q 250 469 235 469 q 282 467 265 468 q 314 467 299 467 q 336 467 329 467 q 382 468 360 467 q 428 475 404 469 l 339 604 l 399 642 z "},"ҏ":{"ha":833,"x_min":29,"x_max":769,"o":"m 133 451 q 133 484 133 464 q 131 526 132 504 q 127 568 129 547 q 122 604 125 589 l 29 604 l 29 694 l 214 694 l 228 597 l 235 597 q 330 678 272 646 q 471 711 388 711 q 694 629 619 711 q 769 361 769 547 q 744 203 769 274 q 671 85 718 133 q 646 63 658 72 l 728 -31 l 661 -87 l 572 15 q 557 10 564 13 q 410 -17 490 -17 q 358 -15 381 -17 q 316 -9 335 -12 q 279 0 297 -6 q 240 14 261 6 l 240 -278 l 133 -278 l 133 451 m 453 610 q 374 594 411 610 q 309 554 338 579 q 263 499 281 529 q 240 438 244 468 l 240 121 q 309 88 271 100 q 410 76 347 76 q 506 93 463 76 l 421 192 l 485 249 l 578 140 q 588 149 583 144 q 654 363 654 222 q 608 545 654 481 q 453 610 561 610 z "},"Ґ":{"ha":833,"x_min":97,"x_max":764,"o":"m 97 972 l 661 972 l 661 1139 l 764 1139 l 764 869 l 346 869 l 346 103 l 578 103 l 578 0 l 97 0 l 97 103 l 231 103 l 231 869 l 97 869 l 97 972 z "},"ґ":{"ha":833,"x_min":142,"x_max":703,"o":"m 142 0 l 142 93 l 231 93 l 231 600 l 142 600 l 142 694 l 608 694 l 608 861 l 703 861 l 703 600 l 339 600 l 339 93 l 550 93 l 550 0 l 142 0 z "},"Ғ":{"ha":833,"x_min":89,"x_max":743,"o":"m 743 869 l 338 869 l 338 535 l 636 535 l 636 443 l 338 443 l 338 0 l 222 0 l 222 443 l 89 443 l 89 535 l 222 535 l 222 972 l 743 972 l 743 869 z "},"ғ":{"ha":833,"x_min":68,"x_max":710,"o":"m 710 597 l 304 597 l 304 388 l 650 388 l 650 304 l 304 304 l 304 0 l 193 0 l 193 304 l 68 304 l 68 388 l 193 388 l 193 694 l 710 694 l 710 597 z "},"Ҕ":{"ha":833,"x_min":114,"x_max":719,"o":"m 229 0 l 114 0 l 114 972 l 635 972 l 635 869 l 229 869 l 229 493 q 295 510 246 499 q 421 522 344 522 q 530 507 476 522 q 626 454 583 492 q 694 352 668 417 q 719 189 719 288 q 635 -90 719 -1 q 396 -178 551 -178 q 330 -177 350 -178 q 299 -174 310 -176 l 299 -71 q 338 -74 317 -74 q 400 -75 360 -75 q 597 179 597 -75 q 581 297 597 250 q 535 372 564 343 q 469 411 507 400 q 386 422 431 422 q 337 419 361 422 q 291 410 313 415 q 253 400 269 406 q 229 392 238 394 l 229 0 z "},"ҕ":{"ha":833,"x_min":136,"x_max":751,"o":"m 247 0 l 136 0 l 136 694 l 665 694 l 665 597 l 247 597 l 247 350 q 270 358 256 353 q 310 367 285 363 q 372 376 335 372 q 463 379 410 379 q 570 363 518 379 q 663 310 622 347 q 727 213 703 274 q 751 63 751 153 q 678 -205 751 -119 q 450 -290 606 -290 q 384 -290 404 -290 q 353 -286 364 -289 l 353 -189 q 392 -192 371 -192 q 454 -193 414 -193 q 596 -130 551 -193 q 640 49 640 -67 q 624 155 640 111 q 579 227 607 199 q 513 269 551 256 q 432 282 475 282 q 307 271 351 282 q 247 253 263 260 l 247 0 z "},"Җ":{"ha":833,"x_min":0,"x_max":860,"o":"m 360 972 l 471 972 l 471 536 l 540 536 l 693 972 l 807 972 l 639 497 l 793 103 l 860 103 l 860 -167 l 763 -167 l 763 0 l 706 0 l 543 450 l 471 450 l 471 0 l 360 0 l 360 450 l 283 450 l 119 0 l 0 0 l 182 490 l 25 972 l 146 972 l 278 536 l 360 536 l 360 972 z "},"җ":{"ha":833,"x_min":8,"x_max":850,"o":"m 276 311 l 128 0 l 8 0 l 186 356 l 26 694 l 147 694 l 274 394 l 361 394 l 361 694 l 469 694 l 469 394 l 544 394 l 692 694 l 806 694 l 642 372 l 779 93 l 850 93 l 850 -167 l 756 -167 l 756 0 l 701 0 l 553 311 l 469 311 l 469 0 l 361 0 l 361 311 l 276 311 z "},"Ҙ":{"ha":833,"x_min":111,"x_max":736,"o":"m 111 254 l 214 254 l 214 108 q 289 89 247 97 q 379 81 331 81 q 549 131 485 81 q 614 281 614 181 q 554 410 614 368 q 396 460 494 453 l 313 460 l 313 557 l 408 557 q 476 576 444 561 q 533 613 508 590 q 571 664 557 635 q 585 726 585 693 q 569 803 585 772 q 525 854 553 835 q 458 883 497 874 q 372 892 419 892 q 293 886 332 892 q 222 872 254 881 l 222 735 l 119 735 l 119 942 q 160 958 133 950 q 222 974 186 967 q 301 985 258 981 q 392 989 344 989 q 511 977 454 989 q 612 938 568 965 q 681 865 656 911 q 707 750 707 818 q 662 617 707 681 q 525 526 617 554 l 525 521 q 680 447 624 507 q 736 288 736 388 q 706 151 736 208 q 624 56 675 93 q 510 0 574 18 q 439 -12 475 -8 l 439 -222 l 342 -222 l 342 -15 q 217 0 269 -12 q 111 33 150 18 l 111 254 z "},"ҙ":{"ha":833,"x_min":110,"x_max":731,"o":"m 149 629 l 147 633 q 198 660 171 647 q 259 684 225 674 q 336 701 293 694 q 435 708 379 708 q 540 697 492 708 q 625 663 589 685 q 681 608 661 640 q 701 533 701 575 q 692 487 701 511 q 665 440 683 463 q 622 400 647 418 q 565 372 597 382 l 565 367 q 694 308 657 351 q 731 194 731 265 q 710 113 731 150 q 648 47 689 75 q 546 3 607 19 q 468 -10 511 -6 l 468 -222 l 374 -222 l 374 -11 q 297 -1 332 -10 q 212 26 249 10 q 149 63 175 43 q 110 99 124 82 l 165 186 q 203 151 181 169 q 258 117 225 132 q 333 91 290 101 q 431 81 375 81 q 503 88 469 81 q 563 110 538 96 q 604 148 589 125 q 619 201 619 171 q 572 282 619 254 q 414 310 524 310 l 335 310 l 335 400 l 433 400 q 489 409 461 400 q 539 433 517 418 q 575 467 561 447 q 589 510 589 488 q 575 558 589 538 q 537 590 561 578 q 480 609 513 603 q 411 615 447 615 q 314 605 356 615 q 243 579 272 594 l 243 464 l 149 464 l 149 629 z "},"Қ":{"ha":833,"x_min":118,"x_max":833,"o":"m 340 450 l 233 450 l 233 0 l 118 0 l 118 972 l 233 972 l 233 539 l 338 539 l 650 972 l 783 972 l 440 510 l 749 103 l 833 103 l 833 -167 l 736 -167 l 736 0 l 681 0 l 340 450 z "},"қ":{"ha":833,"x_min":124,"x_max":750,"o":"m 307 314 l 231 314 l 231 0 l 124 0 l 124 694 l 231 694 l 231 397 l 307 397 l 581 694 l 711 694 l 404 365 l 657 93 l 750 93 l 750 -167 l 656 -167 l 656 0 l 604 0 l 307 314 z "},"Ҝ":{"ha":833,"x_min":65,"x_max":815,"o":"m 256 450 l 181 450 l 181 0 l 65 0 l 65 972 l 181 972 l 181 539 l 256 539 l 256 701 l 347 701 l 347 539 l 382 539 l 653 972 l 786 972 l 485 510 l 815 0 l 669 0 l 385 450 l 347 450 l 347 271 l 256 271 l 256 450 z "},"ҝ":{"ha":833,"x_min":103,"x_max":775,"o":"m 646 0 l 418 314 l 368 314 l 368 136 l 281 136 l 281 314 l 210 314 l 210 0 l 103 0 l 103 694 l 210 694 l 210 397 l 281 397 l 281 558 l 368 558 l 368 397 l 418 397 l 622 694 l 739 694 l 515 365 l 707 93 l 775 93 l 775 0 l 646 0 z "}}}
